<?xml version="1.0" standalone="no"?>
<!DOCTYPE svg PUBLIC "-//W3C//DTD SVG 1.1//EN" "http://www.w3.org/Graphics/SVG/1.1/DTD/svg11.dtd" >
<svg xmlns="http://www.w3.org/2000/svg">
<metadata>
Created by FontForge 20120702 at Mon Oct 22 17:33:40 2012

(URW)++,Copyright 2004-2011 by (URW)++ Design &#38; Development
</metadata>
<defs>
<font id="MANEuropeCondensed-Regular" horiz-adv-x="948" vert-adv-y="2048" >
  <font-face 
    font-family="MANEurope Condensed"
    font-weight="400"
    font-stretch="normal"
    units-per-em="2048"
    panose-1="0 0 0 0 0 0 0 0 0 0"
    ascent="1638"
    descent="-410"
    x-height="1100"
    cap-height="1462"
    bbox="-263 -549 2618 2181"
    underline-thickness="102"
    underline-position="-258"
    unicode-range="U+0020-FB03"
  />
<missing-glyph horiz-adv-x="492" vert-adv-y="2457" 
d="M49 0v1462h394v-1462h-394zM394 49v1364h-296v-1364h296z" />
    <glyph glyph-name=".notdef" horiz-adv-x="492" vert-adv-y="2457" 
d="M49 0v1462h394v-1462h-394zM394 49v1364h-296v-1364h296z" />
    <glyph glyph-name="glyph1" horiz-adv-x="0" vert-adv-y="0" 
 />
    <glyph glyph-name="glyph2" horiz-adv-x="492" vert-adv-y="2457" 
 />
    <glyph glyph-name="space" unicode=" " horiz-adv-x="492" vert-adv-y="2457" 
 />
    <glyph glyph-name="exclam" unicode="!" horiz-adv-x="528" vert-adv-y="2457" 
d="M170 1462h189v-454l-35 -623h-114l-40 623v454zM170 195h189v-195h-189v195z" />
    <glyph glyph-name="quotedbl" unicode="&#x22;" horiz-adv-x="834" vert-adv-y="2457" 
d="M646 874h-85l-29 588h144zM271 874h-84l-29 588h143z" />
    <glyph glyph-name="numbersign" unicode="#" horiz-adv-x="983" vert-adv-y="2457" 
d="M678 490l-40 -373h-115l40 373h-201l-39 -373h-115l39 373h-200l12 113h200l24 231h-200l12 113h200l39 369h115l-39 -369h201l39 369h115l-39 -369h210l-12 -113h-210l-24 -231h210l-12 -113h-210zM599 834h-201l-24 -231h201z" />
    <glyph glyph-name="dollar" unicode="$" horiz-adv-x="983" vert-adv-y="2457" 
d="M424 114v566q-92 33 -165 73q-187 101 -187 325q0 163 93 263.5t259 117.5v149h113v-149q149 -15 235 -91q114 -101 113 -281h-172q-3 199 -176 230v-497q138 -50 198 -83q183 -100 183 -340q0 -187 -98.5 -296t-282.5 -127v-179h-113v177q-181 15 -277 116
q-59 62 -82.5 140.5t-23.5 211.5h174q3 -173 58 -242q52 -67 151 -84zM537 117q207 47 207 260q0 107 -44.5 163.5t-162.5 99.5v-523zM424 1316q-178 -36 -178 -225q0 -83 42 -137t136 -91v453z" />
    <glyph glyph-name="percent" unicode="%" horiz-adv-x="1554" vert-adv-y="2457" 
d="M370 1459q161 0 221 -127q35 -75 35 -262q0 -197 -43 -277q-65 -118 -229 -118q-149 0 -210 105q-44 75 -44 267q0 231 54 314q63 98 216 98zM361 1344q-66 0 -91 -63t-25 -232q0 -148 24.5 -203.5t90.5 -55.5q68 0 93 59.5t25 223.5q0 159 -24 215t-93 56zM1031 1473
h130l-645 -1500h-130zM1200 768q161 0 221 -127q35 -76 35 -262q0 -196 -44 -277q-64 -118 -229 -118q-150 0 -210 105q-44 76 -44 269q0 229 54 312q63 98 217 98zM1191 653q-67 0 -92 -63t-25 -230q0 -149 24.5 -204.5t91.5 -55.5q68 0 93 58.5t25 221.5q0 161 -24 217
t-93 56z" />
    <glyph glyph-name="ampersand" unicode="&#x26;" horiz-adv-x="1139" vert-adv-y="2457" 
d="M905 686h161q-2 -107 -34.5 -221.5t-84.5 -199.5l188 -265h-193l-100 144q-136 -171 -370 -171q-185 0 -300 108q-124 117 -124 295q0 189 159 339q27 25 145 116l-12 19q-94 142 -118 196t-24 122q0 125 90 205q88 78 224 78q134 0 215 -74q85 -78 85 -208
q0 -140 -118 -250q-22 -21 -136 -105l292 -410q50 93 55 282zM480 921q80 66 105 93q70 75 70 158q0 67 -39.5 106t-108.5 39q-67 0 -108.5 -38.5t-41.5 -100.5q0 -89 123 -257zM436 723q-85 -63 -126 -112q-85 -102 -85 -217q0 -112 71 -189q78 -85 205 -85q157 0 260 146z
" />
    <glyph glyph-name="quotesingle" unicode="'" horiz-adv-x="492" vert-adv-y="2457" 
d="M287 874h-84l-29 588h143z" />
    <glyph glyph-name="parenleft" unicode="(" horiz-adv-x="494" vert-adv-y="2457" 
d="M360 1462h100q-90 -177 -123 -261q-113 -286 -113 -651q0 -262 52.5 -465t183.5 -451h-100q-68 100 -125 216q-174 356 -174 699q0 241 72 460t227 453z" />
    <glyph glyph-name="parenright" unicode=")" horiz-adv-x="494" vert-adv-y="2457" 
d="M133 -366h-100q92 180 124 261q112 285 112 652q0 261 -52.5 464.5t-183.5 450.5h100q69 -101 125 -216q174 -355 174 -699q0 -241 -71.5 -459t-227.5 -454z" />
    <glyph glyph-name="asterisk" unicode="*" horiz-adv-x="721" vert-adv-y="2457" 
d="M305 1462h116v-139q0 -57 -8 -116q31 20 84 41l143 54l42 -105l-139 -54q-44 -17 -92 -28q49 -51 75 -85l87 -110l-94 -73l-88 114q-44 56 -67 102q-51 -80 -67 -102l-82 -114l-97 73l84 109q48 63 76 86q-55 12 -89 23l-151 51l41 113l140 -53q44 -16 91 -42
q-5 44 -5 119v136z" />
    <glyph glyph-name="plus" unicode="+" horiz-adv-x="1229" vert-adv-y="2457" 
d="M202 781h350v350h126v-350h349v-126h-349v-349h-126v349h-350v126z" />
    <glyph glyph-name="comma" unicode="," horiz-adv-x="492" vert-adv-y="2457" 
d="M150 215h192v-149q0 -108 -9.5 -163.5t-36.5 -101.5q-42 -72 -146 -105v97q54 24 72.5 64.5t19.5 142.5h-92v215z" />
    <glyph glyph-name="hyphen" unicode="-" horiz-adv-x="721" vert-adv-y="2457" 
d="M148 643h424v-161h-424v161z" />
    <glyph glyph-name="period" unicode="." horiz-adv-x="492" vert-adv-y="2457" 
d="M150 215h192v-215h-192v215z" />
    <glyph glyph-name="slash" unicode="/" horiz-adv-x="569" vert-adv-y="2457" 
d="M469 1462h140l-636 -1828h-140z" />
    <glyph glyph-name="zero" unicode="0" horiz-adv-x="983" vert-adv-y="2457" 
d="M501 1462q224 0 324 -199q79 -158 79 -503q0 -309 -50 -493q-81 -296 -379 -296q-168 0 -263 113q-75 89 -104 224.5t-29 392.5q0 324 51 477q47 145 138.5 214.5t232.5 69.5zM493 1322q-155 0 -206 -214q-27 -116 -27 -403q0 -272 27 -403q40 -191 195 -191
q141 0 191.5 135.5t50.5 512.5q0 301 -47 425q-51 138 -184 138z" />
    <glyph glyph-name="one" unicode="1" horiz-adv-x="983" vert-adv-y="2457" 
d="M145 1208q181 3 261.5 60t93.5 190h127v-1458h-172v1090h-310v118z" />
    <glyph glyph-name="two" unicode="2" horiz-adv-x="983" vert-adv-y="2457" 
d="M94 992q3 192 58 288q54 93 139.5 137.5t213.5 44.5q184 0 284 -108q103 -111 103 -302q0 -195 -109 -325q-61 -72 -255 -237q-116 -100 -168 -168t-75 -150q-4 -17 -9 -27q29 6 104 6h523v-151h-809q-1 174 76 319q45 86 108.5 154t247.5 226q103 89 144 167t41 185
q0 117 -47 187q-56 84 -171 84q-227 0 -226 -330h-173z" />
    <glyph glyph-name="three" unicode="3" horiz-adv-x="983" vert-adv-y="2457" 
d="M77 400h174q17 -289 227 -289q122 0 186 92q54 77 54 204q0 177 -108 252q-31 21 -71.5 28.5t-129.5 7.5q-29 0 -47 -1v130q130 0 185 21q125 48 125 239q0 101 -41 162q-52 76 -157 76q-100 0 -153 -71.5t-52 -206.5h-172q1 159 56 252q99 166 323 166q185 0 281 -103
q95 -101 95 -265q0 -184 -117 -273q-56 -43 -118 -54q136 -17 209 -107t73 -242q0 -194 -103 -317q-109 -130 -323 -130q-241 0 -342 189q-53 98 -54 240z" />
    <glyph glyph-name="four" unicode="4" horiz-adv-x="983" vert-adv-y="2457" 
d="M64 351v167l518 940h179v-956h164v-151h-164v-351h-172v351h-525zM205 498q14 4 109 4h17h258v446l1 33q6 169 17 249q-32 -81 -82 -171l-243 -441q-50 -89 -77 -120z" />
    <glyph glyph-name="five" unicode="5" horiz-adv-x="983" vert-adv-y="2457" 
d="M85 374h175q1 -100 35 -161q59 -102 183 -102q126 0 188 108q55 97 55 253q0 140 -51 233q-58 107 -195 107q-73 0 -127 -37t-78 -103l-153 10l79 751h648v-151h-512l-32 -270l-6 -38q-12 -95 -22 -136q40 53 106.5 83.5t145.5 30.5q188 0 287 -141q91 -130 91 -337
q0 -233 -113 -367q-113 -136 -317 -136q-237 0 -334 174q-54 94 -53 229z" />
    <glyph glyph-name="six" unicode="6" horiz-adv-x="983" vert-adv-y="2457" 
d="M878 1118h-177q-3 97 -54 150.5t-139 53.5q-90 0 -144 -56.5t-80 -176.5q-19 -90 -36 -331q89 176 295 176q190 0 290 -141q85 -120 85 -322q0 -210 -95 -343q-113 -157 -328 -157q-230 0 -332 190q-85 157 -85 529q0 379 82 547q110 225 358 225q218 0 310 -157
q47 -82 50 -187zM498 789q-105 0 -164.5 -82t-59.5 -227q0 -144 42 -236q59 -133 190 -133q117 0 174 97t57 245q0 336 -239 336z" />
    <glyph glyph-name="seven" unicode="7" horiz-adv-x="983" vert-adv-y="2457" 
d="M72 1433h830v-149q-85 -102 -189.5 -301.5t-164.5 -374.5q-99 -287 -130 -608h-194q3 136 69.5 372.5t154.5 426.5q143 306 299 482q-42 -9 -153 -9h-522v161z" />
    <glyph glyph-name="eight" unicode="8" horiz-adv-x="983" vert-adv-y="2457" 
d="M330 784q-41 9 -86 43q-124 93 -124 269q0 174 108 277q94 89 261 89q182 0 278 -100q97 -101 97 -264q0 -120 -57 -207.5t-147 -106.5q73 -19 125 -62q123 -103 123 -318q0 -204 -114 -323q-106 -110 -299 -110q-186 0 -295 103q-124 115 -124 329q0 152 66 251t188 130
zM488 1322q-90 0 -138.5 -61.5t-48.5 -175.5q0 -111 50.5 -173t141.5 -62q89 0 139.5 61.5t50.5 171.5q0 116 -50 177.5t-145 61.5zM486 709q-109 0 -169 -78t-60 -221q0 -141 60 -219q61 -80 175 -80t174.5 77t60.5 223q0 142 -58 217q-63 81 -183 81z" />
    <glyph glyph-name="nine" unicode="9" horiz-adv-x="983" vert-adv-y="2457" 
d="M108 316h176q3 -99 52 -152t137 -53q137 0 194 130q45 101 58 304q6 99 14 143q-49 -99 -119 -143.5t-178 -44.5q-193 0 -291 142q-85 125 -85 322q0 208 96 341q114 157 331 157q223 0 328 -188q84 -152 84 -525q0 -378 -78 -544q-111 -234 -362 -234q-218 0 -308 157
q-45 78 -49 188zM475 1322q-112 0 -170 -96q-58 -99 -58 -253q0 -133 43 -219q27 -53 78.5 -84t113.5 -31q107 0 167 82t60 228q0 152 -43 244q-60 129 -191 129z" />
    <glyph glyph-name="colon" unicode=":" horiz-adv-x="492" vert-adv-y="2457" 
d="M150 1046h192v-215h-192v215zM150 215h192v-215h-192v215z" />
    <glyph glyph-name="semicolon" unicode=";" horiz-adv-x="492" vert-adv-y="2457" 
d="M150 215h192v-149q0 -108 -9.5 -163.5t-36.5 -101.5q-42 -72 -146 -105v97q54 24 72.5 64.5t19.5 142.5h-92v215zM150 1046h192v-215h-192v215z" />
    <glyph glyph-name="less" unicode="&#x3c;" horiz-adv-x="1229" vert-adv-y="2457" 
d="M1090 1272v-190l-748 -347l748 -348v-188l-951 455v163z" />
    <glyph glyph-name="equal" unicode="=" horiz-adv-x="1229" vert-adv-y="2457" 
d="M202 623h825v-125h-825v125zM202 939h825v-126h-825v126z" />
    <glyph glyph-name="greater" unicode="&#x3e;" horiz-adv-x="1229" vert-adv-y="2457" 
d="M140 199v190l747 347l-747 347v189l950 -455v-164z" />
    <glyph glyph-name="question" unicode="?" horiz-adv-x="909" vert-adv-y="2457" 
d="M68 1047v23q0 201 103 310q106 112 281 112q181 0 284 -112q93 -102 93 -273q0 -145 -67 -247q-30 -46 -143 -167q-69 -75 -89.5 -129.5t-20.5 -170.5h-164q0 149 22 213q18 52 50.5 96t134.5 155q56 61 80 121t24 140q0 96 -42 154q-58 80 -163 80q-104 0 -158 -77.5
t-54 -227.5h-171zM337 195h191v-195h-191v195z" />
    <glyph glyph-name="at" unicode="@" horiz-adv-x="1638" vert-adv-y="2457" 
d="M1384 356h80q-35 -73 -70 -119t-97 -97q-196 -166 -434 -166q-205 0 -379 111q-176 112 -266 304q-70 151 -70 322q0 209 100 385q97 172 265 270q166 97 355 97q161 0 297 -71q174 -92 260 -263q61 -122 61 -264q0 -189 -103 -341q-61 -90 -144 -141.5t-166 -51.5
q-116 0 -151 119q-48 -60 -92.5 -86t-99.5 -26q-101 0 -164.5 84t-63.5 218q0 170 91 315q44 70 104.5 108.5t126.5 38.5t107.5 -30t70.5 -99l26 104h107l-106 -481q-16 -75 -16 -97q0 -96 79 -96q91 0 189 112q127 144 127 344q0 233 -165 387q-156 145 -377 145
q-172 0 -321 -90q-159 -97 -244 -267q-73 -146 -73 -319q0 -288 191 -481q185 -188 445 -188q158 0 297.5 83t222.5 227zM851 1022q-90 0 -155 -125q-33 -63 -56 -152t-23 -152q0 -79 37 -130.5t94 -51.5q111 0 166 187q56 192 56 269q0 71 -32.5 113t-86.5 42z" />
    <glyph glyph-name="A" unicode="A" horiz-adv-x="1024" vert-adv-y="2457" 
d="M402 1462h237l404 -1462h-191l-105 401h-470l-110 -401h-187zM519 1348q-13 -96 -75 -321l-130 -478h397l-121 473q-51 196 -71 326z" />
    <glyph glyph-name="B" unicode="B" horiz-adv-x="1063" vert-adv-y="2457" 
d="M123 1462h319q213 0 287 -25q104 -35 161 -135q52 -91 52 -206q0 -121 -55.5 -204t-157.5 -116q88 -20 145 -67q119 -99 119 -291q0 -263 -202 -369q-93 -49 -279 -49h-389v1462zM301 1316v-483h112q119 1 161.5 6t76.5 22q109 57 109 218q0 182 -142 223q-47 14 -214 14
h-103zM301 698v-552h137q175 0 234 26q139 62 139 247q0 203 -161 260q-49 18 -238 19h-111z" />
    <glyph glyph-name="C" unicode="C" horiz-adv-x="1063" vert-adv-y="2457" 
d="M834 503h181q0 -185 -79 -331q-59 -109 -142 -154q-85 -47 -222 -47q-215 0 -317 122q-78 92 -113 240t-35 384q0 383 95 563q54 103 149.5 157t223.5 54q270 0 374 -199q53 -101 54 -257h-179q-1 103 -40 189q-56 122 -209 122q-178 0 -238 -185q-48 -149 -48 -451
q0 -240 38 -386q27 -105 94 -158q63 -50 152 -50q251 0 261 387z" />
    <glyph glyph-name="D" unicode="D" horiz-adv-x="1139" vert-adv-y="2457" 
d="M140 1462h278q170 0 260.5 -18t155.5 -64q139 -100 185 -329q24 -118 24 -281q0 -227 -38 -383t-116 -248q-64 -76 -149.5 -107.5t-226.5 -31.5h-373v1462zM318 1316v-1170h157q199 0 273 89q113 134 113 526q0 220 -45 350q-58 169 -215 194q-68 11 -173 11h-110z" />
    <glyph glyph-name="E" unicode="E" vert-adv-y="2457" 
d="M119 1462h755v-156h-577v-464h544v-156h-544v-530h599v-156h-777v1462z" />
    <glyph glyph-name="F" unicode="F" horiz-adv-x="909" vert-adv-y="2457" 
d="M125 1462h748v-156h-570v-462h537v-156h-537v-688h-178v1462z" />
    <glyph glyph-name="G" unicode="G" horiz-adv-x="1100" vert-adv-y="2457" 
d="M551 760h455v-760h-137v105q0 2 -1 17v19q0 6 1 52v4q-85 -226 -328 -226q-134 0 -231 70q-124 88 -169 272q-42 172 -42 415q0 383 98 557q116 206 371 206q199 0 308 -112.5t115 -321.5h-180q-4 103 -39 171q-61 118 -204 118q-158 0 -222.5 -146.5t-64.5 -504.5
q0 -293 69 -443q63 -136 216 -136q113 0 182 83q49 58 69.5 153.5t20.5 259.5h-287v148z" />
    <glyph glyph-name="H" unicode="H" horiz-adv-x="1100" vert-adv-y="2457" 
d="M299 861h501v601h178v-1462h-178v705h-501v-705h-178v1462h178v-601z" />
    <glyph glyph-name="I" unicode="I" horiz-adv-x="418" vert-adv-y="2457" 
d="M120 1462h178v-1462h-178v1462z" />
    <glyph glyph-name="J" unicode="J" horiz-adv-x="872" vert-adv-y="2457" 
d="M42 427h175q0 -153 20 -207q37 -104 150 -104q151 0 176 154q8 50 8 209v983h178v-983q0 -236 -36 -321q-80 -187 -332 -187q-231 0 -306 183q-33 82 -33 273z" />
    <glyph glyph-name="K" unicode="K" horiz-adv-x="1024" vert-adv-y="2457" 
d="M116 1462h178v-528q0 -150 -4 -206q64 117 132 210l380 524h199l-440 -610l484 -852h-205l-395 702l-151 -204v-498h-178v1462z" />
    <glyph glyph-name="L" unicode="L" horiz-adv-x="909" vert-adv-y="2457" 
d="M116 1462h178v-1306h599v-156h-777v1462z" />
    <glyph glyph-name="M" unicode="M" horiz-adv-x="1442" vert-adv-y="2457" 
d="M133 1462h290l150 -569q144 -546 149 -715h8q0 144 104 549l184 735h291v-1462h-171v1024q0 135 13 325h-13q-32 -171 -129 -549l-205 -800h-166l-212 814l-11 48q-50 200 -53.5 215t-57.5 272h-13q13 -206 13 -408v-941h-171v1462z" />
    <glyph glyph-name="N" unicode="N" horiz-adv-x="1139" vert-adv-y="2457" 
d="M122 1462h231l325 -792q118 -286 177 -535h9q-19 152 -19 393v934h171v-1462h-237l-311 769q-154 369 -187 559h-9q21 -175 21 -409v-919h-171v1462z" />
    <glyph glyph-name="O" unicode="O" horiz-adv-x="1139" vert-adv-y="2457" 
d="M583 1491q236 0 346 -175.5t110 -552.5q0 -325 -66 -514q-45 -129 -148 -204q-100 -74 -263 -74q-300 0 -398 280q-64 186 -64 490q0 390 116 570t367 180zM569 1346q-153 0 -218 -135q-69 -145 -69 -474q0 -292 52 -442q61 -179 231 -179q183 0 244 193q48 151 48 416
q0 342 -65 481.5t-223 139.5z" />
    <glyph glyph-name="P" unicode="P" horiz-adv-x="985" vert-adv-y="2457" 
d="M123 1462h363q187 0 279 -52q90 -51 135 -152q42 -93 42 -215q0 -164 -74 -271q-62 -89 -151.5 -121.5t-270.5 -32.5h-145v-618h-178v1462zM301 1316v-552h159q142 0 199 40q101 72 101 238q0 175 -115 241q-57 33 -209 33h-135z" />
    <glyph glyph-name="Q" unicode="Q" horiz-adv-x="1139" vert-adv-y="2457" 
d="M978 -85l-154 140q-109 -84 -258 -84q-180 0 -278 91q-186 171 -186 661q0 353 90 538q113 230 384 230q284 0 388 -246q73 -174 73 -481q0 -447 -117 -607l154 -140zM570 284l96 106l128 -120q61 125 61 470q0 331 -63.5 468.5t-217.5 137.5q-156 0 -220 -132
q-70 -145 -70 -489q0 -289 52 -433q64 -177 226 -177q93 0 147 44z" />
    <glyph glyph-name="R" unicode="R" horiz-adv-x="1063" vert-adv-y="2457" 
d="M120 1462h411q188 0 275 -54q159 -99 159 -327q0 -140 -60.5 -233t-171.5 -124q138 -28 180 -122q23 -52 30.5 -111.5t16.5 -259.5q5 -111 19 -154.5t57 -76.5h-217q-23 33 -31 90t-16 246q-5 129 -20.5 183t-54.5 88q-35 29 -79 38.5t-143 9.5h-177v-655h-178v1462z
M298 1316v-522h196q139 0 198 48q91 74 91 219q0 165 -112 224q-58 31 -174 31h-199z" />
    <glyph glyph-name="S" unicode="S" horiz-adv-x="1024" vert-adv-y="2457" 
d="M57 458h183q0 -158 36 -223q66 -119 223 -119q130 0 201.5 67.5t71.5 191.5q0 127 -80 196q-35 30 -73 46t-209 74q-146 49 -224 123q-105 101 -105 275q0 188 111 297q106 105 314 105q260 0 357 -176q50 -89 49 -229h-180q-3 106 -30 159q-50 101 -200 101
q-126 0 -185 -69q-54 -63 -54 -166q0 -144 116 -217q37 -23 73.5 -37.5t197.5 -68.5q169 -56 236 -152q68 -96 68 -241q0 -208 -130 -322q-117 -102 -330 -102q-209 0 -321 105q-64 60 -88 141q-28 94 -28 212v29z" />
    <glyph glyph-name="T" unicode="T" vert-adv-y="2457" 
d="M17 1462h914v-156h-365v-1306h-178v1306h-371v156z" />
    <glyph glyph-name="U" unicode="U" horiz-adv-x="1063" vert-adv-y="2457" 
d="M104 1462h178v-984q0 -160 25 -224q55 -138 220 -138q184 0 235 162q20 63 20 195v989h178v-986q0 -190 -46 -288q-104 -217 -396 -217q-217 0 -324 135q-90 113 -90 318v62v976z" />
    <glyph glyph-name="V" unicode="V" horiz-adv-x="946" vert-adv-y="2457" 
d="M-6 1462h190l243 -1045q30 -128 45 -284h8q16 169 43 284l246 1045h183l-365 -1462h-229z" />
    <glyph glyph-name="W" unicode="W" horiz-adv-x="1479" vert-adv-y="2457" 
d="M13 1462h183l161 -856q52 -274 60 -444h9q6 161 59 460l149 840h213l156 -873q47 -267 54 -427h9q4 131 64 456l156 844h179l-296 -1462h-221l-160 897q-36 201 -46 385h-9q-5 -165 -43 -377l-162 -905h-220z" />
    <glyph glyph-name="X" unicode="X" horiz-adv-x="985" vert-adv-y="2457" 
d="M30 1462h199l190 -392q58 -119 80 -186q18 73 77 192l192 386h191l-366 -718l390 -744h-200l-239 474l-9 22q-39 86 -46 120q-13 -61 -57 -149l-238 -467h-192l391 744z" />
    <glyph glyph-name="Y" unicode="Y" horiz-adv-x="946" vert-adv-y="2457" 
d="M-5 1462h199l219 -539q41 -101 60 -187q12 45 53 156l10 28l225 542h189l-391 -888v-574h-178v574z" />
    <glyph glyph-name="Z" unicode="Z" vert-adv-y="2457" 
d="M79 1462h813v-164l-591 -1030q-3 -4 -10 -16q-32 -57 -64 -102q48 6 157 6h519v-156h-865v152l597 1041q32 61 73 116q-31 -3 -107 -3h-522v156z" />
    <glyph glyph-name="bracketleft" unicode="[" horiz-adv-x="530" vert-adv-y="2457" 
d="M140 1462h344v-129h-186v-1569h186v-130h-344v1828z" />
    <glyph glyph-name="backslash" unicode="\" horiz-adv-x="569" vert-adv-y="2457" 
d="M100 1462l636 -1828h-140l-636 1828h140z" />
    <glyph glyph-name="bracketright" unicode="]" horiz-adv-x="530" vert-adv-y="2457" 
d="M379 -366h-344v130h186v1569h-186v129h344v-1828z" />
    <glyph glyph-name="asciicircum" unicode="^" horiz-adv-x="1229" vert-adv-y="2457" 
d="M308 814h-177l376 653h215l377 -653h-179l-307 523z" />
    <glyph glyph-name="underscore" unicode="_" horiz-adv-x="1024" vert-adv-y="2457" 
d="M-36 -152h1097v-123h-1097v123z" />
    <glyph glyph-name="grave" unicode="`" horiz-adv-x="418" vert-adv-y="2457" 
d="M-38 1536h206l141 -293h-129z" />
    <glyph glyph-name="a" unicode="a" horiz-adv-x="909" vert-adv-y="2457" 
d="M92 767q-1 93 11.5 144.5t45.5 93.5q92 119 297 119q242 0 311 -148q27 -56 27 -212v-527q0 -72 13.5 -96.5t51.5 -24.5q16 0 34 8v-122q-42 -17 -92 -17q-155 0 -165 144q-95 -155 -282 -155q-137 0 -208 78q-75 82 -75 231q0 159 85 240q34 32 81.5 53t161.5 53
q114 33 152.5 49t55.5 37q21 28 21 98q0 72 -23 111q-40 69 -153 69q-110 0 -156 -67q-33 -48 -33 -159h-161zM622 601q-24 -26 -58.5 -41.5t-153.5 -52.5q-124 -39 -155 -106q-20 -43 -20 -109q0 -86 39 -131q41 -48 118 -48q52 0 101 25t81 67q26 34 35 72t9 113v85
q1 107 4 126z" />
    <glyph glyph-name="b" unicode="b" vert-adv-y="2457" 
d="M284 1462v-347q0 -103 -4 -148q85 158 258 158q194 0 277 -184q58 -127 58 -378q0 -306 -99 -452q-93 -136 -258 -136q-172 0 -246 162q3 -45 3 -78v-59h-159v1462h170zM491 984q-124 0 -179 -136q-35 -88 -35 -300q0 -221 42 -314q54 -118 167 -118q112 0 162 106.5
t50 341.5q0 210 -38 305q-47 115 -169 115z" />
    <glyph glyph-name="c" unicode="c" horiz-adv-x="872" vert-adv-y="2457" 
d="M645 383h166q-4 -200 -96.5 -304t-266.5 -104q-194 0 -285 138.5t-91 433.5q0 300 95 435q101 142 297 142q225 0 308 -184q37 -84 39 -183h-171q-7 87 -25 127q-46 99 -156 99q-112 0 -162 -101.5t-50 -330.5q0 -258 58 -351q52 -84 154 -84q111 0 158 113q26 63 28 154
z" />
    <glyph glyph-name="d" unicode="d" vert-adv-y="2457" 
d="M835 1462v-1462h-159v58q0 49 3 89q-28 -83 -96 -127.5t-164 -44.5q-181 0 -266 155q-77 140 -77 421q0 287 76 416q93 158 272 158q177 0 244 -145q-3 32 -3 93v389h170zM458 983q-126 0 -174 -133q-33 -94 -33 -297q0 -208 34 -308q43 -129 172 -129q114 0 165 103.5
t51 334.5q0 226 -40 314q-51 115 -175 115z" />
    <glyph glyph-name="e" unicode="e" horiz-adv-x="909" vert-adv-y="2457" 
d="M253 533q0 -175 26 -269q44 -158 184 -158q86 0 137.5 67t58.5 188h164q-1 -96 -46 -196q-86 -190 -322 -190q-222 0 -310 178q-69 140 -69 397q0 254 72 394q92 180 318 180q266 0 334 -252q33 -120 33 -339h-580zM256 667h400v9q-9 153 -33 210q-45 107 -158 107
q-124 0 -174 -117q-35 -80 -35 -194v-15z" />
    <glyph glyph-name="f" unicode="f" horiz-adv-x="530" vert-adv-y="2457" 
d="M2 1100h162q0 164 7 203q17 90 80.5 130t191.5 40q33 0 79 -2v-141h-14h-21q-112 0 -133 -31.5t-20 -198.5h188v-134h-188v-966h-170v966h-162v134z" />
    <glyph glyph-name="g" unicode="g" vert-adv-y="2457" 
d="M100 -105h164q19 -138 176 -138q126 0 181 79q15 23 26.5 73t11.5 96v82q0 42 7 74q-35 -57 -67 -86q-77 -71 -192 -71q-336 0 -336 547q0 301 89 437q90 137 263 137q172 0 247 -159q-4 44 -4 101v33h160v-943q-1 -156 -8 -218t-30 -118q-84 -195 -352 -195
q-313 0 -336 269zM453 984q-118 0 -166 -113q-41 -97 -41 -310q0 -229 48 -320q50 -96 152 -96q115 0 167 103t52 329q0 213 -50.5 310t-161.5 97z" />
    <glyph glyph-name="h" unicode="h" vert-adv-y="2457" 
d="M286 1462v-267v-30q-2 -160 -8 -199q94 158 281 158q188 0 250 -160q25 -66 25 -215v-749h-170v703q0 140 -15 183q-33 97 -148 97q-60 0 -113.5 -32.5t-80.5 -86.5q-21 -41 -21 -133v-731h-170v1462h170z" />
    <glyph glyph-name="i" unicode="i" horiz-adv-x="418" vert-adv-y="2457" 
d="M124 1100h170v-1100h-170v1100zM124 1462h170v-202h-170v202z" />
    <glyph glyph-name="j" unicode="j" horiz-adv-x="418" vert-adv-y="2457" 
d="M124 1100h170v-1022v-41q-1 -164 -7 -211t-31 -95q-57 -107 -245 -107q-26 0 -61 3v140q24 -1 45 -1q91 0 114 56q11 27 13 54t2 162v40v1022zM124 1462h170v-202h-170v202z" />
    <glyph glyph-name="k" unicode="k" horiz-adv-x="909" vert-adv-y="2457" 
d="M109 1462h170v-773v-17q-1 -61 -3 -87q7 10 31 45l23 32l12 16l325 422h200l-331 -414l389 -686h-201l-304 545l-141 -174v-371h-170v1462z" />
    <glyph glyph-name="l" unicode="l" horiz-adv-x="418" vert-adv-y="2457" 
d="M124 1462h170v-1462h-170v1462z" />
    <glyph glyph-name="m" unicode="m" horiz-adv-x="1479" vert-adv-y="2457" 
d="M133 1100h159v-31q0 -63 -3 -101q94 157 272 157q187 0 245 -172q102 172 277 172q177 0 239 -127q31 -63 31 -235v-763h-170v766q0 122 -22 158q-37 60 -123 60q-128 0 -189 -120q-15 -28 -18 -47.5t-3 -80.5v-736h-170v737l-1 31q-1 78 -4 100.5t-16 46.5
q-38 68 -127 68q-61 0 -112.5 -32.5t-77.5 -87.5q-17 -37 -17 -129v-734h-170v1100z" />
    <glyph glyph-name="n" unicode="n" vert-adv-y="2457" 
d="M277 1100v-37l1 -48q0 -6 -4 -52q45 76 121.5 119t168.5 43t158 -44t94 -125q21 -59 21 -230v-726h-170v692q0 152 -15 197q-31 94 -149 94q-112 0 -180 -95q-21 -31 -28 -59.5t-7 -87.5v-741h-170v1100h159z" />
    <glyph glyph-name="o" unicode="o" horiz-adv-x="909" vert-adv-y="2457" 
d="M469 1124q195 0 284.5 -137.5t89.5 -436.5q0 -284 -84 -419q-51 -83 -125 -119q-76 -37 -194 -37q-128 0 -206 54q-168 118 -168 522q0 296 96 431q101 142 307 142zM457 993q-120 0 -173 -120q-43 -97 -43 -329q0 -235 47 -331q52 -107 166 -107q113 0 163.5 106
t50.5 345q0 238 -48 337t-163 99z" />
    <glyph glyph-name="p" unicode="p" vert-adv-y="2457" 
d="M274 1100v-54q0 -61 -4 -91q29 81 97.5 125.5t162.5 44.5q186 0 270 -155q72 -133 72 -397q0 -298 -81 -435q-97 -163 -271 -163q-164 0 -239 146q4 -33 4 -137v-350h-170v1466h159zM491 984q-126 0 -181 -135q-34 -84 -34 -282q0 -240 42 -333q53 -118 168 -118
q111 0 161 107.5t50 343.5q0 195 -33 288q-46 129 -173 129z" />
    <glyph glyph-name="q" unicode="q" vert-adv-y="2457" 
d="M837 1100v-1466h-170v353q0 90 3 137q-79 -149 -255 -149q-127 0 -202 71q-141 133 -141 495q0 315 93 449t254 134q92 0 156.5 -43t93.5 -123q-6 45 -6 89v53h174zM454 984q-133 0 -177 -146q-30 -97 -30 -300q0 -209 40 -306q47 -115 165 -115q128 0 181 138
q36 93 36 311t-43 308q-52 110 -172 110z" />
    <glyph glyph-name="r" unicode="r" horiz-adv-x="606" vert-adv-y="2457" 
d="M114 1100h159v-43q0 -83 -4 -143q100 205 277 205q22 0 55 -3v-171q-31 5 -58 5q-134 0 -209 -92q-32 -39 -41 -69t-9 -94v-695h-170v1100z" />
    <glyph glyph-name="s" unicode="s" horiz-adv-x="834" vert-adv-y="2457" 
d="M56 360h160q0 -136 45.5 -195t151.5 -59q93 0 145.5 47t52.5 132q0 91 -62 139q-29 21 -56.5 33t-164.5 60q-139 48 -195 114q-62 71 -62 192q0 144 91 223q90 78 253 78q173 0 251.5 -82.5t77.5 -263.5h-163q1 86 -17 131q-33 84 -151 84q-83 0 -130 -41t-47 -114
q0 -69 38 -109t134 -72q122 -40 169.5 -60t86.5 -47q112 -76 112 -239q0 -158 -99 -249q-95 -87 -274 -87q-185 0 -266 90t-81 295z" />
    <glyph glyph-name="t" unicode="t" horiz-adv-x="530" vert-adv-y="2457" 
d="M-4 1100h163v307h170v-307h192v-134h-192v-695q0 -90 22.5 -117.5t96.5 -27.5q33 0 73 7v-138q-59 -10 -115 -10q-174 0 -219 84q-28 51 -28 184v713h-163v134z" />
    <glyph glyph-name="u" unicode="u" vert-adv-y="2457" 
d="M110 1100h170v-756q0 -99 21 -146q35 -82 141 -82q63 0 117.5 32.5t82.5 87.5q14 27 17 48.5t3 93.5v722h170v-1100h-159v39q0 32 4 93q-112 -157 -286 -157q-142 0 -211.5 85t-69.5 260v42v738z" />
    <glyph glyph-name="v" unicode="v" horiz-adv-x="831" vert-adv-y="2457" 
d="M23 1100h185l177 -722q31 -130 37 -213h9q7 93 46 267l151 668h181l-287 -1100h-198z" />
    <glyph glyph-name="w" unicode="w" horiz-adv-x="1327" vert-adv-y="2457" 
d="M25 1100h179l113 -566q39 -198 48 -253.5t14 -125.5h8q5 65 10.5 97t47.5 254l8 41l114 553h202l134 -640q39 -189 46 -305h8q8 87 44 289l6 36l118 620h178l-255 -1100h-188l-132 578q-49 214 -58 368h-9q-10 -129 -53 -332l-127 -614h-200z" />
    <glyph glyph-name="x" unicode="x" horiz-adv-x="831" vert-adv-y="2457" 
d="M24 1100h195l162 -326l39 -89q3 7 17 42l14 32l6 14l160 327h186l-285 -531l300 -569h-190l-164 328q-32 64 -53 118l-5 -12q-38 -88 -57 -127l-150 -307h-185l299 569z" />
    <glyph glyph-name="y" unicode="y" horiz-adv-x="831" vert-adv-y="2457" 
d="M22 1100h185l174 -680q31 -122 46 -254h9q11 134 39 258l153 676h182l-267 -1009q-48 -180 -87 -284q-34 -92 -99.5 -135t-170.5 -43q-38 0 -109 3v142q14 0 22 -1q49 -3 75 -3q52 0 84.5 25t55.5 83q25 65 28 102z" />
    <glyph glyph-name="z" unicode="z" horiz-adv-x="797" vert-adv-y="2457" 
d="M82 1100h667v-140l-393 -647q-51 -86 -112 -172q38 3 192 5h23h285v-146h-689v134l389 639q22 36 57 90q8 11 66 101q-44 -3 -133 -3l-158 -2h-194v141z" />
    <glyph glyph-name="braceleft" unicode="{" horiz-adv-x="530" vert-adv-y="2457" 
d="M177 523q67 -37 94 -93.5t27 -160.5v-312q0 -86 13.5 -130.5t46.5 -68.5q45 -32 149 -33v-137q-156 4 -207 16.5t-92 58.5q-68 74 -68 250v333q0 95 -28 141.5t-98 66.5v146q69 20 97.5 65.5t28.5 135.5v363q0 157 71 228q43 42 93.5 54t202.5 16v-137
q-122 -4 -165.5 -52.5t-43.5 -179.5v-320q0 -104 -26 -158t-95 -92z" />
    <glyph glyph-name="bar" unicode="|" horiz-adv-x="455" vert-adv-y="2457" 
d="M132 1462h191v-1828h-191v1828z" />
    <glyph glyph-name="braceright" unicode="}" horiz-adv-x="530" vert-adv-y="2457" 
d="M350 527q-67 37 -94 93.5t-27 160.5v312q0 86 -13.5 130.5t-47.5 68.5q-45 32 -148 33v137q156 -4 207 -16.5t92 -58.5q68 -74 68 -250v-333q0 -95 28 -141.5t98 -66.5v-147q-68 -19 -97 -64.5t-29 -135.5v-363q0 -158 -71 -228q-43 -42 -94.5 -54.5t-201.5 -15.5v137
q122 4 165.5 52.5t43.5 179.5v320q0 104 26.5 158.5t94.5 91.5z" />
    <glyph glyph-name="asciitilde" unicode="~" horiz-adv-x="1229" vert-adv-y="2457" 
d="M190 450l-100 80q113 252 300 252q82 0 254 -85q91 -45 128 -58t72 -13q108 0 198 161l100 -79q-112 -251 -319 -251q-43 0 -87.5 16.5t-174.5 80.5q-116 57 -183 57q-98 0 -188 -161z" />
    <glyph glyph-name="Adieresis" unicode="&#xc4;" horiz-adv-x="1024" vert-adv-y="2457" 
d="M402 1462h237l404 -1462h-191l-105 401h-470l-110 -401h-187zM519 1348q-13 -96 -75 -321l-130 -478h397l-121 473q-51 196 -71 326zM251 1843h174v-212h-174v212zM599 1843h174v-212h-174v212z" />
    <glyph glyph-name="Aring" unicode="&#xc5;" horiz-adv-x="1024" vert-adv-y="2457" 
d="M402 1462h237l404 -1462h-191l-105 401h-470l-110 -401h-187zM519 1348q-13 -96 -75 -321l-130 -478h397l-121 473q-51 196 -71 326zM515 1971q90 0 153 -70q54 -59 54 -140q0 -95 -70 -157q-60 -54 -140 -54q-94 0 -157 70q-54 60 -54 142q0 91 70 155q59 54 144 54z
M509 1880q-46 0 -79.5 -35.5t-33.5 -83.5q0 -50 33.5 -85t81.5 -35t82 35t34 86q0 49 -34.5 83.5t-83.5 34.5z" />
    <glyph glyph-name="Ccedilla" unicode="&#xc7;" horiz-adv-x="1063" vert-adv-y="2457" 
d="M833 502h181q-4 -171 -59 -292q-88 -193 -271 -227q-36 -7 -83 -10l-68 -96q32 8 65 8q76 0 124 -41.5t48 -107.5q0 -77 -67 -125.5t-174 -48.5q-81 0 -184 36l29 73q67 -26 129 -26q115 0 115 84q0 33 -28 54.5t-72 21.5q-34 0 -74 -14l-33 35l101 147q-112 9 -184 54
q-113 70 -167.5 236t-54.5 443q0 392 95 574q53 103 150.5 157t227.5 54q265 0 368 -200q53 -103 55 -259h-180q-1 108 -39 189q-59 125 -210 125q-178 0 -236 -186q-49 -154 -49 -439q0 -252 39 -397q56 -208 244 -208q249 0 262 386z" />
    <glyph glyph-name="Eacute" unicode="&#xc9;" vert-adv-y="2457" 
d="M119 1462h755v-156h-577v-464h544v-156h-544v-530h599v-156h-777v1462zM552 1853h219l-238 -259h-134z" />
    <glyph glyph-name="Ntilde" unicode="&#xd1;" horiz-adv-x="1139" vert-adv-y="2457" 
d="M122 1462h231l325 -792q118 -286 177 -535h9q-19 152 -19 393v934h171v-1462h-237l-311 769q-154 369 -187 559h-9q21 -175 21 -409v-919h-171v1462zM252 1616q14 110 67 169.5t137 59.5q38 0 64 -7.5t107 -40.5q44 -18 72 -18q30 0 46 19t27 66h115q-5 -99 -59 -164
t-131 -65q-32 0 -55 6.5t-112 40.5q-53 21 -78 21q-31 0 -55.5 -24.5t-31.5 -62.5h-113z" />
    <glyph glyph-name="Odieresis" unicode="&#xd6;" horiz-adv-x="1139" vert-adv-y="2457" 
d="M583 1491q236 0 346 -175.5t110 -552.5q0 -325 -66 -514q-45 -129 -148 -204q-100 -74 -263 -74q-300 0 -398 280q-64 186 -64 490q0 390 116 570t367 180zM569 1346q-153 0 -218 -135q-69 -145 -69 -474q0 -292 52 -442q61 -179 231 -179q183 0 244 193q48 151 48 416
q0 342 -65 481.5t-223 139.5zM308 1843h174v-212h-174v212zM656 1843h174v-212h-174v212z" />
    <glyph glyph-name="Udieresis" unicode="&#xdc;" horiz-adv-x="1063" vert-adv-y="2457" 
d="M104 1462h178v-984q0 -160 25 -224q55 -138 220 -138q184 0 235 162q20 63 20 195v989h178v-986q0 -190 -46 -288q-104 -217 -396 -217q-217 0 -324 135q-90 113 -90 318v62v976zM271 1843h174v-212h-174v212zM619 1843h174v-212h-174v212z" />
    <glyph glyph-name="aacute" unicode="&#xe1;" horiz-adv-x="909" vert-adv-y="2457" 
d="M92 767q-1 93 11.5 144.5t45.5 93.5q92 119 297 119q242 0 311 -148q27 -56 27 -212v-527q0 -72 13.5 -96.5t51.5 -24.5q16 0 34 8v-122q-42 -17 -92 -17q-155 0 -165 144q-95 -155 -282 -155q-137 0 -208 78q-75 82 -75 231q0 159 85 240q34 32 81.5 53t161.5 53
q114 33 152.5 49t55.5 37q21 28 21 98q0 72 -23 111q-40 69 -153 69q-110 0 -156 -67q-33 -48 -33 -159h-161zM622 601q-24 -26 -58.5 -41.5t-153.5 -52.5q-124 -39 -155 -106q-20 -43 -20 -109q0 -86 39 -131q41 -48 118 -48q52 0 101 25t81 67q26 34 35 72t9 113v85
q1 107 4 126zM496 1537h205l-221 -294h-126z" />
    <glyph glyph-name="agrave" unicode="&#xe0;" horiz-adv-x="909" vert-adv-y="2457" 
d="M92 767q-1 93 11.5 144.5t45.5 93.5q92 119 297 119q242 0 311 -148q27 -56 27 -212v-527q0 -72 13.5 -96.5t51.5 -24.5q16 0 34 8v-122q-42 -17 -92 -17q-155 0 -165 144q-95 -155 -282 -155q-137 0 -208 78q-75 82 -75 231q0 159 85 240q34 32 81.5 53t161.5 53
q114 33 152.5 49t55.5 37q21 28 21 98q0 72 -23 111q-40 69 -153 69q-110 0 -156 -67q-33 -48 -33 -159h-161zM622 601q-24 -26 -58.5 -41.5t-153.5 -52.5q-124 -39 -155 -106q-20 -43 -20 -109q0 -86 39 -131q41 -48 118 -48q52 0 101 25t81 67q26 34 35 72t9 113v85
q1 107 4 126zM208 1536h206l141 -293h-129z" />
    <glyph glyph-name="acircumflex" unicode="&#xe2;" horiz-adv-x="909" vert-adv-y="2457" 
d="M92 767q-1 93 11.5 144.5t45.5 93.5q92 119 297 119q242 0 311 -148q27 -56 27 -212v-527q0 -72 13.5 -96.5t51.5 -24.5q16 0 34 8v-122q-42 -17 -92 -17q-155 0 -165 144q-95 -155 -282 -155q-137 0 -208 78q-75 82 -75 231q0 159 85 240q34 32 81.5 53t161.5 53
q114 33 152.5 49t55.5 37q21 28 21 98q0 72 -23 111q-40 69 -153 69q-110 0 -156 -67q-33 -48 -33 -159h-161zM622 601q-24 -26 -58.5 -41.5t-153.5 -52.5q-124 -39 -155 -106q-20 -43 -20 -109q0 -86 39 -131q41 -48 118 -48q52 0 101 25t81 67q26 34 35 72t9 113v85
q1 107 4 126zM378 1551h159l203 -293h-163l-125 181l-128 -181h-154z" />
    <glyph glyph-name="adieresis" unicode="&#xe4;" horiz-adv-x="909" vert-adv-y="2457" 
d="M92 767q-1 93 11.5 144.5t45.5 93.5q92 119 297 119q242 0 311 -148q27 -56 27 -212v-527q0 -72 13.5 -96.5t51.5 -24.5q16 0 34 8v-122q-42 -17 -92 -17q-155 0 -165 144q-95 -155 -282 -155q-137 0 -208 78q-75 82 -75 231q0 159 85 240q34 32 81.5 53t161.5 53
q114 33 152.5 49t55.5 37q21 28 21 98q0 72 -23 111q-40 69 -153 69q-110 0 -156 -67q-33 -48 -33 -159h-161zM622 601q-24 -26 -58.5 -41.5t-153.5 -52.5q-124 -39 -155 -106q-20 -43 -20 -109q0 -86 39 -131q41 -48 118 -48q52 0 101 25t81 67q26 34 35 72t9 113v85
q1 107 4 126zM195 1511h165v-203h-165v203zM526 1511h165v-203h-165v203z" />
    <glyph glyph-name="atilde" unicode="&#xe3;" horiz-adv-x="909" vert-adv-y="2457" 
d="M92 767q-1 93 11.5 144.5t45.5 93.5q92 119 297 119q242 0 311 -148q27 -56 27 -212v-527q0 -72 13.5 -96.5t51.5 -24.5q16 0 34 8v-122q-42 -17 -92 -17q-155 0 -165 144q-95 -155 -282 -155q-137 0 -208 78q-75 82 -75 231q0 159 85 240q34 32 81.5 53t161.5 53
q114 33 152.5 49t55.5 37q21 28 21 98q0 72 -23 111q-40 69 -153 69q-110 0 -156 -67q-33 -48 -33 -159h-161zM622 601q-24 -26 -58.5 -41.5t-153.5 -52.5q-124 -39 -155 -106q-20 -43 -20 -109q0 -86 39 -131q41 -48 118 -48q52 0 101 25t81 67q26 34 35 72t9 113v85
q1 107 4 126zM162 1284q14 107 62 166t123 59q36 0 60 -8t100 -44q42 -20 68 -20q53 0 68 86h104q-5 -96 -54 -160t-119 -64q-31 0 -52.5 7t-102.5 43q-50 23 -75 23q-28 0 -51 -25t-29 -63h-102z" />
    <glyph glyph-name="aring" unicode="&#xe5;" horiz-adv-x="909" vert-adv-y="2457" 
d="M92 767q-1 93 11.5 144.5t45.5 93.5q92 119 297 119q242 0 311 -148q27 -56 27 -212v-527q0 -72 13.5 -96.5t51.5 -24.5q16 0 34 8v-122q-42 -17 -92 -17q-155 0 -165 144q-95 -155 -282 -155q-137 0 -208 78q-75 82 -75 231q0 159 85 240q34 32 81.5 53t161.5 53
q114 33 152.5 49t55.5 37q21 28 21 98q0 72 -23 111q-40 69 -153 69q-110 0 -156 -67q-33 -48 -33 -159h-161zM622 601q-24 -26 -58.5 -41.5t-153.5 -52.5q-124 -39 -155 -106q-20 -43 -20 -109q0 -86 39 -131q41 -48 118 -48q52 0 101 25t81 67q26 34 35 72t9 113v85
q1 107 4 126zM453 1638q85 0 145 -66q51 -56 51 -133q0 -89 -66 -148q-56 -51 -133 -51q-89 0 -148 66q-51 56 -51 135q0 86 66 146q56 51 136 51zM447 1553q-44 0 -75.5 -33.5t-31.5 -80.5t32 -80.5t77 -33.5q46 0 78.5 33.5t32.5 81.5q0 47 -33 80t-80 33z" />
    <glyph glyph-name="ccedilla" unicode="&#xe7;" horiz-adv-x="872" vert-adv-y="2457" 
d="M479 -24l-66 -93q38 7 62 7q70 0 116 -39.5t46 -98.5q0 -75 -63 -121.5t-164 -46.5q-79 0 -176 35l27 68q67 -25 126 -25q50 0 78.5 21.5t28.5 58.5q0 32 -27.5 52.5t-69.5 20.5q-35 0 -69 -14l-31 33l97 144q-165 13 -245 153t-80 416q0 300 95 435q101 142 297 142
q225 0 308 -184q37 -84 39 -183h-171q-7 87 -25 127q-46 99 -156 99q-112 0 -162 -101.5t-50 -330.5q0 -258 58 -350q53 -85 154 -85q111 0 158 113q26 63 28 154h166q-4 -189 -88.5 -293t-240.5 -114z" />
    <glyph glyph-name="eacute" unicode="&#xe9;" horiz-adv-x="909" vert-adv-y="2457" 
d="M253 533q0 -175 26 -269q44 -158 184 -158q86 0 137.5 67t58.5 188h164q-1 -96 -46 -196q-86 -190 -322 -190q-222 0 -310 178q-69 140 -69 397q0 254 72 394q92 180 318 180q266 0 334 -252q33 -120 33 -339h-580zM256 667h400v9q-9 153 -33 210q-45 107 -158 107
q-124 0 -174 -117q-35 -80 -35 -194v-15zM496 1537h205l-221 -294h-126z" />
    <glyph glyph-name="egrave" unicode="&#xe8;" horiz-adv-x="909" vert-adv-y="2457" 
d="M253 533q0 -175 26 -269q44 -158 184 -158q86 0 137.5 67t58.5 188h164q-1 -96 -46 -196q-86 -190 -322 -190q-222 0 -310 178q-69 140 -69 397q0 254 72 394q92 180 318 180q266 0 334 -252q33 -120 33 -339h-580zM256 667h400v9q-9 153 -33 210q-45 107 -158 107
q-124 0 -174 -117q-35 -80 -35 -194v-15zM208 1536h206l141 -293h-129z" />
    <glyph glyph-name="ecircumflex" unicode="&#xea;" horiz-adv-x="909" vert-adv-y="2457" 
d="M253 533q0 -175 26 -269q44 -158 184 -158q86 0 137.5 67t58.5 188h164q-1 -96 -46 -196q-86 -190 -322 -190q-222 0 -310 178q-69 140 -69 397q0 254 72 394q92 180 318 180q266 0 334 -252q33 -120 33 -339h-580zM256 667h400v9q-9 153 -33 210q-45 107 -158 107
q-124 0 -174 -117q-35 -80 -35 -194v-15zM378 1551h159l203 -293h-163l-125 181l-128 -181h-154z" />
    <glyph glyph-name="edieresis" unicode="&#xeb;" horiz-adv-x="909" vert-adv-y="2457" 
d="M253 533q0 -175 26 -269q44 -158 184 -158q86 0 137.5 67t58.5 188h164q-1 -96 -46 -196q-86 -190 -322 -190q-222 0 -310 178q-69 140 -69 397q0 254 72 394q92 180 318 180q266 0 334 -252q33 -120 33 -339h-580zM256 667h400v9q-9 153 -33 210q-45 107 -158 107
q-124 0 -174 -117q-35 -80 -35 -194v-15zM207 1511h165v-203h-165v203zM538 1511h165v-203h-165v203z" />
    <glyph glyph-name="iacute" unicode="&#xed;" horiz-adv-x="418" vert-adv-y="2457" 
d="M123 1100h170v-1100h-170v1100zM250 1537h205l-221 -294h-126z" />
    <glyph glyph-name="igrave" unicode="&#xec;" horiz-adv-x="418" vert-adv-y="2457" 
d="M123 1100h170v-1100h-170v1100zM-38 1536h206l141 -293h-129z" />
    <glyph glyph-name="icircumflex" unicode="&#xee;" horiz-adv-x="418" vert-adv-y="2457" 
d="M124 1100h170v-1100h-170v1100zM132 1551h159l203 -293h-163l-125 181l-128 -181h-154z" />
    <glyph glyph-name="idieresis" unicode="&#xef;" horiz-adv-x="418" vert-adv-y="2457" 
d="M123 1100h170v-1100h-170v1100zM-8 1511h165v-203h-165v203zM260 1511h165v-203h-165v203z" />
    <glyph glyph-name="ntilde" unicode="&#xf1;" vert-adv-y="2457" 
d="M277 1100v-37l1 -48q0 -6 -4 -52q45 76 121.5 119t168.5 43t158 -44t94 -125q21 -59 21 -230v-726h-170v692q0 152 -15 197q-31 94 -149 94q-112 0 -180 -95q-21 -31 -28 -59.5t-7 -87.5v-741h-170v1100h159zM185 1284q14 107 62 166t123 59q36 0 60 -8t100 -44
q42 -20 68 -20q53 0 68 86h104q-5 -96 -54 -160t-119 -64q-31 0 -52.5 7t-102.5 43q-50 23 -75 23q-28 0 -51 -25t-29 -63h-102z" />
    <glyph glyph-name="oacute" unicode="&#xf3;" horiz-adv-x="909" vert-adv-y="2457" 
d="M469 1124q195 0 284.5 -137.5t89.5 -436.5q0 -284 -84 -419q-51 -83 -125 -119q-76 -37 -194 -37q-128 0 -206 54q-168 118 -168 522q0 296 96 431q101 142 307 142zM457 993q-120 0 -173 -120q-43 -97 -43 -329q0 -235 47 -331q52 -107 166 -107q113 0 163.5 106
t50.5 345q0 238 -48 337t-163 99zM496 1537h205l-221 -294h-126z" />
    <glyph glyph-name="ograve" unicode="&#xf2;" horiz-adv-x="909" vert-adv-y="2457" 
d="M469 1124q195 0 284.5 -137.5t89.5 -436.5q0 -284 -84 -419q-51 -83 -125 -119q-76 -37 -194 -37q-128 0 -206 54q-168 118 -168 522q0 296 96 431q101 142 307 142zM457 993q-120 0 -173 -120q-43 -97 -43 -329q0 -235 47 -331q52 -107 166 -107q113 0 163.5 106
t50.5 345q0 238 -48 337t-163 99zM208 1536h206l141 -293h-129z" />
    <glyph glyph-name="ocircumflex" unicode="&#xf4;" horiz-adv-x="909" vert-adv-y="2457" 
d="M469 1124q195 0 284.5 -137.5t89.5 -436.5q0 -284 -84 -419q-51 -83 -125 -119q-76 -37 -194 -37q-128 0 -206 54q-168 118 -168 522q0 296 96 431q101 142 307 142zM457 993q-120 0 -173 -120q-43 -97 -43 -329q0 -235 47 -331q52 -107 166 -107q113 0 163.5 106
t50.5 345q0 238 -48 337t-163 99zM377 1551h159l203 -293h-163l-125 181l-128 -181h-154z" />
    <glyph glyph-name="odieresis" unicode="&#xf6;" horiz-adv-x="909" vert-adv-y="2457" 
d="M469 1124q195 0 284.5 -137.5t89.5 -436.5q0 -284 -84 -419q-51 -83 -125 -119q-76 -37 -194 -37q-128 0 -206 54q-168 118 -168 522q0 296 96 431q101 142 307 142zM457 993q-120 0 -173 -120q-43 -97 -43 -329q0 -235 47 -331q52 -107 166 -107q113 0 163.5 106
t50.5 345q0 238 -48 337t-163 99zM206 1511h165v-203h-165v203zM537 1511h165v-203h-165v203z" />
    <glyph glyph-name="otilde" unicode="&#xf5;" horiz-adv-x="909" vert-adv-y="2457" 
d="M469 1124q195 0 284.5 -137.5t89.5 -436.5q0 -284 -84 -419q-51 -83 -125 -119q-76 -37 -194 -37q-128 0 -206 54q-168 118 -168 522q0 296 96 431q101 142 307 142zM457 993q-120 0 -173 -120q-43 -97 -43 -329q0 -235 47 -331q52 -107 166 -107q113 0 163.5 106
t50.5 345q0 238 -48 337t-163 99zM162 1284q14 107 62 166t123 59q36 0 60 -8t100 -44q42 -20 68 -20q53 0 68 86h104q-5 -96 -54 -160t-119 -64q-31 0 -52.5 7t-102.5 43q-50 23 -75 23q-28 0 -51 -25t-29 -63h-102z" />
    <glyph glyph-name="uacute" unicode="&#xfa;" vert-adv-y="2457" 
d="M110 1100h170v-756q0 -99 21 -146q35 -82 141 -82q63 0 117.5 32.5t82.5 87.5q14 27 17 48.5t3 93.5v722h170v-1100h-159v39q0 32 4 93q-112 -157 -286 -157q-142 0 -211.5 85t-69.5 260v42v738zM512 1537h205l-221 -294h-126z" />
    <glyph glyph-name="ugrave" unicode="&#xf9;" vert-adv-y="2457" 
d="M110 1100h170v-756q0 -99 21 -146q35 -82 141 -82q63 0 117.5 32.5t82.5 87.5q14 27 17 48.5t3 93.5v722h170v-1100h-159v39q0 32 4 93q-112 -157 -286 -157q-142 0 -211.5 85t-69.5 260v42v738zM225 1536h206l141 -293h-129z" />
    <glyph glyph-name="ucircumflex" unicode="&#xfb;" vert-adv-y="2457" 
d="M110 1100h170v-756q0 -99 21 -146q35 -82 141 -82q63 0 117.5 32.5t82.5 87.5q14 27 17 48.5t3 93.5v722h170v-1100h-159v39q0 32 4 93q-112 -157 -286 -157q-142 0 -211.5 85t-69.5 260v42v738zM394 1551h159l203 -293h-163l-125 181l-128 -181h-154z" />
    <glyph glyph-name="udieresis" unicode="&#xfc;" vert-adv-y="2457" 
d="M110 1100h170v-756q0 -99 21 -146q35 -82 141 -82q63 0 117.5 32.5t82.5 87.5q14 27 17 48.5t3 93.5v722h170v-1100h-159v39q0 32 4 93q-112 -157 -286 -157q-142 0 -211.5 85t-69.5 260v42v738zM223 1511h165v-203h-165v203zM554 1511h165v-203h-165v203z" />
    <glyph glyph-name="dagger" unicode="&#x2020;" horiz-adv-x="987" vert-adv-y="2457" 
d="M70 996h340v466h168v-466h340v-149h-340v-1213h-168v1213h-340v149z" />
    <glyph glyph-name="degree" unicode="&#xb0;" horiz-adv-x="819" vert-adv-y="2457" 
d="M415 1462q119 0 207 -91q81 -84 81 -201q0 -125 -87 -212q-85 -84 -205 -84q-131 0 -219 96q-76 83 -76 197q0 138 100 222q86 73 199 73zM406 1364q-72 0 -126 -51q-64 -61 -64 -145q0 -73 47 -129q57 -67 146 -67q79 0 136.5 57.5t57.5 135.5q0 84 -57.5 141.5
t-139.5 57.5z" />
    <glyph glyph-name="cent" unicode="&#xa2;" horiz-adv-x="983" vert-adv-y="2457" 
d="M703 563h164q1 -182 -81 -289.5t-229 -118.5v-179h-113v178q-155 8 -234 124q-97 144 -97 453q0 169 25 277t81 181q87 115 225 121v147h113v-147q141 -8 216 -94q91 -103 94 -274h-171q-1 102 -37.5 162t-101.5 68v-882q138 16 146 273zM444 291v882q-33 -4 -65 -31.5
t-49 -66.5q-46 -103 -46 -355q0 -209 38.5 -312.5t121.5 -116.5z" />
    <glyph glyph-name="sterling" unicode="&#xa3;" horiz-adv-x="983" vert-adv-y="2457" 
d="M61 779h142q-6 12 -34 66q-66 129 -66 246q0 175 126 279q111 92 284 92q263 0 361 -199q49 -99 49 -224h-172q-1 93 -31 159q-57 124 -205 124q-112 0 -173 -62q-59 -60 -59 -152q0 -103 70 -239q38 -74 45 -90h339v-113h-292q30 -80 30 -142q0 -102 -59 -191.5
t-201 -200.5q112 57 182 57q48 0 135 -30q87 -31 131 -31q83 0 215 86l76 -140q-88 -56 -154 -79.5t-138 -23.5q-63 0 -179 45q-104 40 -169 40q-44 0 -81.5 -14t-107.5 -56l-79 140q119 74 186.5 174t67.5 201q0 90 -44 165h-195v113z" />
    <glyph glyph-name="section" unicode="&#xa7;" horiz-adv-x="987" vert-adv-y="2457" 
d="M134 23h175q0 -92 30 -137q54 -79 161 -79q76 0 126 41q58 49 58 129q0 79 -60 134q-34 32 -77 60.5t-267 166.5q-112 70 -162 140t-50 158q0 92 46.5 160t151.5 129q-134 93 -134 239q0 133 97 216q95 82 264 82q215 0 303 -144q45 -74 44 -158h-175q-2 79 -51 123.5
t-134 44.5q-76 0 -122.5 -41t-46.5 -108q0 -77 67 -129q40 -31 301 -188q143 -86 190 -160q51 -79 51 -171t-42 -161.5t-134 -131.5q64 -60 91.5 -117.5t27.5 -133.5q0 -142 -99 -233q-96 -88 -259 -88q-180 0 -275.5 92t-95.5 265zM636 311q122 76 122 191q0 84 -72 147
q-47 41 -207 139q-57 34 -106 65q-141 -88 -141 -187q0 -75 68 -129q30 -24 211 -140q83 -53 125 -86z" />
    <glyph glyph-name="bullet" unicode="&#x2022;" horiz-adv-x="1024" vert-adv-y="2457" 
d="M519 1047q121 0 211 -88q89 -89 89 -216q0 -126 -89 -215t-215 -89q-124 0 -213 88q-91 90 -91 215q0 130 90 217q91 88 218 88z" />
    <glyph glyph-name="paragraph" unicode="&#xb6;" horiz-adv-x="1139" vert-adv-y="2457" 
d="M472 -249v941q-20 -1 -31 -1q-104 0 -185 57q-68 48 -106 133q-38 86 -38 190q0 109 40.5 196.5t113.5 136.5q89 58 254 58h475v-117h-95v-1594h-142v1594h-144v-1594h-142z" />
    <glyph glyph-name="germandbls" unicode="&#xdf;" vert-adv-y="2457" 
d="M103 0v1061q0 212 70 303q94 123 291 123q166 0 258 -88q88 -83 88 -248q0 -253 -210 -314q283 -44 283 -386q0 -141 -54 -257q-69 -151 -199 -189q-68 -20 -146 -20q-38 0 -79 7v143q38 -9 70 -9q117 0 177 96q56 91 56 233q0 149 -64 228t-185 79q-20 0 -48 -3v138
q20 -1 36 -1q87 0 138 64.5t51 174.5q0 107 -46 164t-132 57q-129 0 -169 -111q-16 -47 -16 -157v-1088h-170z" />
    <glyph glyph-name="registered" unicode="&#xae;" horiz-adv-x="1638" vert-adv-y="2457" 
d="M567 1148h250q113 0 166 -31q98 -58 98 -190q0 -73 -27 -120t-86 -78q67 -24 85 -70t26 -207q3 -66 14 -91.5t45 -46.5h-156q-16 22 -21.5 54t-10.5 142q-3 70 -11 99t-30 46q-19 15 -43.5 20t-81.5 5h-96v-366h-121v834zM688 1050v-275h107q79 0 112 25q50 39 50 117
q0 69 -38.5 101t-122.5 32h-108zM833 1492q194 0 367 -102q177 -104 278 -278q102 -176 102 -380t-102 -381q-102 -176 -278 -278q-177 -102 -380 -102q-204 0 -381 102t-278 278q-102 178 -102 387q0 328 252 558q215 196 522 196zM808 1388q-167 0 -317 -88
q-153 -91 -240 -241q-88 -151 -88 -327q0 -177 88 -329t240 -240q153 -88 328 -88q176 0 329 88t240 240q88 154 88 334q0 283 -218 482q-185 169 -450 169z" />
    <glyph glyph-name="copyright" unicode="&#xa9;" horiz-adv-x="1638" vert-adv-y="2457" 
d="M972 611h124q1 -114 -48 -198q-35 -61 -87.5 -88.5t-134.5 -27.5q-150 0 -216.5 99.5t-66.5 324.5q0 219 57 319q70 122 228 122q164 0 228 -115q33 -59 33 -157h-123v10q0 77 -36 120t-101 43q-87 0 -123 -78.5t-36 -266.5q0 -132 22 -213q30 -109 135 -109
q140 0 145 215zM833 1492q194 0 367 -102q177 -104 278 -278q102 -176 102 -380t-102 -381q-102 -176 -278 -278q-177 -102 -380 -102q-204 0 -381 102t-278 278q-102 178 -102 387q0 328 252 558q215 196 522 196zM808 1388q-167 0 -317 -88q-153 -91 -240 -241
q-88 -151 -88 -327q0 -177 88 -329t240 -240q153 -88 328 -88q176 0 329 88t240 240q88 154 88 334q0 283 -218 482q-185 169 -450 169z" />
    <glyph glyph-name="trademark" unicode="&#x2122;" horiz-adv-x="2028" vert-adv-y="2457" 
d="M191 1462h700v-102h-288v-731h-122v731h-290v102zM1073 1462h187l91 -324q56 -197 86 -348q9 84 57 255l112 417h187v-833h-117v581l7 139q-5 -30 -57 -222l-13 -45l-124 -453h-111l-129 461l-7 27q-40 150 -57 232q5 -108 5 -186v-534h-117v833z" />
    <glyph glyph-name="acute" unicode="&#xb4;" horiz-adv-x="418" vert-adv-y="2457" 
d="M250 1537h205l-221 -294h-126z" />
    <glyph glyph-name="dieresis" unicode="&#xa8;" horiz-adv-x="418" vert-adv-y="2457" 
d="M-39 1511h165v-203h-165v203zM292 1511h165v-203h-165v203z" />
    <glyph glyph-name="notequal" unicode="&#x2260;" horiz-adv-x="1214" vert-adv-y="2457" 
d="M480 623l110 190h-395v126h467l118 204l109 -63l-82 -141h213v-126h-285l-110 -190h395v-125h-467l-118 -204l-109 63l82 141h-213v125h285z" />
    <glyph glyph-name="AE" unicode="&#xc6;" horiz-adv-x="1479" vert-adv-y="2457" 
d="M536 1462h860v-156h-548v-460h518v-156h-518v-534h566v-156h-744v403h-359l-149 -403h-188zM645 1318l-284 -767h309v767h-25z" />
    <glyph glyph-name="Oslash" unicode="&#xd8;" horiz-adv-x="1139" vert-adv-y="2457" 
d="M284 -93l-103 45l40 100q13 31 29 60q-66 53 -108 228t-42 399q0 333 88 521q53 113 149.5 172.5t227.5 59.5q145 0 234 -64q5 22 18 54l33 80l105 -44l-46 -115q-11 -26 -24 -45q154 -122 154 -601q0 -328 -65 -507q-47 -128 -147 -203q-101 -76 -250 -76q-74 0 -142 19
t-100 48q-7 -26 -15 -46zM339 302q11 42 33 93l340 836q3 6 7 16q12 24 17 38q-59 62 -168 62q-152 0 -217 -134q-69 -144 -69 -463q0 -268 57 -448zM395 184q75 -68 175 -68q152 0 219.5 144t67.5 471q0 129 -15.5 250t-39.5 188q-10 -29 -26 -70l-349 -851
q-14 -33 -32 -64z" />
    <glyph glyph-name="infinity" unicode="&#x221e;" horiz-adv-x="1554" vert-adv-y="2457" 
d="M780 656q-165 -242 -367 -242q-166 0 -258 119q-68 89 -68 216q0 183 139 273q86 56 189 56q198 0 360 -242q162 242 368 242q168 0 259 -123q65 -87 65 -210q0 -159 -103 -250q-91 -81 -220 -81q-205 0 -364 242zM844 746q73 -114 139 -163.5t146 -49.5q94 0 152 68
q50 58 50 145q0 111 -78 170q-56 43 -126 43q-79 0 -142 -47t-141 -166zM710 745q-74 115 -140 164.5t-145 49.5q-94 0 -152 -68q-50 -58 -50 -145q0 -112 78 -171q56 -43 126 -43q79 0 141.5 47t141.5 166z" />
    <glyph glyph-name="plusminus" unicode="&#xb1;" horiz-adv-x="1229" vert-adv-y="2457" 
d="M202 781h350v350h126v-350h349v-126h-349v-349h-126v349h-350v126zM202 213h825v-126h-825v126z" />
    <glyph glyph-name="lessequal" unicode="&#x2264;" horiz-adv-x="1214" vert-adv-y="2457" 
d="M1083 1316v-179l-743 -286l743 -285v-179l-951 383v163zM1083 324v-167h-951v167h951z" />
    <glyph glyph-name="greaterequal" unicode="&#x2265;" horiz-adv-x="1214" vert-adv-y="2457" 
d="M132 387v179l743 285l-743 286v179l951 -383v-163zM132 157v167h951v-167h-951z" />
    <glyph glyph-name="yen" unicode="&#xa5;" horiz-adv-x="983" vert-adv-y="2457" 
d="M696 830h209v-113h-259l-67 -155v-76h282v-113h-282v-373h-172v373h-278v113h278v76l-68 155h-253v113h203l-261 603h194l214 -528q42 -102 60 -183q11 41 51 153l10 27l221 531h184z" />
    <glyph glyph-name="mu" unicode="&#xb5;" vert-adv-y="2457" 
d="M284 1100v-704q0 -103 3 -134.5t17 -63.5q36 -82 142 -82q63 0 117 32.5t82 87.5q14 27 17 48.5t3 93.5v722h170v-1100h-159v39q0 35 4 93q-110 -158 -278 -158q-61 0 -118 33v-373h-170v1466h170z" />
    <glyph glyph-name="partialdiff" unicode="&#x2202;" horiz-adv-x="1047" vert-adv-y="2457" 
d="M157 1324l22 145q186 -25 308 -77q273 -116 410 -389q107 -212 107 -477q0 -205 -87 -337q-71 -108 -184 -165q-97 -48 -208 -48q-163 0 -293 101q-72 56 -119 134q-69 117 -69 258q0 151 81 279q67 107 178 161q92 45 192 45q62 0 125.5 -18t102.5 -47q28 -20 94 -95
q-15 29 -73 164q-15 36 -62.5 96t-84.5 91q-87 72 -195.5 116t-244.5 63zM532 817q-48 0 -104.5 -20t-95.5 -51q-57 -44 -91.5 -121t-34.5 -158q0 -152 104 -255q93 -91 214 -91q109 0 197 74q118 99 118 280q0 174 -106 266q-87 76 -201 76z" />
    <glyph glyph-name="summation" unicode="&#x2211;" horiz-adv-x="1260" vert-adv-y="2457" 
d="M1214 1645v-508h-165l-17 340h-857l545 -887l-544 -972h876l10 343h172v-509h-1260v193l533 945l-533 865v190h1240z" />
    <glyph glyph-name="product" unicode="&#x220f;" horiz-adv-x="1473" vert-adv-y="2457" 
d="M63 1645h1347v-148h-161v-1898h161v-147h-489v147h164v1898h-696v-1898h161v-147h-487v147h163v1898h-163v148z" />
    <glyph glyph-name="pi" unicode="&#x3c0;" horiz-adv-x="1167" vert-adv-y="2457" 
d="M170 0v962h-159v138h1146v-138h-157v-962h-170v962h-490v-962h-170z" />
    <glyph glyph-name="integral" unicode="&#x222b;" horiz-adv-x="1135" vert-adv-y="2457" 
d="M222 -525l37 170q47 -23 87 -23q90 0 115 75q9 28 10 201v1269q1 180 3.5 217t15.5 81q24 83 99 131.5t179 48.5q62 0 144 -23l-37 -170q-46 22 -86 22q-90 0 -115 -75q-11 -32 -11 -148v-1317q0 -193 -8.5 -254t-42.5 -110q-81 -114 -287 -114q-55 0 -103 19z" />
    <glyph glyph-name="ordfeminine" unicode="&#xaa;" horiz-adv-x="592" vert-adv-y="2457" 
d="M64 1269q0 106 38 153q60 73 193 73q156 0 202 -91q18 -35 18 -130v-310q0 -39 6.5 -51.5t27.5 -12.5q11 0 28 8v-88q-30 -12 -67 -12q-46 0 -70 16.5t-36 55.5q-64 -78 -174 -78q-88 0 -136 48q-49 50 -49 141q0 113 76 162q23 15 48.5 23.5t155.5 45.5q45 12 58 27.5
t13 56.5q0 97 -104 97q-62 0 -86.5 -29.5t-24.5 -104.5h-117zM397 1161q-32 -18 -123 -45q-61 -18 -83 -43t-22 -77q0 -97 92 -97q66 0 109 51q26 31 26 104v50q0 18 1 57zM574 651h-519v73h519v-73z" />
    <glyph glyph-name="ordmasculine" unicode="&#xba;" horiz-adv-x="592" vert-adv-y="2457" 
d="M305 1495q126 0 184.5 -83.5t58.5 -262.5q0 -182 -62 -264.5t-199 -82.5q-127 0 -185 83t-58 265q0 176 62 259q66 86 199 86zM297 1403q-68 0 -98 -60t-30 -197q0 -136 29.5 -194t96.5 -58q74 0 102 70q26 63 26 189q0 137 -28.5 193.5t-97.5 56.5zM528 651h-459v73h459
v-73z" />
    <glyph glyph-name="uni2126" unicode="&#x2126;" horiz-adv-x="1532" vert-adv-y="2457" 
d="M96 0v158h392q-396 232 -396 641q0 336 252 547q182 152 421 152q240 0 422 -152q252 -211 252 -548q0 -409 -395 -640h392v-158h-573v147q143 79 229 181q164 194 164 439q0 275 -184 447q-132 124 -305 124q-174 0 -308 -124q-184 -172 -184 -445q0 -406 394 -622v-147
h-573z" />
    <glyph glyph-name="ae" unicode="&#xe6;" horiz-adv-x="1366" vert-adv-y="2457" 
d="M248 770h-162v23q0 176 91 254q91 77 246 77q217 0 279 -151q75 152 258 152q219 0 299 -212q46 -121 46 -326q0 -18 -1 -56h-553q0 -182 24 -266q47 -159 171 -159q78 0 130 70.5t56 183.5h164q-8 -114 -48 -199q-87 -186 -302 -186q-136 0 -214 76q-56 55 -77 128
q-45 -105 -118.5 -154.5t-185.5 -49.5q-152 0 -226 85q-70 81 -70 223q0 181 107 258q39 28 109.5 52.5t196.5 54.5q77 18 98.5 48.5t21.5 119.5q0 87 -42.5 132t-124.5 45q-98 0 -143 -68q-30 -46 -30 -155zM591 575q-29 -25 -197 -75q-113 -34 -144 -100q-21 -46 -21 -110
q0 -177 149 -177q114 0 175 93q35 53 35 158v90q1 101 3 121zM754 665h376q-4 116 -14 164q-35 165 -168 165q-94 0 -144 -85t-50 -244z" />
    <glyph glyph-name="oslash" unicode="&#xf8;" horiz-adv-x="909" vert-adv-y="2457" 
d="M226 -123l-97 41l45 106q11 24 23 41q-28 16 -67 93q-65 129 -65 383q0 310 98 443q103 141 295 141q113 0 170 -35q2 8 14 40l37 89l97 -43l-45 -108q-2 -4 -7 -12q-8 -15 -12 -24q31 -20 65 -83q67 -126 67 -402q0 -283 -86 -418q-98 -154 -305 -154q-128 0 -174 31
q-1 -5 -7 -21l-5 -12zM281 242q4 19 22 63l246 601q2 5 9 20q7 14 13 29q-42 39 -115 39q-119 0 -171 -118q-45 -102 -45 -329q0 -201 41 -305zM335 146q46 -40 119 -40q113 0 164 104t51 337q0 179 -41 319q-8 -31 -18 -55l-252 -619l-8 -15q-11 -24 -15 -31z" />
    <glyph glyph-name="questiondown" unicode="&#xbf;" horiz-adv-x="909" vert-adv-y="2457" 
d="M847 -2q1 -20 1 -30q0 -194 -103 -303q-107 -111 -281 -111q-181 0 -283 111q-94 103 -94 273q0 145 67 247q29 46 143 168q69 75 89 129t21 171h164q0 -151 -22 -214q-19 -52 -52 -96.5t-133 -153.5q-104 -113 -104 -260q0 -97 42 -156q57 -79 163 -79q104 0 157.5 77
t54.5 227h170zM579 851h-191v195h191v-195z" />
    <glyph glyph-name="exclamdown" unicode="&#xa1;" horiz-adv-x="528" vert-adv-y="2457" 
d="M359 -417h-189v454l35 623h114l40 -623v-454zM359 851h-189v195h189v-195z" />
    <glyph glyph-name="logicalnot" unicode="&#xac;" horiz-adv-x="1229" vert-adv-y="2457" 
d="M905 0v445h-765v167h950v-612h-185z" />
    <glyph glyph-name="radical" unicode="&#x221a;" horiz-adv-x="1032" vert-adv-y="2457" 
d="M1452 1813v-152h-418l-486 -1661h-199l-182 636h-177v152h284l90 -300q8 -27 62 -263l8 -35h9q9 41 48 193l58 226l105 356l247 848h551z" />
    <glyph glyph-name="florin" unicode="&#x192;" horiz-adv-x="983" vert-adv-y="2457" 
d="M237 967h214l20 139q26 176 39 231.5t37 97.5q39 69 106 99.5t181 30.5q47 0 98 -5l-21 -135h-24h-34q-116 0 -153 -64q-33 -57 -59 -251l-19 -143h225l-15 -113h-225l-113 -810q-25 -170 -42 -224.5t-59 -103.5q-79 -90 -256 -90q-46 0 -103 8l22 136q47 -3 81 -3
q97 0 131 50q33 48 60 251l109 786h-215z" />
    <glyph glyph-name="approxequal" unicode="&#x2248;" horiz-adv-x="1214" vert-adv-y="2457" 
d="M181 763l-100 69q114 252 300 252q83 0 254 -85q92 -45 128.5 -58t72.5 -13q59 0 100 31.5t97 119.5l100 -69q-112 -251 -319 -251q-43 0 -88.5 17t-173.5 80q-115 57 -183 57q-51 0 -93.5 -34t-94.5 -116zM181 377l-100 69q114 253 301 253q80 0 253 -85
q92 -45 128.5 -58t71.5 -13q59 0 100 31t98 119l100 -69q-112 -250 -319 -250q-44 0 -87 16t-175 81q-116 57 -183 57q-51 0 -94 -34.5t-94 -116.5z" />
    <glyph glyph-name="Delta" unicode="&#x2206;" horiz-adv-x="1380" vert-adv-y="2457" 
d="M19 0l577 1462h186l579 -1462h-1342zM253 158h870l-433 1110z" />
    <glyph glyph-name="guillemotleft" unicode="&#xab;" horiz-adv-x="797" vert-adv-y="2457" 
d="M684 936v-180l-115 -123q-18 -20 -76 -73q23 -18 85 -81l106 -108v-182l-283 290v167zM373 937v-181l-119 -129q-29 -31 -72 -67q38 -32 75 -70l116 -118v-181l-284 288v167z" />
    <glyph glyph-name="guillemotright" unicode="&#xbb;" horiz-adv-x="797" vert-adv-y="2457" 
d="M113 936l283 -290v-167l-283 -290v182l106 108q3 2 17 19q28 30 68 62q-57 52 -76 73l-115 123v180zM423 937l285 -291v-167l-285 -288v181l116 118q37 38 76 70q-45 37 -73 67l-119 129v181z" />
    <glyph glyph-name="ellipsis" unicode="&#x2026;" horiz-adv-x="2048" vert-adv-y="2457" 
d="M497 215h192v-215h-192v215zM928 215h192v-215h-192v215zM1359 215h192v-215h-192v215z" />
    <glyph glyph-name="glyph172" horiz-adv-x="983" vert-adv-y="983" 
 />
    <glyph glyph-name="Agrave" unicode="&#xc0;" horiz-adv-x="1024" vert-adv-y="2457" 
d="M402 1462h237l404 -1462h-191l-105 401h-470l-110 -401h-187zM519 1348q-13 -96 -75 -321l-130 -478h397l-121 473q-51 196 -71 326zM457 1853l153 -259h-134l-238 259h219z" />
    <glyph glyph-name="Atilde" unicode="&#xc3;" horiz-adv-x="1024" vert-adv-y="2457" 
d="M402 1462h237l404 -1462h-191l-105 401h-470l-110 -401h-187zM519 1348q-13 -96 -75 -321l-130 -478h397l-121 473q-51 196 -71 326zM194 1616q14 110 67 169.5t137 59.5q38 0 64 -7.5t107 -40.5q44 -18 72 -18q30 0 46 19t27 66h115q-5 -99 -59 -164t-131 -65
q-32 0 -55 6.5t-112 40.5q-53 21 -78 21q-31 0 -55.5 -24.5t-31.5 -62.5h-113z" />
    <glyph glyph-name="Otilde" unicode="&#xd5;" horiz-adv-x="1139" vert-adv-y="2457" 
d="M583 1491q236 0 346 -175.5t110 -552.5q0 -325 -66 -514q-45 -129 -148 -204q-100 -74 -263 -74q-300 0 -398 280q-64 186 -64 490q0 390 116 570t367 180zM569 1346q-153 0 -218 -135q-69 -145 -69 -474q0 -292 52 -442q61 -179 231 -179q183 0 244 193q48 151 48 416
q0 342 -65 481.5t-223 139.5zM252 1616q14 110 67 169.5t137 59.5q38 0 64 -7.5t107 -40.5q44 -18 72 -18q30 0 46 19t27 66h115q-5 -99 -59 -164t-131 -65q-32 0 -55 6.5t-112 40.5q-53 21 -78 21q-31 0 -55.5 -24.5t-31.5 -62.5h-113z" />
    <glyph glyph-name="OE" unicode="&#x152;" horiz-adv-x="1630" vert-adv-y="2457" 
d="M844 1462h709v-156h-541v-463h506v-156h-506v-531h560v-156h-728q0 84 5 129q-91 -158 -295 -158q-213 0 -327 151q-134 178 -134 625q0 326 85 512q106 232 364 232q219 0 307 -147q-5 40 -5 67v37v14zM839 716v119q0 246 -24 338q-45 174 -234 174q-169 0 -240 -152
q-66 -141 -66 -441q0 -307 51 -451q67 -188 250 -188q77 0 139.5 37t84.5 95q22 59 30.5 163t8.5 306z" />
    <glyph glyph-name="oe" unicode="&#x153;" horiz-adv-x="1479" vert-adv-y="2457" 
d="M1224 361h163q-6 -112 -48 -199q-91 -187 -305 -187q-211 0 -281 186q-37 -90 -115.5 -138t-188.5 -48q-188 0 -278.5 140.5t-90.5 431.5q0 299 95 433q102 144 297 144q218 0 292 -185q77 186 289 186q258 0 317 -271q28 -124 28 -321h-558q-1 -428 199 -428
q79 0 128 67.5t57 188.5zM469 993q-118 0 -170 -122q-44 -101 -44 -325q0 -233 49 -330q55 -110 162 -110q109 0 160.5 109t51.5 342q0 236 -42 325q-52 111 -167 111zM843 667h378q1 14 1 20q0 43 -9.5 103t-20.5 88q-46 116 -151 116q-134 0 -180 -173q-18 -70 -18 -154z
" />
    <glyph glyph-name="endash" unicode="&#x2013;" horiz-adv-x="977" vert-adv-y="2457" 
d="M108 643h760v-161h-760v161z" />
    <glyph glyph-name="emdash" unicode="&#x2014;" horiz-adv-x="2048" vert-adv-y="2457" 
d="M0 643h2048v-161h-2048v161z" />
    <glyph glyph-name="quotedblleft" unicode="&#x201c;" horiz-adv-x="834" vert-adv-y="2457" 
d="M674 973h-192v148q0 110 9.5 165.5t36.5 100.5q43 73 146 104v-96q-53 -22 -72 -64t-20 -143h92v-215zM351 973h-192v148q0 110 9.5 165.5t36.5 100.5q43 73 146 104v-96q-53 -22 -72 -63.5t-20 -143.5h92v-215z" />
    <glyph glyph-name="quotedblright" unicode="&#x201d;" horiz-adv-x="834" vert-adv-y="2457" 
d="M159 1462h192v-149q0 -109 -9.5 -164.5t-36.5 -101.5q-43 -72 -146 -104v97q54 23 72.5 64t19.5 143h-92v215zM482 1462h192v-149q0 -109 -9.5 -164.5t-36.5 -101.5q-43 -72 -146 -104v97q55 24 73 64.5t19 142.5h-92v215z" />
    <glyph glyph-name="quoteleft" unicode="&#x2018;" horiz-adv-x="492" vert-adv-y="2457" 
d="M342 973h-192v148q0 110 9.5 165.5t36.5 100.5q43 73 146 104v-96q-53 -22 -72 -63.5t-20 -143.5h92v-215z" />
    <glyph glyph-name="quoteright" unicode="&#x2019;" horiz-adv-x="492" vert-adv-y="2457" 
d="M150 1462h192v-149q0 -109 -9.5 -164.5t-36.5 -101.5q-43 -72 -146 -104v97q54 23 72.5 64t19.5 143h-92v215z" />
    <glyph glyph-name="divide" unicode="&#xf7;" horiz-adv-x="1229" vert-adv-y="2457" 
d="M202 781h825v-126h-825v126zM616 1141q39 0 68 -29.5t29 -69.5q0 -41 -29 -70t-70 -29q-42 0 -70.5 29t-28.5 71q0 41 29.5 69.5t71.5 28.5zM615 494q39 0 68 -29.5t29 -69.5q0 -41 -29 -70t-70 -29t-70 29t-29 71q0 41 29.5 69.5t71.5 28.5z" />
    <glyph glyph-name="lozenge" unicode="&#x25ca;" horiz-adv-x="1214" vert-adv-y="2457" 
d="M607 1520l570 -788l-570 -788l-569 788zM607 1326l-432 -594l432 -594l432 594z" />
    <glyph glyph-name="ydieresis" unicode="&#xff;" horiz-adv-x="831" vert-adv-y="2457" 
d="M22 1100h185l174 -680q31 -122 46 -254h9q11 134 39 258l153 676h182l-267 -1009q-48 -180 -87 -284q-34 -92 -99.5 -135t-170.5 -43q-38 0 -109 3v142q14 0 22 -1q49 -3 75 -3q52 0 84.5 25t55.5 83q25 65 28 102zM168 1511h165v-203h-165v203zM499 1511h165v-203h-165
v203z" />
    <glyph glyph-name="Ydieresis" unicode="&#x178;" horiz-adv-x="946" vert-adv-y="2457" 
d="M-5 1462h199l219 -539q41 -101 60 -187q12 45 53 156l10 28l225 542h189l-391 -888v-574h-178v574zM212 1843h174v-212h-174v212zM560 1843h174v-212h-174v212z" />
    <glyph glyph-name="fraction" unicode="&#x2044;" horiz-adv-x="342" vert-adv-y="2457" 
d="M500 1433h106l-763 -1433h-106z" />
    <glyph glyph-name="Euro" unicode="&#x20ac;" horiz-adv-x="983" vert-adv-y="2457" 
d="M135 577h-130l29 97h99q-1 17 -1 36q0 15 1 95h-128l29 97h104q10 140 27.5 224t51.5 155q101 210 337 210q182 0 284 -98q53 -51 76 -116t30 -184h-163q0 83 -36 154q-49 99 -182 99q-158 0 -208 -185q-27 -99 -35 -259h405l-29 -97h-380q-2 -69 -2 -80q0 -34 1 -51h340
l-29 -97h-308q5 -141 29 -252q22 -100 77 -154.5t135 -54.5q186 0 200 295h164q-11 -131 -33.5 -201.5t-71.5 -129.5q-48 -58 -107 -82q-65 -27 -159 -27q-197 0 -288 123q-114 154 -129 483z" />
    <glyph glyph-name="guilsinglleft" unicode="&#x2039;" horiz-adv-x="492" vert-adv-y="2457" 
d="M375 935v-181l-138 -145q-5 -6 -42 -39l-11 -10q27 -21 62 -57l129 -133v-179l-283 289v164z" />
    <glyph glyph-name="guilsinglright" unicode="&#x203a;" horiz-adv-x="492" vert-adv-y="2457" 
d="M116 935l283 -291v-164l-283 -289v179l129 133q35 36 62 57q-47 43 -53 49l-138 145v181z" />
    <glyph glyph-name="fi" unicode="&#xfb01;" vert-adv-y="2457" 
d="M5 1100h162q0 164 7 203q17 90 80.5 130t191.5 40q33 0 79 -2v-141h-14h-21q-112 0 -133 -31.5t-20 -198.5h188v-134h-188v-966h-170v966h-162v134zM648 1100h170v-1100h-170v1100zM648 1462h170v-202h-170v202z" />
    <glyph glyph-name="fl" unicode="&#xfb02;" vert-adv-y="2457" 
d="M5 1100h162q0 164 7 203q17 90 80.5 130t191.5 40q33 0 79 -2v-141h-14h-21q-112 0 -133 -31.5t-20 -198.5h188v-134h-188v-966h-170v966h-162v134zM648 1462h170v-1462h-170v1462z" />
    <glyph glyph-name="daggerdbl" unicode="&#x2021;" horiz-adv-x="987" vert-adv-y="2457" 
d="M69 1019h339v443h170v-443h339v-146h-339v-652h339v-146h-339v-441h-170v441h-339v146h339v652h-339v146z" />
    <glyph glyph-name="periodcentered" unicode="&#xb7;" horiz-adv-x="492" vert-adv-y="2457" 
d="M150 671h192v-215h-192v215z" />
    <glyph glyph-name="quotesinglbase" unicode="&#x201a;" horiz-adv-x="492" vert-adv-y="2457" 
d="M150 215h192v-149q0 -108 -9.5 -163.5t-36.5 -101.5q-42 -72 -146 -105v97q54 24 72.5 64.5t19.5 142.5h-92v215z" />
    <glyph glyph-name="quotedblbase" unicode="&#x201e;" horiz-adv-x="834" vert-adv-y="2457" 
d="M159 215h192v-149q0 -108 -9.5 -163.5t-36.5 -101.5q-42 -72 -146 -105v97q54 24 72.5 64.5t19.5 142.5h-92v215zM482 215h192v-149q0 -108 -9.5 -163.5t-36.5 -101.5q-42 -72 -146 -105v97q55 24 73 64.5t19 142.5h-92v215z" />
    <glyph glyph-name="perthousand" unicode="&#x2030;" horiz-adv-x="2124" vert-adv-y="2457" 
d="M356 1459q161 0 221 -127q35 -75 35 -262q0 -197 -43 -277q-65 -118 -229 -118q-149 0 -210 105q-44 75 -44 267q0 231 54 314q63 98 216 98zM347 1344q-66 0 -91 -63t-25 -232q0 -148 24.5 -203.5t90.5 -55.5q68 0 93 59.5t25 223.5q0 159 -24 215t-93 56zM995 1473h129
l-645 -1500h-130zM1142 768q162 0 221 -127q35 -76 35 -264q0 -195 -43 -275q-65 -118 -229 -118q-150 0 -210 105q-44 76 -44 267q0 231 54 314q63 98 216 98zM1133 653q-66 0 -91 -63t-25 -230q0 -149 24.5 -204.5t90.5 -55.5q68 0 93 59t25 221q0 160 -24 216.5t-93 56.5
zM1783 768q160 0 220 -127q35 -76 35 -263q0 -196 -44 -276q-64 -118 -228 -118q-150 0 -210 105q-44 75 -44 269q0 229 54 312q63 98 217 98zM1774 653q-67 0 -92 -62.5t-25 -228.5q0 -151 24.5 -206.5t90.5 -55.5q68 0 93 59t25 219q0 162 -24 218.5t-92 56.5z" />
    <glyph glyph-name="Acircumflex" unicode="&#xc2;" horiz-adv-x="1024" vert-adv-y="2457" 
d="M402 1462h237l404 -1462h-191l-105 401h-470l-110 -401h-187zM519 1348q-13 -96 -75 -321l-130 -478h397l-121 473q-51 196 -71 326zM429 1867h170l219 -273h-181l-129 154l-131 -154h-172z" />
    <glyph glyph-name="Ecircumflex" unicode="&#xca;" vert-adv-y="2457" 
d="M119 1462h755v-156h-577v-464h544v-156h-544v-530h599v-156h-777v1462zM414 1867h170l219 -273h-181l-129 154l-131 -154h-172z" />
    <glyph glyph-name="Aacute" unicode="&#xc1;" horiz-adv-x="1024" vert-adv-y="2457" 
d="M402 1462h237l404 -1462h-191l-105 401h-470l-110 -401h-187zM519 1348q-13 -96 -75 -321l-130 -478h397l-121 473q-51 196 -71 326zM567 1853h219l-238 -259h-134z" />
    <glyph glyph-name="Edieresis" unicode="&#xcb;" vert-adv-y="2457" 
d="M119 1462h755v-156h-577v-464h544v-156h-544v-530h599v-156h-777v1462zM236 1843h174v-212h-174v212zM584 1843h174v-212h-174v212z" />
    <glyph glyph-name="Egrave" unicode="&#xc8;" vert-adv-y="2457" 
d="M119 1462h755v-156h-577v-464h544v-156h-544v-530h599v-156h-777v1462zM442 1853l153 -259h-134l-238 259h219z" />
    <glyph glyph-name="Iacute" unicode="&#xcd;" horiz-adv-x="418" vert-adv-y="2457" 
d="M120 1462h178v-1462h-178v1462zM264 1853h219l-238 -259h-134z" />
    <glyph glyph-name="Icircumflex" unicode="&#xce;" horiz-adv-x="418" vert-adv-y="2457" 
d="M120 1462h178v-1462h-178v1462zM127 1867h170l219 -273h-181l-129 154l-131 -154h-172z" />
    <glyph glyph-name="Idieresis" unicode="&#xcf;" horiz-adv-x="418" vert-adv-y="2457" 
d="M120 1462h178v-1462h-178v1462zM-16 1843h174v-212h-174v212zM260 1843h174v-212h-174v212z" />
    <glyph glyph-name="Igrave" unicode="&#xcc;" horiz-adv-x="418" vert-adv-y="2457" 
d="M119 1462h178v-1462h-178v1462zM154 1853l153 -259h-134l-238 259h219z" />
    <glyph glyph-name="Oacute" unicode="&#xd3;" horiz-adv-x="1139" vert-adv-y="2457" 
d="M583 1491q236 0 346 -175.5t110 -552.5q0 -325 -66 -514q-45 -129 -148 -204q-100 -74 -263 -74q-300 0 -398 280q-64 186 -64 490q0 390 116 570t367 180zM569 1346q-153 0 -218 -135q-69 -145 -69 -474q0 -292 52 -442q61 -179 231 -179q183 0 244 193q48 151 48 416
q0 342 -65 481.5t-223 139.5zM624 1853h219l-238 -259h-134z" />
    <glyph glyph-name="Ocircumflex" unicode="&#xd4;" horiz-adv-x="1139" vert-adv-y="2457" 
d="M583 1491q236 0 346 -175.5t110 -552.5q0 -325 -66 -514q-45 -129 -148 -204q-100 -74 -263 -74q-300 0 -398 280q-64 186 -64 490q0 390 116 570t367 180zM569 1346q-153 0 -218 -135q-69 -145 -69 -474q0 -292 52 -442q61 -179 231 -179q183 0 244 193q48 151 48 416
q0 342 -65 481.5t-223 139.5zM487 1867h170l219 -273h-181l-129 154l-131 -154h-172z" />
    <glyph glyph-name="glyph210" horiz-adv-x="492" vert-adv-y="2457" 
 />
    <glyph glyph-name="Ograve" unicode="&#xd2;" horiz-adv-x="1139" vert-adv-y="2457" 
d="M583 1491q236 0 346 -175.5t110 -552.5q0 -325 -66 -514q-45 -129 -148 -204q-100 -74 -263 -74q-300 0 -398 280q-64 186 -64 490q0 390 116 570t367 180zM569 1346q-153 0 -218 -135q-69 -145 -69 -474q0 -292 52 -442q61 -179 231 -179q183 0 244 193q48 151 48 416
q0 342 -65 481.5t-223 139.5zM515 1853l153 -259h-134l-238 259h219z" />
    <glyph glyph-name="Uacute" unicode="&#xda;" horiz-adv-x="1063" vert-adv-y="2457" 
d="M104 1462h178v-984q0 -160 25 -224q55 -138 220 -138q184 0 235 162q20 63 20 195v989h178v-986q0 -190 -46 -288q-104 -217 -396 -217q-217 0 -324 135q-90 113 -90 318v62v976zM587 1853h219l-238 -259h-134z" />
    <glyph glyph-name="Ucircumflex" unicode="&#xdb;" horiz-adv-x="1063" vert-adv-y="2457" 
d="M104 1462h178v-984q0 -160 25 -224q55 -138 220 -138q184 0 235 162q20 63 20 195v989h178v-986q0 -190 -46 -288q-104 -217 -396 -217q-217 0 -324 135q-90 113 -90 318v62v976zM450 1867h170l219 -273h-181l-129 154l-131 -154h-172z" />
    <glyph glyph-name="Ugrave" unicode="&#xd9;" horiz-adv-x="1063" vert-adv-y="2457" 
d="M104 1462h178v-984q0 -160 25 -224q55 -138 220 -138q184 0 235 162q20 63 20 195v989h178v-986q0 -190 -46 -288q-104 -217 -396 -217q-217 0 -324 135q-90 113 -90 318v62v976zM477 1853l153 -259h-134l-238 259h219z" />
    <glyph glyph-name="dotlessi" unicode="&#x131;" horiz-adv-x="418" vert-adv-y="2457" 
d="M124 1100h170v-1100h-170v1100z" />
    <glyph glyph-name="circumflex" unicode="&#x2c6;" horiz-adv-x="418" vert-adv-y="2457" 
d="M132 1551h159l203 -293h-163l-125 181l-128 -181h-154z" />
    <glyph glyph-name="tilde" unicode="&#x2dc;" horiz-adv-x="418" vert-adv-y="2457" 
d="M-84 1284q14 107 62 166t123 59q36 0 60 -8t100 -44q42 -20 68 -20q53 0 68 86h104q-5 -96 -54 -160t-119 -64q-31 0 -52.5 7t-102.5 43q-50 23 -75 23q-28 0 -51 -25t-29 -63h-102z" />
    <glyph glyph-name="macron" unicode="&#xaf;" horiz-adv-x="418" vert-adv-y="2457" 
d="M-63 1462h545v-106h-545v106z" />
    <glyph glyph-name="breve" unicode="&#x2d8;" horiz-adv-x="418" vert-adv-y="2457" 
d="M-56 1538h109q27 -139 154 -139q64 0 105.5 37t50.5 102h110q-4 -94 -51 -163q-71 -106 -215 -106q-148 0 -220 118q-39 64 -43 151z" />
    <glyph glyph-name="dotaccent" unicode="&#x2d9;" horiz-adv-x="418" vert-adv-y="2457" 
d="M126 1511h165v-203h-165v203z" />
    <glyph glyph-name="ring" unicode="&#x2da;" horiz-adv-x="418" vert-adv-y="2457" 
d="M212 1638q85 0 145 -66q51 -56 51 -133q0 -89 -66 -148q-56 -51 -133 -51q-89 0 -148 66q-51 56 -51 135q0 86 66 146q56 51 136 51zM206 1553q-44 0 -75.5 -33.5t-31.5 -80.5t32 -80.5t77 -33.5q46 0 78.5 33.5t32.5 81.5q0 47 -33 80t-80 33z" />
    <glyph glyph-name="cedilla" unicode="&#xb8;" horiz-adv-x="418" vert-adv-y="2457" 
d="M194 0h86l-82 -117q44 7 61 7q70 0 116.5 -39t46.5 -99q0 -75 -63.5 -121.5t-164.5 -46.5q-78 0 -175 35l27 68q66 -25 126 -25q50 0 78.5 21.5t28.5 58.5q0 32 -27.5 52.5t-69.5 20.5q-35 0 -70 -14l-30 33z" />
    <glyph glyph-name="hungarumlaut" unicode="&#x2dd;" horiz-adv-x="418" vert-adv-y="2457" 
d="M76 1537h189l-148 -294h-110zM339 1537h189l-148 -294h-110z" />
    <glyph glyph-name="ogonek" unicode="&#x2db;" horiz-adv-x="418" vert-adv-y="2457" 
d="M249 0h109q-109 -90 -109 -177q0 -45 35.5 -74t90.5 -29q29 0 78 12v-95q-62 -22 -114 -22q-105 0 -162 55q-52 50 -52 125q0 104 124 205z" />
    <glyph glyph-name="caron" unicode="&#x2c7;" horiz-adv-x="418" vert-adv-y="2457" 
d="M-75 1550h163l124 -181l128 181h154l-208 -292h-159z" />
    <glyph glyph-name="uni00A0" unicode="&#xa0;" horiz-adv-x="492" vert-adv-y="2457" 
 />
    <glyph glyph-name="currency" unicode="&#xa4;" horiz-adv-x="983" vert-adv-y="2457" 
d="M52 336l97 96q-49 69 -69 127t-20 133q0 81 20.5 140t70.5 123l-100 99l75 77l100 -100q122 95 267 95q73 0 133.5 -21t127.5 -70l97 96l74 -77l-97 -94q53 -67 74.5 -127.5t21.5 -139.5q0 -77 -20.5 -136t-70.5 -125l96 -96l-74 -75l-97 96q-64 -52 -126.5 -74.5
t-141.5 -22.5q-76 0 -137.5 22.5t-128.5 74.5l-98 -96zM488 1007q-133 0 -228 -104q-81 -90 -81 -211q0 -140 104 -234q90 -81 211 -81q140 0 233 104q81 90 81 214q0 135 -104 231q-89 81 -216 81z" />
    <glyph glyph-name="brokenbar" unicode="&#xa6;" horiz-adv-x="455" vert-adv-y="2457" 
d="M132 1462h191v-737h-191v737zM132 336h191v-702h-191v702z" />
    <glyph glyph-name="uni00AD" unicode="&#xad;" horiz-adv-x="721" vert-adv-y="2457" 
d="M148 643h424v-161h-424v161z" />
    <glyph glyph-name="twosuperior" unicode="&#xb2;" horiz-adv-x="639" vert-adv-y="2457" 
d="M62 1171q3 123 38 180q68 111 227 111q119 0 185 -66q67 -66 67 -182q0 -119 -71 -197q-41 -45 -160 -141q-75 -60 -106 -98.5t-46 -90.5q24 2 54 2h337v-104h-525q-1 111 49 200q28 51 69 91.5t157 134.5q64 52 89 96.5t25 106.5q0 151 -130 151q-136 0 -135 -194h-124z
" />
    <glyph glyph-name="threesuperior" unicode="&#xb3;" horiz-adv-x="639" vert-adv-y="2457" 
d="M49 835h123q9 -170 136 -170q69 0 107 43.5t38 122.5q0 102 -65 144q-31 20 -119 20l-41 -1v91q89 0 122 12q74 27 74 135q0 133 -118 133q-123 0 -122 -164h-123q1 261 247 261q118 0 182 -63q62 -60 62 -161q0 -137 -122 -192q151 -44 151 -207q0 -128 -72.5 -199.5
t-202.5 -71.5q-123 0 -190.5 70.5t-66.5 196.5z" />
    <glyph glyph-name="onesuperior" unicode="&#xb9;" horiz-adv-x="639" vert-adv-y="2457" 
d="M94 1312q118 2 167 34.5t57 113.5h94v-875h-123v643h-195v84z" />
    <glyph glyph-name="onequarter" unicode="&#xbc;" horiz-adv-x="1477" vert-adv-y="2457" 
d="M52 1312q118 2 167 34.5t57 113.5h94v-875h-123v643h-195v84zM1043 1433h105l-762 -1433h-106zM846 207v108l330 559h124v-563h103v-104h-103v-207h-123v207h-331zM960 311h20h31h11h155v255q0 45 6 121q-19 -36 -33 -59l-153 -259q-18 -31 -37 -58z" />
    <glyph glyph-name="onehalf" unicode="&#xbd;" horiz-adv-x="1477" vert-adv-y="2457" 
d="M55 1312q118 2 167 34.5t57 113.5h94v-875h-123v643h-195v84zM994 1433h106l-763 -1433h-106zM885 586q3 123 38 180q69 111 227 111q121 0 187 -66q66 -67 66 -183q0 -118 -71 -196q-40 -44 -161 -141q-75 -60 -106 -98.5t-46 -90.5q24 2 54 2h337v-104h-524
q-1 111 48 199q29 51 70 92t157 135q64 52 89 96.5t25 105.5q0 152 -130 152q-137 0 -136 -194h-124z" />
    <glyph glyph-name="threequarters" unicode="&#xbe;" horiz-adv-x="1477" vert-adv-y="2457" 
d="M58 835h123q9 -170 136 -170q69 0 107 43.5t38 122.5q0 102 -65 144q-31 20 -119 20l-41 -1v91q89 0 122 12q74 27 74 135q0 133 -118 133q-123 0 -122 -164h-123q1 261 247 261q118 0 182 -63q62 -60 62 -161q0 -137 -122 -192q151 -44 151 -207q0 -128 -72.5 -199.5
t-202.5 -71.5q-123 0 -190.5 70.5t-66.5 196.5zM1113 1433h106l-763 -1433h-106zM886 207v108l330 559h124v-563h103v-104h-103v-207h-123v207h-331zM1000 311h20h31h11h155v255l1 20q2 68 5 101q-19 -36 -33 -59l-153 -259q-17 -29 -37 -58z" />
    <glyph glyph-name="Eth" unicode="&#xd0;" horiz-adv-x="1139" vert-adv-y="2457" 
d="M140 848v614h278q171 0 261.5 -18t154.5 -64q107 -77 158 -225.5t51 -384.5q0 -227 -38 -383t-116 -248q-64 -76 -149.5 -107.5t-226.5 -31.5h-373v720h-130v128h130zM318 848h256v-128h-256v-574h157q199 0 273 89q113 134 113 524q0 221 -45 352q-58 169 -215 194
q-67 11 -173 11h-110v-468z" />
    <glyph glyph-name="multiply" unicode="&#xd7;" horiz-adv-x="1229" vert-adv-y="2457" 
d="M335 1087l279 -280l280 280l88 -89l-279 -280l279 -279l-88 -89l-280 280l-279 -280l-89 89l279 279l-279 280z" />
    <glyph glyph-name="Yacute" unicode="&#xdd;" horiz-adv-x="946" vert-adv-y="2457" 
d="M-5 1462h199l219 -539q41 -101 60 -187q12 45 53 156l10 28l225 542h189l-391 -888v-574h-178v574zM550 1853h219l-238 -259h-134z" />
    <glyph glyph-name="Thorn" unicode="&#xde;" horiz-adv-x="985" vert-adv-y="2457" 
d="M297 380v-380h-178v1462h178v-238h185q186 0 279 -52q90 -51 135 -152q42 -93 42 -215q0 -164 -74 -271q-62 -88 -151.5 -121t-270.5 -33h-145zM297 1078v-552h159q142 0 199 40q101 72 101 238q0 175 -115 241q-58 33 -209 33h-135z" />
    <glyph glyph-name="eth" unicode="&#xf0;" horiz-adv-x="909" vert-adv-y="2457" 
d="M339 1287l128 44l-53 139l94 33l66 -141l137 46l23 -72l-126 -42l142 -297q53 -110 73 -206.5t20 -242.5q0 -144 -18.5 -239t-59.5 -169q-91 -161 -316 -161q-201 0 -291.5 134.5t-90.5 432.5q0 149 21 247.5t68 172.5q45 69 120.5 108t166.5 39q59 0 108 -24l-62 169
l-125 -43zM457 982q-115 0 -165 -101.5t-50 -333.5q0 -234 47 -330q52 -107 165 -107t163.5 106t50.5 344q0 231 -48 326.5t-163 95.5z" />
    <glyph glyph-name="yacute" unicode="&#xfd;" horiz-adv-x="831" vert-adv-y="2457" 
d="M22 1100h185l174 -680q31 -122 46 -254h9q11 134 39 258l153 676h182l-267 -1009q-48 -180 -87 -284q-34 -92 -99.5 -135t-170.5 -43q-38 0 -109 3v142q14 0 22 -1q49 -3 75 -3q52 0 84.5 25t55.5 83q25 65 28 102zM479 1537h205l-221 -294h-126z" />
    <glyph glyph-name="thorn" unicode="&#xfe;" vert-adv-y="2457" 
d="M285 1462v-416q0 -55 -4 -84q28 78 93 120.5t156 42.5q186 0 270 -155q72 -133 72 -397q0 -298 -81 -435q-97 -163 -271 -163q-164 0 -239 146q4 -33 4 -137v-353h-170v1831h170zM491 984q-126 0 -181 -135q-34 -84 -34 -282q0 -240 42 -333q53 -118 168 -118
q111 0 161 107.5t50 343.5q0 195 -33 288q-46 129 -173 129z" />
    <glyph glyph-name="Amacron" unicode="&#x100;" horiz-adv-x="1024" vert-adv-y="2457" 
d="M402 1462h237l404 -1462h-191l-105 401h-470l-110 -401h-187zM519 1348q-13 -96 -75 -321l-130 -478h397l-121 473q-51 196 -71 326zM190 1794h643v-127h-643v127z" />
    <glyph glyph-name="amacron" unicode="&#x101;" horiz-adv-x="909" vert-adv-y="2457" 
d="M92 767q-1 93 11.5 144.5t45.5 93.5q92 119 297 119q242 0 311 -148q27 -56 27 -212v-527q0 -72 13.5 -96.5t51.5 -24.5q16 0 34 8v-122q-42 -17 -92 -17q-155 0 -165 144q-95 -155 -282 -155q-137 0 -208 78q-75 82 -75 231q0 159 85 240q34 32 81.5 53t161.5 53
q114 33 152.5 49t55.5 37q21 28 21 98q0 72 -23 111q-40 69 -153 69q-110 0 -156 -67q-33 -48 -33 -159h-161zM622 601q-24 -26 -58.5 -41.5t-153.5 -52.5q-124 -39 -155 -106q-20 -43 -20 -109q0 -86 39 -131q41 -48 118 -48q52 0 101 25t81 67q26 34 35 72t9 113v85
q1 107 4 126zM182 1462h545v-106h-545v106z" />
    <glyph glyph-name="Abreve" unicode="&#x102;" horiz-adv-x="1024" vert-adv-y="2457" 
d="M402 1462h237l404 -1462h-191l-105 401h-470l-110 -401h-187zM519 1348q-13 -96 -75 -321l-130 -478h397l-121 473q-51 196 -71 326zM224 1857h118q23 -75 67 -104q42 -28 102 -28q70 0 114.5 34.5t55.5 97.5h119q-4 -93 -56 -162q-78 -105 -233 -105q-126 0 -203 71.5
t-84 195.5z" />
    <glyph glyph-name="abreve" unicode="&#x103;" horiz-adv-x="909" vert-adv-y="2457" 
d="M92 767q-1 93 11.5 144.5t45.5 93.5q92 119 297 119q242 0 311 -148q27 -56 27 -212v-527q0 -72 13.5 -96.5t51.5 -24.5q16 0 34 8v-122q-42 -17 -92 -17q-155 0 -165 144q-95 -155 -282 -155q-137 0 -208 78q-75 82 -75 231q0 159 85 240q34 32 81.5 53t161.5 53
q114 33 152.5 49t55.5 37q21 28 21 98q0 72 -23 111q-40 69 -153 69q-110 0 -156 -67q-33 -48 -33 -159h-161zM622 601q-24 -26 -58.5 -41.5t-153.5 -52.5q-124 -39 -155 -106q-20 -43 -20 -109q0 -86 39 -131q41 -48 118 -48q52 0 101 25t81 67q26 34 35 72t9 113v85
q1 107 4 126zM190 1538h109q27 -139 154 -139q64 0 105.5 37t50.5 102h110q-4 -94 -51 -163q-71 -106 -215 -106q-148 0 -220 118q-39 64 -43 151z" />
    <glyph glyph-name="Aogonek" unicode="&#x104;" horiz-adv-x="1024" vert-adv-y="2457" 
d="M934 0h-83l-104 401h-470l-110 -401h-187l422 1462h237l404 -1462q-109 -92 -109 -176q0 -45 35.5 -74.5t90.5 -29.5q29 0 78 12v-95q-61 -22 -115 -22q-103 0 -160 55q-52 50 -52 125q0 103 123 205zM519 1348q-14 -96 -75 -321l-130 -478h397l-121 473q-51 196 -71 326
z" />
    <glyph glyph-name="aogonek" unicode="&#x105;" horiz-adv-x="909" vert-adv-y="2457" 
d="M883 124v-122q-109 -91 -109 -176q0 -45 35.5 -74.5t90.5 -29.5q29 0 78 12v-96q-61 -21 -113 -21q-107 0 -163 55q-52 50 -52 124q0 101 106 192q-121 16 -130 141q-95 -155 -282 -155q-137 0 -208 78q-75 82 -75 231q0 159 85 240q34 32 81.5 53t161.5 53
q114 33 152.5 49t55.5 37q21 28 21 98q0 72 -23 111q-40 69 -153 69q-110 0 -156 -67q-33 -48 -33 -159h-161q-1 93 11.5 144.5t45.5 93.5q92 119 297 119q242 0 311 -148q27 -56 27 -212v-527q0 -72 13.5 -96.5t51.5 -24.5q16 0 34 8zM622 601q-24 -26 -58.5 -41.5
t-153.5 -52.5q-124 -39 -155 -106q-20 -43 -20 -109q0 -86 39 -131q41 -48 118 -48q52 0 101 25t81 67q26 34 35 72t9 113v85q1 107 4 126z" />
    <glyph glyph-name="Cacute" unicode="&#x106;" horiz-adv-x="1063" vert-adv-y="2457" 
d="M831 503h181q0 -185 -79 -331q-59 -109 -142 -154q-85 -47 -222 -47q-215 0 -317 122q-78 92 -113 240t-35 384q0 383 95 563q54 103 149.5 157t223.5 54q270 0 374 -199q53 -101 54 -257h-179q-1 103 -40 189q-56 122 -209 122q-178 0 -238 -185q-48 -149 -48 -451
q0 -240 38 -386q27 -105 94 -158q63 -50 152 -50q251 0 261 387zM650 1853h219l-238 -259h-134z" />
    <glyph glyph-name="cacute" unicode="&#x107;" horiz-adv-x="872" vert-adv-y="2457" 
d="M645 383h166q-4 -200 -96.5 -304t-266.5 -104q-194 0 -285 138.5t-91 433.5q0 300 95 435q101 142 297 142q225 0 308 -184q37 -84 39 -183h-171q-7 87 -25 127q-46 99 -156 99q-112 0 -162 -101.5t-50 -330.5q0 -258 58 -351q52 -84 154 -84q111 0 158 113q26 63 28 154
zM528 1537h205l-221 -294h-126z" />
    <glyph glyph-name="Ccircumflex" unicode="&#x108;" horiz-adv-x="1063" vert-adv-y="2457" 
d="M828 503h181q0 -185 -79 -331q-59 -109 -142 -154q-85 -47 -222 -47q-215 0 -317 122q-78 92 -113 240t-35 384q0 383 95 563q54 103 149.5 157t223.5 54q270 0 374 -199q53 -101 54 -257h-179q-1 103 -40 189q-56 122 -209 122q-178 0 -238 -185q-48 -149 -48 -451
q0 -240 38 -386q27 -105 94 -158q63 -50 152 -50q251 0 261 387zM500 1867h170l219 -273h-181l-129 154l-131 -154h-172z" />
    <glyph glyph-name="ccircumflex" unicode="&#x109;" horiz-adv-x="872" vert-adv-y="2457" 
d="M642 383h166q-4 -200 -96.5 -304t-266.5 -104q-194 0 -285 138.5t-91 433.5q0 300 95 435q101 142 297 142q225 0 308 -184q37 -84 39 -183h-171q-7 87 -25 127q-46 99 -156 99q-112 0 -162 -101.5t-50 -330.5q0 -258 58 -351q52 -84 154 -84q111 0 158 113q26 63 28 154
zM371 1551h159l203 -293h-163l-125 181l-128 -181h-154z" />
    <glyph glyph-name="Cdotaccent" unicode="&#x10a;" horiz-adv-x="1063" vert-adv-y="2457" 
d="M828 503h181q0 -185 -79 -331q-59 -109 -142 -154q-85 -47 -222 -47q-215 0 -317 122q-78 92 -113 240t-35 384q0 383 95 563q54 103 149.5 157t223.5 54q270 0 374 -199q53 -101 54 -257h-179q-1 103 -40 189q-56 122 -209 122q-178 0 -238 -185q-48 -149 -48 -451
q0 -240 38 -386q27 -105 94 -158q63 -50 152 -50q251 0 261 387zM468 1843h174v-212h-174v212z" />
    <glyph glyph-name="cdotaccent" unicode="&#x10b;" horiz-adv-x="872" vert-adv-y="2457" 
d="M645 383h166q-4 -200 -96.5 -304t-266.5 -104q-194 0 -285 138.5t-91 433.5q0 300 95 435q101 142 297 142q225 0 308 -184q37 -84 39 -183h-171q-7 87 -25 127q-46 99 -156 99q-112 0 -162 -101.5t-50 -330.5q0 -258 58 -351q52 -84 154 -84q111 0 158 113q26 63 28 154
zM374 1511h165v-203h-165v203z" />
    <glyph glyph-name="Ccaron" unicode="&#x10c;" horiz-adv-x="1063" vert-adv-y="2457" 
d="M828 503h181q0 -185 -79 -331q-59 -109 -142 -154q-85 -47 -222 -47q-215 0 -317 122q-78 92 -113 240t-35 384q0 383 95 563q54 103 149.5 157t223.5 54q270 0 374 -199q53 -101 54 -257h-179q-1 103 -40 189q-56 122 -209 122q-178 0 -238 -185q-48 -149 -48 -451
q0 -240 38 -386q27 -105 94 -158q63 -50 152 -50q251 0 261 387zM494 1594l-223 273h172l131 -154l129 154h181l-219 -273h-171z" />
    <glyph glyph-name="ccaron" unicode="&#x10d;" horiz-adv-x="872" vert-adv-y="2457" 
d="M645 383h166q-4 -200 -96.5 -304t-266.5 -104q-194 0 -285 138.5t-91 433.5q0 300 95 435q101 142 297 142q225 0 308 -184q37 -84 39 -183h-171q-7 87 -25 127q-46 99 -156 99q-112 0 -162 -101.5t-50 -330.5q0 -258 58 -351q52 -84 154 -84q111 0 158 113q26 63 28 154
zM173 1550h163l124 -181l128 181h154l-208 -292h-159z" />
    <glyph glyph-name="Dcaron" unicode="&#x10e;" horiz-adv-x="1139" vert-adv-y="2457" 
d="M140 1462h278q170 0 260.5 -18t155.5 -64q139 -100 185 -329q24 -118 24 -281q0 -227 -38 -383t-116 -248q-64 -76 -149.5 -107.5t-226.5 -31.5h-373v1462zM318 1316v-1170h157q199 0 273 89q113 134 113 526q0 220 -45 350q-58 169 -215 194q-68 11 -173 11h-110z
M442 1594l-223 273h172l131 -154l129 154h181l-219 -273h-171z" />
    <glyph glyph-name="dcaron" unicode="&#x10f;" horiz-adv-x="1073" vert-adv-y="2457" 
d="M825 1462v-1462h-159v58q0 49 3 89q-28 -83 -96 -127.5t-164 -44.5q-181 0 -266 155q-77 140 -77 421q0 287 76 416q93 158 272 158q177 0 244 -145q-3 32 -3 93v389h170zM448 983q-126 0 -174 -133q-33 -94 -33 -297q0 -208 34 -308q43 -129 172 -129q114 0 165 103.5
t51 334.5q0 226 -40 314q-51 115 -175 115zM1109 1462v-142q0 -226 -190 -246v73q91 22 100 134h-100v181h190z" />
    <glyph glyph-name="Dcroat" unicode="&#x110;" horiz-adv-x="1139" vert-adv-y="2457" 
d="M140 848v614h278q171 0 261.5 -18t154.5 -64q107 -77 158 -225.5t51 -384.5q0 -227 -38 -383t-116 -248q-64 -76 -149.5 -107.5t-226.5 -31.5h-373v720h-130v128h130zM318 848h256v-128h-256v-574h157q199 0 273 89q113 134 113 524q0 221 -45 352q-58 169 -215 194
q-67 11 -173 11h-110v-468z" />
    <glyph glyph-name="dcroat" unicode="&#x111;" horiz-adv-x="979" vert-adv-y="2457" 
d="M670 1329v133h171v-133h120v-119h-120v-1210h-160v58q0 49 3 89q-28 -83 -95.5 -127.5t-164.5 -44.5q-181 0 -266 155q-77 140 -77 421q0 287 76 417q94 157 272 157q177 0 244 -145q-3 32 -3 93v137h-238v119h238zM463 983q-126 0 -174 -133q-33 -94 -33 -297
q0 -208 34 -308q43 -129 172 -129q114 0 165 103.5t51 334.5q0 226 -40 314q-51 115 -175 115z" />
    <glyph glyph-name="Emacron" unicode="&#x112;" vert-adv-y="2457" 
d="M119 1462h755v-156h-577v-464h544v-156h-544v-530h599v-156h-777v1462zM152 1794h643v-127h-643v127z" />
    <glyph glyph-name="emacron" unicode="&#x113;" horiz-adv-x="909" vert-adv-y="2457" 
d="M253 533q0 -175 26 -269q44 -158 184 -158q86 0 137.5 67t58.5 188h164q-1 -96 -46 -196q-86 -190 -322 -190q-222 0 -310 178q-69 140 -69 397q0 254 72 394q92 180 318 180q266 0 334 -252q33 -120 33 -339h-580zM256 667h400v9q-9 153 -33 210q-45 107 -158 107
q-124 0 -174 -117q-35 -80 -35 -194v-15zM182 1462h545v-106h-545v106z" />
    <glyph glyph-name="Ebreve" unicode="&#x114;" vert-adv-y="2457" 
d="M119 1462h755v-156h-577v-464h544v-156h-544v-530h599v-156h-777v1462zM215 1857h118q23 -75 67 -104q42 -28 102 -28q70 0 114.5 34.5t55.5 97.5h119q-4 -93 -56 -162q-78 -105 -233 -105q-126 0 -203 71.5t-84 195.5z" />
    <glyph glyph-name="ebreve" unicode="&#x115;" horiz-adv-x="909" vert-adv-y="2457" 
d="M253 533q0 -175 26 -269q44 -158 184 -158q86 0 137.5 67t58.5 188h164q-1 -96 -46 -196q-86 -190 -322 -190q-222 0 -310 178q-69 140 -69 397q0 254 72 394q92 180 318 180q266 0 334 -252q33 -120 33 -339h-580zM256 667h400v9q-9 153 -33 210q-45 107 -158 107
q-124 0 -174 -117q-35 -80 -35 -194v-15zM190 1538h109q27 -139 154 -139q64 0 105.5 37t50.5 102h110q-4 -94 -51 -163q-71 -106 -215 -106q-148 0 -220 118q-39 64 -43 151z" />
    <glyph glyph-name="Edotaccent" unicode="&#x116;" vert-adv-y="2457" 
d="M119 1462h755v-156h-577v-464h544v-156h-544v-530h599v-156h-777v1462zM416 1843h174v-212h-174v212z" />
    <glyph glyph-name="edotaccent" unicode="&#x117;" horiz-adv-x="909" vert-adv-y="2457" 
d="M253 533q0 -175 26 -269q44 -158 184 -158q86 0 137.5 67t58.5 188h164q-1 -96 -46 -196q-86 -190 -322 -190q-222 0 -310 178q-69 140 -69 397q0 254 72 394q92 180 318 180q266 0 334 -252q33 -120 33 -339h-580zM256 667h400v9q-9 153 -33 210q-45 107 -158 107
q-124 0 -174 -117q-35 -80 -35 -194v-15zM372 1511h165v-203h-165v203z" />
    <glyph glyph-name="Eogonek" unicode="&#x118;" vert-adv-y="2457" 
d="M786 0h-667v1462h755v-156h-577v-464h544v-156h-544v-530h599v-156q-110 -90 -110 -176q0 -46 35.5 -75t90.5 -29q29 0 78 12v-95q-61 -22 -113 -22q-106 0 -163 55q-51 50 -51 125q0 103 123 205z" />
    <glyph glyph-name="eogonek" unicode="&#x119;" horiz-adv-x="909" vert-adv-y="2457" 
d="M706 -268v-95q-62 -22 -114 -22q-105 0 -162 55q-52 50 -52 124q0 95 95 181h-27q-214 0 -301 178q-69 141 -69 397q0 254 72 394q92 180 319 180q265 0 333 -252q33 -120 33 -339h-580q0 -175 26 -269q44 -158 184 -158q86 0 137.5 67t58.5 188h164q-1 -103 -46 -196
q-46 -86 -167 -167q-48 -32 -78.5 -81t-30.5 -91q0 -47 35 -76.5t91 -29.5q29 0 79 12zM257 667h399v9q-8 153 -32 210q-45 107 -159 107q-124 0 -174 -117q-15 -33 -25 -89.5t-10 -102.5q0 -5 1 -17z" />
    <glyph glyph-name="Ecaron" unicode="&#x11a;" vert-adv-y="2457" 
d="M119 1462h755v-156h-577v-464h544v-156h-544v-530h599v-156h-777v1462zM420 1594l-223 273h172l131 -154l129 154h181l-219 -273h-171z" />
    <glyph glyph-name="ecaron" unicode="&#x11b;" horiz-adv-x="909" vert-adv-y="2457" 
d="M253 533q0 -175 26 -269q44 -158 184 -158q86 0 137.5 67t58.5 188h164q-1 -96 -46 -196q-86 -190 -322 -190q-222 0 -310 178q-69 140 -69 397q0 254 72 394q92 180 318 180q266 0 334 -252q33 -120 33 -339h-580zM256 667h400v9q-9 153 -33 210q-45 107 -158 107
q-124 0 -174 -117q-35 -80 -35 -194v-15zM170 1550h163l124 -181l128 181h154l-208 -292h-159z" />
    <glyph glyph-name="Gcircumflex" unicode="&#x11c;" horiz-adv-x="1100" vert-adv-y="2457" 
d="M548 760h455v-760h-137v105q0 2 -1 17v19q0 6 1 52v4q-85 -226 -328 -226q-134 0 -231 70q-124 88 -169 272q-42 172 -42 415q0 383 98 557q116 206 371 206q199 0 308 -112.5t115 -321.5h-180q-4 103 -39 171q-61 118 -204 118q-158 0 -222.5 -146.5t-64.5 -504.5
q0 -293 69 -443q63 -136 216 -136q113 0 182 83q49 58 69.5 153.5t20.5 259.5h-287v148zM488 1867h170l219 -273h-181l-129 154l-131 -154h-172z" />
    <glyph glyph-name="gcircumflex" unicode="&#x11d;" vert-adv-y="2457" 
d="M106 -105h164q19 -138 176 -138q126 0 181 79q15 23 26.5 73t11.5 96v82q0 42 7 74q-35 -57 -67 -86q-77 -71 -192 -71q-336 0 -336 547q0 301 89 437q90 137 263 137q172 0 247 -159q-4 44 -4 101v33h160v-943q-1 -156 -8 -218t-30 -118q-84 -195 -352 -195
q-313 0 -336 269zM459 984q-118 0 -166 -113q-41 -97 -41 -310q0 -229 48 -320q50 -96 152 -96q115 0 167 103t52 329q0 213 -50.5 310t-161.5 97zM399 1551h159l203 -293h-163l-125 181l-128 -181h-154z" />
    <glyph glyph-name="Gbreve" unicode="&#x11e;" horiz-adv-x="1100" vert-adv-y="2457" 
d="M542 760h455v-760h-137v105q0 2 -1 17v19q0 6 1 52v4q-85 -226 -328 -226q-134 0 -231 70q-124 88 -169 272q-42 172 -42 415q0 383 98 557q116 206 371 206q199 0 308 -112.5t115 -321.5h-180q-4 103 -39 171q-61 118 -204 118q-158 0 -222.5 -146.5t-64.5 -504.5
q0 -293 69 -443q63 -136 216 -136q113 0 182 83q49 58 69.5 153.5t20.5 259.5h-287v148zM270 1857h118q23 -75 67 -104q42 -28 102 -28q70 0 114.5 34.5t55.5 97.5h119q-4 -93 -56 -162q-78 -105 -233 -105q-126 0 -203 71.5t-84 195.5z" />
    <glyph glyph-name="gbreve" unicode="&#x11f;" vert-adv-y="2457" 
d="M106 -105h164q19 -138 176 -138q126 0 181 79q15 23 26.5 73t11.5 96v82q0 42 7 74q-35 -57 -67 -86q-77 -71 -192 -71q-336 0 -336 547q0 301 89 437q90 137 263 137q172 0 247 -159q-4 44 -4 101v33h160v-943q-1 -156 -8 -218t-30 -118q-84 -195 -352 -195
q-313 0 -336 269zM459 984q-118 0 -166 -113q-41 -97 -41 -310q0 -229 48 -320q50 -96 152 -96q115 0 167 103t52 329q0 213 -50.5 310t-161.5 97zM209 1538h109q27 -139 154 -139q64 0 105.5 37t50.5 102h110q-4 -94 -51 -163q-71 -106 -215 -106q-148 0 -220 118
q-39 64 -43 151z" />
    <glyph glyph-name="Gdotaccent" unicode="&#x120;" horiz-adv-x="1100" vert-adv-y="2457" 
d="M545 760h455v-760h-137v105q0 2 -1 17v19q0 6 1 52v4q-85 -226 -328 -226q-134 0 -231 70q-124 88 -169 272q-42 172 -42 415q0 383 98 557q116 206 371 206q199 0 308 -112.5t115 -321.5h-180q-4 103 -39 171q-61 118 -204 118q-158 0 -222.5 -146.5t-64.5 -504.5
q0 -293 69 -443q63 -136 216 -136q113 0 182 83q49 58 69.5 153.5t20.5 259.5h-287v148zM475 1843h174v-212h-174v212z" />
    <glyph glyph-name="gdotaccent" unicode="&#x121;" vert-adv-y="2457" 
d="M106 -105h164q19 -138 176 -138q126 0 181 79q15 23 26.5 73t11.5 96v82q0 42 7 74q-35 -57 -67 -86q-77 -71 -192 -71q-336 0 -336 547q0 301 89 437q90 137 263 137q172 0 247 -159q-4 44 -4 101v33h160v-943q-1 -156 -8 -218t-30 -118q-84 -195 -352 -195
q-313 0 -336 269zM459 984q-118 0 -166 -113q-41 -97 -41 -310q0 -229 48 -320q50 -96 152 -96q115 0 167 103t52 329q0 213 -50.5 310t-161.5 97zM359 1511h165v-203h-165v203z" />
    <glyph glyph-name="Gcommaaccent" unicode="&#x122;" horiz-adv-x="1100" vert-adv-y="2457" 
d="M548 760h455v-760h-137v105q0 2 -1 17v19q0 6 1 52v4q-85 -226 -328 -226q-134 0 -231 70q-124 88 -169 272q-42 172 -42 415q0 383 98 557q116 206 371 206q199 0 308 -112.5t115 -321.5h-180q-4 103 -39 171q-61 118 -204 118q-158 0 -222.5 -146.5t-64.5 -504.5
q0 -293 69 -443q63 -136 216 -136q113 0 182 83q49 58 69.5 153.5t20.5 259.5h-287v148zM660 -132v-142q0 -226 -190 -246v73q92 22 101 134h-101v181h190z" />
    <glyph glyph-name="gcommaaccent" unicode="&#x123;" vert-adv-y="2457" 
d="M106 -105h164q19 -138 176 -138q126 0 181 79q15 23 26.5 73t11.5 96v82q0 42 7 74q-35 -57 -67 -86q-77 -71 -192 -71q-336 0 -336 547q0 301 89 437q90 137 263 137q172 0 247 -159q-4 44 -4 101v33h160v-943q-1 -156 -8 -218t-30 -118q-84 -195 -352 -195
q-313 0 -336 269zM459 984q-118 0 -166 -113q-41 -97 -41 -310q0 -229 48 -320q50 -96 152 -96q115 0 167 103t52 329q0 213 -50.5 310t-161.5 97zM364 1207v142q0 226 190 247v-74q-91 -22 -101 -134h101v-181h-190z" />
    <glyph glyph-name="Hcircumflex" unicode="&#x124;" horiz-adv-x="1100" vert-adv-y="2457" 
d="M299 861h501v601h178v-1462h-178v705h-501v-705h-178v1462h178v-601zM467 1867h170l219 -273h-181l-129 154l-131 -154h-172z" />
    <glyph glyph-name="hcircumflex" unicode="&#x125;" vert-adv-y="2457" 
d="M289 1462v-267v-30q-2 -160 -8 -199q94 158 281 158q188 0 250 -160q25 -66 25 -215v-749h-170v703q0 140 -15 183q-33 97 -148 97q-60 0 -113.5 -32.5t-80.5 -86.5q-21 -41 -21 -133v-731h-170v1462h170zM215 1867h170l219 -273h-181l-129 154l-131 -154h-172z" />
    <glyph glyph-name="Hbar" unicode="&#x126;" horiz-adv-x="1100" vert-adv-y="2457" 
d="M800 1301v161h178v-161h84v-127h-84v-1174h-178v705h-501v-705h-178v1174h-84v127h84v161h178v-161h501zM800 1174h-501v-313h501v313z" />
    <glyph glyph-name="hbar" unicode="&#x127;" horiz-adv-x="979" vert-adv-y="2457" 
d="M311 1332h270v-106h-270v-31v-30q-2 -160 -7 -199q93 159 280 159t248 -160q26 -67 26 -216v-749h-170v703q0 140 -15 184q-33 97 -148 97q-60 0 -113 -33t-80 -87q-21 -41 -21 -133v-731h-170v1226h-104v106h104v130h170v-130z" />
    <glyph glyph-name="Itilde" unicode="&#x128;" horiz-adv-x="418" vert-adv-y="2457" 
d="M120 1462h178v-1462h-178v1462zM-108 1616q14 110 67 169.5t137 59.5q38 0 64 -7.5t107 -40.5q44 -18 72 -18q30 0 46 19t27 66h115q-5 -99 -59 -164t-131 -65q-32 0 -55 6.5t-112 40.5q-53 21 -78 21q-31 0 -55.5 -24.5t-31.5 -62.5h-113z" />
    <glyph glyph-name="itilde" unicode="&#x129;" horiz-adv-x="418" vert-adv-y="2457" 
d="M123 1100h170v-1100h-170v1100zM-84 1284q14 107 62 166t123 59q36 0 60 -8t100 -44q42 -20 68 -20q53 0 68 86h104q-5 -96 -54 -160t-119 -64q-31 0 -52.5 7t-102.5 43q-50 23 -75 23q-28 0 -51 -25t-29 -63h-102z" />
    <glyph glyph-name="Imacron" unicode="&#x12a;" horiz-adv-x="418" vert-adv-y="2457" 
d="M120 1462h178v-1462h-178v1462zM-113 1794h643v-127h-643v127z" />
    <glyph glyph-name="imacron" unicode="&#x12b;" horiz-adv-x="418" vert-adv-y="2457" 
d="M124 1100h170v-1100h-170v1100zM-63 1462h545v-106h-545v106z" />
    <glyph glyph-name="Ibreve" unicode="&#x12c;" horiz-adv-x="434" vert-adv-y="2457" 
d="M128 1462h178v-1462h-178v1462zM2 1843h118q22 -118 96 -118q83 0 97 118h119q-5 -115 -63.5 -184t-152.5 -69t-151.5 68t-62.5 185z" />
    <glyph glyph-name="ibreve" unicode="&#x12d;" horiz-adv-x="400" vert-adv-y="2457" 
d="M115 1100h170v-1100h-170v1100zM1 1509h109q6 -51 29.5 -80.5t58.5 -29.5q37 0 61 29.5t29 80.5h111q-4 -84 -39 -145q-54 -95 -161 -95q-86 0 -140 65.5t-58 174.5z" />
    <glyph glyph-name="Iogonek" unicode="&#x12e;" horiz-adv-x="418" vert-adv-y="2457" 
d="M120 0v1462h178v-1462q-109 -91 -109 -176q0 -46 35 -75t91 -29q28 0 77 12v-95q-61 -22 -113 -22q-105 0 -162 55q-51 51 -51 125q0 104 123 205h-69z" />
    <glyph glyph-name="iogonek" unicode="&#x12f;" horiz-adv-x="418" vert-adv-y="2457" 
d="M124 1100h170v-1100q-110 -90 -110 -176q0 -46 35.5 -75t90.5 -29q29 0 79 12v-95q-64 -22 -116 -22q-103 0 -160 55q-52 51 -52 125q0 103 124 205h-61v1100zM124 1462h170v-202h-170v202z" />
    <glyph glyph-name="Idotaccent" unicode="&#x130;" horiz-adv-x="418" vert-adv-y="2457" 
d="M120 1462h178v-1462h-178v1462zM122 1843h174v-212h-174v212z" />
    <glyph glyph-name="IJ" unicode="&#x132;" horiz-adv-x="1274" vert-adv-y="2457" 
d="M120 1462h178v-1462h-178v1462zM460 427h175q0 -153 20 -207q37 -104 150 -104q151 0 176 154q8 50 8 209v983h178v-983q0 -236 -36 -321q-80 -187 -332 -187q-231 0 -306 183q-33 82 -33 273z" />
    <glyph glyph-name="ij" unicode="&#x133;" horiz-adv-x="840" vert-adv-y="2457" 
d="M134 1100h170v-1100h-170v1100zM134 1462h170v-202h-170v202zM535 1100h170v-1022v-41q-1 -164 -7 -211t-31 -95q-57 -107 -245 -107q-26 0 -61 3v140q24 -1 45 -1q91 0 114 56q11 27 13 54t2 162v40v1022zM535 1462h170v-202h-170v202z" />
    <glyph glyph-name="Jcircumflex" unicode="&#x134;" horiz-adv-x="872" vert-adv-y="2457" 
d="M42 427h175q0 -153 20 -207q37 -104 150 -104q151 0 176 154q8 50 8 209v983h178v-983q0 -236 -36 -321q-80 -187 -332 -187q-231 0 -306 183q-33 82 -33 273zM572 1867h170l219 -273h-181l-129 154l-131 -154h-172z" />
    <glyph glyph-name="jcircumflex" unicode="&#x135;" horiz-adv-x="418" vert-adv-y="2457" 
d="M123 1100h170v-1022v-41q-1 -164 -7 -211t-31 -95q-57 -107 -245 -107q-26 0 -61 3v140q24 -1 45 -1q91 0 114 56q11 27 13 54t2 162v40v1022zM129 1551h159l203 -293h-163l-125 181l-128 -181h-154z" />
    <glyph glyph-name="Kcommaaccent" unicode="&#x136;" horiz-adv-x="1024" vert-adv-y="2457" 
d="M113 1462h178v-528q0 -150 -4 -206q64 117 132 210l380 524h199l-440 -610l484 -852h-205l-395 702l-151 -204v-498h-178v1462zM613 -132v-142q0 -226 -190 -246v73q92 22 101 134h-101v181h190z" />
    <glyph glyph-name="kcommaaccent" unicode="&#x137;" horiz-adv-x="909" vert-adv-y="2457" 
d="M109 1462h170v-773v-17q-1 -61 -3 -87q7 10 31 45l23 32l12 16l325 422h200l-331 -414l389 -686h-201l-304 545l-141 -174v-371h-170v1462zM564 -88v-142q0 -227 -190 -246v73q91 22 100 134h-100v181h190z" />
    <glyph glyph-name="kgreenlandic" unicode="&#x138;" horiz-adv-x="921" vert-adv-y="2457" 
d="M115 1100h170v-411v-17q-1 -61 -3 -87q7 10 31 45l35 48l388 422h200l-388 -414l383 -686h-201l-298 545l-147 -174v-371h-170v1100z" />
    <glyph glyph-name="Lacute" unicode="&#x139;" horiz-adv-x="909" vert-adv-y="2457" 
d="M116 1462h178v-1306h599v-156h-777v1462zM349 1853h219l-238 -259h-134z" />
    <glyph glyph-name="lacute" unicode="&#x13a;" horiz-adv-x="418" vert-adv-y="2457" 
d="M124 1462h170v-1462h-170v1462zM308 1853h219l-238 -259h-134z" />
    <glyph glyph-name="Lcommaaccent" unicode="&#x13b;" horiz-adv-x="909" vert-adv-y="2457" 
d="M116 1462h178v-1306h599v-156h-777v1462zM580 -132v-142q0 -226 -190 -246v73q92 22 101 134h-101v181h190z" />
    <glyph glyph-name="lcommaaccent" unicode="&#x13c;" horiz-adv-x="418" vert-adv-y="2457" 
d="M124 1462h170v-1462h-170v1462zM304 -88v-142q0 -227 -190 -246v73q91 22 100 134h-100v181h190z" />
    <glyph glyph-name="Lcaron" unicode="&#x13d;" horiz-adv-x="909" vert-adv-y="2457" 
d="M116 1462h178v-1306h599v-156h-777v1462zM726 1462v-157q0 -88 -11.5 -134t-42.5 -79q-45 -50 -151 -63v74q74 19 93 53q22 36 22 110h-115v196h205z" />
    <glyph glyph-name="lcaron" unicode="&#x13e;" horiz-adv-x="530" vert-adv-y="2457" 
d="M115 1462h170v-1462h-170v1462zM564 1462v-142q0 -226 -190 -246v73q91 22 100 134h-100v181h190z" />
    <glyph glyph-name="Ldot" unicode="&#x13f;" horiz-adv-x="909" vert-adv-y="2457" 
d="M116 1462h178v-1306h599v-156h-777v1462zM469 893h197v-221h-197v221z" />
    <glyph glyph-name="ldot" unicode="&#x140;" horiz-adv-x="600" vert-adv-y="2457" 
d="M121 1462h170v-1462h-170v1462zM384 890h192v-215h-192v215z" />
    <glyph glyph-name="Lslash" unicode="&#x141;" horiz-adv-x="909" vert-adv-y="2457" 
d="M116 774v688h178v-579l208 157v-154l-208 -157v-573h599v-156h-777v620l-116 -87v154z" />
    <glyph glyph-name="lslash" unicode="&#x142;" horiz-adv-x="418" vert-adv-y="2457" 
d="M124 822v640h170v-534l111 84v-143l-111 -83v-786h-170v680l-111 -83v142z" />
    <glyph glyph-name="Nacute" unicode="&#x143;" horiz-adv-x="1139" vert-adv-y="2457" 
d="M122 1462h231l325 -792q118 -286 177 -535h9q-19 152 -19 393v934h171v-1462h-237l-311 769q-154 369 -187 559h-9q21 -175 21 -409v-919h-171v1462zM624 1853h219l-238 -259h-134z" />
    <glyph glyph-name="nacute" unicode="&#x144;" vert-adv-y="2457" 
d="M277 1100v-37l1 -48q0 -6 -4 -52q45 76 121.5 119t168.5 43t158 -44t94 -125q21 -59 21 -230v-726h-170v692q0 152 -15 197q-31 94 -149 94q-112 0 -180 -95q-21 -31 -28 -59.5t-7 -87.5v-741h-170v1100h159zM589 1537h205l-221 -294h-126z" />
    <glyph glyph-name="Ncommaaccent" unicode="&#x145;" horiz-adv-x="1139" vert-adv-y="2457" 
d="M122 1462h231l325 -792q118 -286 177 -535h9q-19 152 -19 393v934h171v-1462h-237l-311 769q-154 369 -187 559h-9q21 -175 21 -409v-919h-171v1462zM664 -132v-142q0 -226 -190 -246v73q92 22 101 134h-101v181h190z" />
    <glyph glyph-name="ncommaaccent" unicode="&#x146;" vert-adv-y="2457" 
d="M277 1100v-37l1 -48q0 -6 -4 -52q45 76 121.5 119t168.5 43t158 -44t94 -125q21 -59 21 -230v-726h-170v692q0 152 -15 197q-31 94 -149 94q-112 0 -180 -95q-21 -31 -28 -59.5t-7 -87.5v-741h-170v1100h159zM569 -88v-142q0 -227 -190 -246v73q91 22 100 134h-100v181
h190z" />
    <glyph glyph-name="Ncaron" unicode="&#x147;" horiz-adv-x="1139" vert-adv-y="2457" 
d="M122 1462h231l325 -792q118 -286 177 -535h9q-19 152 -19 393v934h171v-1462h-237l-311 769q-154 369 -187 559h-9q21 -175 21 -409v-919h-171v1462zM486 1594l-223 273h172l131 -154l129 154h181l-219 -273h-171z" />
    <glyph glyph-name="ncaron" unicode="&#x148;" vert-adv-y="2457" 
d="M277 1100v-37l1 -48q0 -6 -4 -52q45 76 121.5 119t168.5 43t158 -44t94 -125q21 -59 21 -230v-726h-170v692q0 152 -15 197q-31 94 -149 94q-112 0 -180 -95q-21 -31 -28 -59.5t-7 -87.5v-741h-170v1100h159zM234 1550h163l124 -181l128 181h154l-208 -292h-159z" />
    <glyph glyph-name="napostrophe" unicode="&#x149;" vert-adv-y="2457" 
d="M275 1100v-37l1 -48q0 -6 -4 -52q45 76 121.5 119t168.5 43t158 -44t94 -125q21 -59 21 -230v-726h-170v692q0 152 -15 197q-31 94 -149 94q-112 0 -180 -95q-21 -31 -28 -59.5t-7 -87.5v-741h-170v1100h159zM210 1646v-142q0 -226 -190 -246v73q91 22 100 134h-100v181
h190z" />
    <glyph glyph-name="Eng" unicode="&#x14a;" horiz-adv-x="1092" vert-adv-y="2457" 
d="M306 1462v-218q55 95 103 146q100 106 236 106q122 0 205 -90q62 -67 88 -167.5t26 -271.5v-994q0 -152 -6.5 -203.5t-30.5 -93.5q-59 -103 -234 -103q-38 0 -81 8v147q36 -8 63 -8q56 0 79.5 19t27.5 67q4 62 4 166v915q0 146 -12 215q-27 150 -103 204q-35 26 -81 26
q-110 0 -196 -145q-50 -85 -69 -179.5t-19 -266.5v-741h-178v1462h178z" />
    <glyph glyph-name="eng" unicode="&#x14b;" horiz-adv-x="949" vert-adv-y="2457" 
d="M274 1100v-37l1 -48q0 -6 -4 -52q45 76 121.5 119t168.5 43q91 0 157.5 -44.5t95.5 -124.5q19 -54 20 -230v-753q0 -151 -6.5 -203t-30.5 -94q-58 -103 -230 -103q-38 0 -81 8v147q35 -8 65 -8q51 0 75 15.5t30 53.5q7 39 7 183v720q0 151 -15 197q-31 94 -148 94
q-112 0 -180 -95q-21 -31 -28 -59.5t-7 -87.5v-741h-170v1100h159z" />
    <glyph glyph-name="Omacron" unicode="&#x14c;" horiz-adv-x="1139" vert-adv-y="2457" 
d="M583 1491q236 0 346 -175.5t110 -552.5q0 -325 -66 -514q-45 -129 -148 -204q-100 -74 -263 -74q-300 0 -398 280q-64 186 -64 490q0 390 116 570t367 180zM569 1346q-153 0 -218 -135q-69 -145 -69 -474q0 -292 52 -442q61 -179 231 -179q183 0 244 193q48 151 48 416
q0 342 -65 481.5t-223 139.5zM248 1794h643v-127h-643v127z" />
    <glyph glyph-name="omacron" unicode="&#x14d;" horiz-adv-x="909" vert-adv-y="2457" 
d="M469 1124q195 0 284.5 -137.5t89.5 -436.5q0 -284 -84 -419q-51 -83 -125 -119q-76 -37 -194 -37q-128 0 -206 54q-168 118 -168 522q0 296 96 431q101 142 307 142zM457 993q-120 0 -173 -120q-43 -97 -43 -329q0 -235 47 -331q52 -107 166 -107q113 0 163.5 106
t50.5 345q0 238 -48 337t-163 99zM182 1462h545v-106h-545v106z" />
    <glyph glyph-name="Obreve" unicode="&#x14e;" horiz-adv-x="1139" vert-adv-y="2457" 
d="M583 1491q236 0 346 -175.5t110 -552.5q0 -325 -66 -514q-45 -129 -148 -204q-100 -74 -263 -74q-300 0 -398 280q-64 186 -64 490q0 390 116 570t367 180zM569 1346q-153 0 -218 -135q-69 -145 -69 -474q0 -292 52 -442q61 -179 231 -179q183 0 244 193q48 151 48 416
q0 342 -65 481.5t-223 139.5zM281 1857h118q23 -75 67 -104q42 -28 102 -28q70 0 114.5 34.5t55.5 97.5h119q-4 -93 -56 -162q-78 -105 -233 -105q-126 0 -203 71.5t-84 195.5z" />
    <glyph glyph-name="obreve" unicode="&#x14f;" horiz-adv-x="909" vert-adv-y="2457" 
d="M469 1124q195 0 284.5 -137.5t89.5 -436.5q0 -284 -84 -419q-51 -83 -125 -119q-76 -37 -194 -37q-128 0 -206 54q-168 118 -168 522q0 296 96 431q101 142 307 142zM457 993q-120 0 -173 -120q-43 -97 -43 -329q0 -235 47 -331q52 -107 166 -107q113 0 163.5 106
t50.5 345q0 238 -48 337t-163 99zM190 1538h109q27 -139 154 -139q64 0 105.5 37t50.5 102h110q-4 -94 -51 -163q-71 -106 -215 -106q-148 0 -220 118q-39 64 -43 151z" />
    <glyph glyph-name="Ohungarumlaut" unicode="&#x150;" horiz-adv-x="1139" vert-adv-y="2457" 
d="M583 1491q236 0 346 -175.5t110 -552.5q0 -325 -66 -514q-45 -129 -148 -204q-100 -74 -263 -74q-300 0 -398 280q-64 186 -64 490q0 390 116 570t367 180zM569 1346q-153 0 -218 -135q-69 -145 -69 -474q0 -292 52 -442q61 -179 231 -179q183 0 244 193q48 151 48 416
q0 342 -65 481.5t-223 139.5zM434 1853h204l-165 -259h-119zM726 1853h204l-164 -259h-120z" />
    <glyph glyph-name="ohungarumlaut" unicode="&#x151;" horiz-adv-x="909" vert-adv-y="2457" 
d="M469 1124q195 0 284.5 -137.5t89.5 -436.5q0 -284 -84 -419q-51 -83 -125 -119q-76 -37 -194 -37q-128 0 -206 54q-168 118 -168 522q0 296 96 431q101 142 307 142zM457 993q-120 0 -173 -120q-43 -97 -43 -329q0 -235 47 -331q52 -107 166 -107q113 0 163.5 106
t50.5 345q0 238 -48 337t-163 99zM321 1537h189l-148 -294h-110zM584 1537h189l-148 -294h-110z" />
    <glyph glyph-name="Racute" unicode="&#x154;" horiz-adv-x="1063" vert-adv-y="2457" 
d="M114 1462h411q188 0 275 -54q159 -99 159 -327q0 -140 -60.5 -233t-171.5 -124q138 -28 180 -122q23 -52 30.5 -111.5t16.5 -259.5q5 -111 19 -154.5t57 -76.5h-217q-23 33 -31 90t-16 246q-5 129 -20.5 183t-54.5 88q-35 29 -79 38.5t-143 9.5h-177v-655h-178v1462z
M292 1316v-522h196q139 0 198 48q91 74 91 219q0 165 -112 224q-58 31 -174 31h-199zM555 1853h219l-238 -259h-134z" />
    <glyph glyph-name="racute" unicode="&#x155;" horiz-adv-x="606" vert-adv-y="2457" 
d="M114 1100h159v-43q0 -83 -4 -143q100 205 277 205q22 0 55 -3v-171q-31 5 -58 5q-134 0 -209 -92q-32 -39 -41 -69t-9 -94v-695h-170v1100zM374 1537h205l-221 -294h-126z" />
    <glyph glyph-name="Rcommaaccent" unicode="&#x156;" horiz-adv-x="1063" vert-adv-y="2457" 
d="M120 1462h411q188 0 275 -54q159 -99 159 -327q0 -140 -60.5 -233t-171.5 -124q138 -28 180 -122q23 -52 30.5 -111.5t16.5 -259.5q5 -111 19 -154.5t57 -76.5h-217q-23 33 -31 90t-16 246q-5 129 -20.5 183t-54.5 88q-35 29 -79 38.5t-143 9.5h-177v-655h-178v1462z
M298 1316v-522h196q139 0 198 48q91 74 91 219q0 165 -112 224q-58 31 -174 31h-199zM645 -132v-142q0 -226 -190 -246v73q92 22 101 134h-101v181h190z" />
    <glyph glyph-name="rcommaaccent" unicode="&#x157;" horiz-adv-x="606" vert-adv-y="2457" 
d="M115 1100h159v-43q0 -83 -4 -143q100 205 277 205q22 0 55 -3v-171q-31 5 -58 5q-134 0 -209 -92q-32 -39 -41 -69t-9 -94v-695h-170v1100zM302 -88v-142q0 -227 -190 -246v73q91 22 100 134h-100v181h190z" />
    <glyph glyph-name="Rcaron" unicode="&#x158;" horiz-adv-x="1063" vert-adv-y="2457" 
d="M114 1462h411q188 0 275 -54q159 -99 159 -327q0 -140 -60.5 -233t-171.5 -124q138 -28 180 -122q23 -52 30.5 -111.5t16.5 -259.5q5 -111 19 -154.5t57 -76.5h-217q-23 33 -31 90t-16 246q-5 129 -20.5 183t-54.5 88q-35 29 -79 38.5t-143 9.5h-177v-655h-178v1462z
M292 1316v-522h196q139 0 198 48q91 74 91 219q0 165 -112 224q-58 31 -174 31h-199zM416 1594l-223 273h172l131 -154l129 154h181l-219 -273h-171z" />
    <glyph glyph-name="rcaron" unicode="&#x159;" horiz-adv-x="606" vert-adv-y="2457" 
d="M114 1100h159v-43q0 -83 -4 -143q100 205 277 205q22 0 55 -3v-171q-31 5 -58 5q-134 0 -209 -92q-32 -39 -41 -69t-9 -94v-695h-170v1100zM63 1550h163l124 -181l128 181h154l-208 -292h-159z" />
    <glyph glyph-name="Sacute" unicode="&#x15a;" horiz-adv-x="1024" vert-adv-y="2457" 
d="M57 458h183q0 -158 36 -223q66 -119 223 -119q130 0 201.5 67.5t71.5 191.5q0 127 -80 196q-35 30 -73 46t-209 74q-146 49 -224 123q-105 101 -105 275q0 188 111 297q106 105 314 105q260 0 357 -176q50 -89 49 -229h-180q-3 106 -30 159q-50 101 -200 101
q-126 0 -185 -69q-54 -63 -54 -166q0 -144 116 -217q37 -23 73.5 -37.5t197.5 -68.5q169 -56 236 -152q68 -96 68 -241q0 -208 -130 -322q-117 -102 -330 -102q-209 0 -321 105q-64 60 -88 141q-28 94 -28 212v29zM570 1853h219l-238 -259h-134z" />
    <glyph glyph-name="sacute" unicode="&#x15b;" horiz-adv-x="834" vert-adv-y="2457" 
d="M56 360h160q0 -136 45.5 -195t151.5 -59q93 0 145.5 47t52.5 132q0 91 -62 139q-29 21 -56.5 33t-164.5 60q-139 48 -195 114q-62 71 -62 192q0 144 91 223q90 78 253 78q173 0 251.5 -82.5t77.5 -263.5h-163q1 86 -17 131q-33 84 -151 84q-83 0 -130 -41t-47 -114
q0 -69 38 -109t134 -72q122 -40 169.5 -60t86.5 -47q112 -76 112 -239q0 -158 -99 -249q-95 -87 -274 -87q-185 0 -266 90t-81 295zM465 1537h205l-221 -294h-126z" />
    <glyph glyph-name="Scircumflex" unicode="&#x15c;" horiz-adv-x="1024" vert-adv-y="2457" 
d="M57 458h183q0 -158 36 -223q66 -119 223 -119q130 0 201.5 67.5t71.5 191.5q0 127 -80 196q-35 30 -73 46t-209 74q-146 49 -224 123q-105 101 -105 275q0 188 111 297q106 105 314 105q260 0 357 -176q50 -89 49 -229h-180q-3 106 -30 159q-50 101 -200 101
q-126 0 -185 -69q-54 -63 -54 -166q0 -144 116 -217q37 -23 73.5 -37.5t197.5 -68.5q169 -56 236 -152q68 -96 68 -241q0 -208 -130 -322q-117 -102 -330 -102q-209 0 -321 105q-64 60 -88 141q-28 94 -28 212v29zM435 1867h170l219 -273h-181l-129 154l-131 -154h-172z" />
    <glyph glyph-name="scircumflex" unicode="&#x15d;" horiz-adv-x="834" vert-adv-y="2457" 
d="M56 360h160q0 -136 45.5 -195t151.5 -59q93 0 145.5 47t52.5 132q0 91 -62 139q-29 21 -56.5 33t-164.5 60q-139 48 -195 114q-62 71 -62 192q0 144 91 223q90 78 253 78q173 0 251.5 -82.5t77.5 -263.5h-163q1 86 -17 131q-33 84 -151 84q-83 0 -130 -41t-47 -114
q0 -69 38 -109t134 -72q122 -40 169.5 -60t86.5 -47q112 -76 112 -239q0 -158 -99 -249q-95 -87 -274 -87q-185 0 -266 90t-81 295zM346 1551h159l203 -293h-163l-125 181l-128 -181h-154z" />
    <glyph glyph-name="Scedilla" unicode="&#x15e;" horiz-adv-x="1024" vert-adv-y="2457" 
d="M564 -26l-68 -98q40 7 64 7q75 0 123.5 -41t48.5 -104q0 -78 -66.5 -127.5t-172.5 -49.5q-87 0 -185 37l28 71q72 -26 133 -26q52 0 82 23t30 62q0 33 -28.5 55t-72.5 22q-38 0 -74 -15l-32 34l98 147q-158 7 -248 65q-89 57 -128 149q-39 93 -39 244v29h183
q0 -158 36 -223q66 -119 223 -119q131 0 202 67.5t71 191.5q0 127 -80 196q-34 30 -72 46t-210 74q-147 49 -224 123q-105 101 -105 275q0 188 111 297q106 105 314 105q260 0 357 -176q50 -88 49 -229h-180q-3 106 -30 159q-50 101 -200 101q-126 0 -185 -69
q-54 -63 -54 -166q0 -144 116 -217q38 -24 74.5 -38t196.5 -67q166 -55 236 -153q68 -94 68 -240q0 -268 -204 -373q-67 -35 -186 -49z" />
    <glyph glyph-name="scedilla" unicode="&#x15f;" horiz-adv-x="834" vert-adv-y="2457" 
d="M481 -20l-69 -97q41 7 62 7q70 0 116 -39.5t46 -98.5q0 -75 -63 -121.5t-165 -46.5q-78 0 -175 35l27 68q67 -25 127 -25q49 0 77.5 21.5t28.5 58.5q0 32 -27.5 52.5t-69.5 20.5q-34 0 -69 -14l-31 33l96 141q-181 7 -259 94q-77 86 -77 291h160q0 -136 45.5 -195
t151.5 -59q93 0 145.5 47t52.5 132q0 91 -62 139q-28 21 -56 33t-165 60q-141 50 -195 114q-62 71 -62 192q0 145 91 223q90 78 254 78q172 0 250.5 -82.5t77.5 -263.5h-163q1 86 -17 131q-33 84 -151 84q-83 0 -130 -41t-47 -114q0 -69 38 -109t134 -72q123 -41 170 -60.5
t86 -46.5q112 -76 112 -239q0 -142 -75 -226t-220 -105z" />
    <glyph glyph-name="Scaron" unicode="&#x160;" horiz-adv-x="1024" vert-adv-y="2457" 
d="M57 458h183q0 -158 36 -223q66 -119 223 -119q130 0 201.5 67.5t71.5 191.5q0 127 -80 196q-35 30 -73 46t-209 74q-146 49 -224 123q-105 101 -105 275q0 188 111 297q106 105 314 105q260 0 357 -176q50 -89 49 -229h-180q-3 106 -30 159q-50 101 -200 101
q-126 0 -185 -69q-54 -63 -54 -166q0 -144 116 -217q37 -23 73.5 -37.5t197.5 -68.5q169 -56 236 -152q68 -96 68 -241q0 -208 -130 -322q-117 -102 -330 -102q-209 0 -321 105q-64 60 -88 141q-28 94 -28 212v29zM417 1594l-223 273h172l131 -154l129 154h181l-219 -273
h-171z" />
    <glyph glyph-name="scaron" unicode="&#x161;" horiz-adv-x="834" vert-adv-y="2457" 
d="M56 360h160q0 -136 45.5 -195t151.5 -59q93 0 145.5 47t52.5 132q0 91 -62 139q-29 21 -56.5 33t-164.5 60q-139 48 -195 114q-62 71 -62 192q0 144 91 223q90 78 253 78q173 0 251.5 -82.5t77.5 -263.5h-163q1 86 -17 131q-33 84 -151 84q-83 0 -130 -41t-47 -114
q0 -69 38 -109t134 -72q122 -40 169.5 -60t86.5 -47q112 -76 112 -239q0 -158 -99 -249q-95 -87 -274 -87q-185 0 -266 90t-81 295zM146 1550h163l124 -181l128 181h154l-208 -292h-159z" />
    <glyph glyph-name="Tcommaaccent" unicode="&#x162;" vert-adv-y="2457" 
d="M17 1462h914v-156h-365v-1306h-178v1306h-371v156zM567 -132v-142q0 -226 -190 -246v73q92 22 101 134h-101v181h190z" />
    <glyph glyph-name="tcommaaccent" unicode="&#x163;" horiz-adv-x="530" vert-adv-y="2457" 
d="M-1 1100h163v307h170v-307h192v-134h-192v-695q0 -90 22.5 -117.5t96.5 -27.5q33 0 73 7v-138q-59 -10 -115 -10q-174 0 -219 84q-28 51 -28 184v713h-163v134zM399 -88v-142q0 -227 -190 -246v73q91 22 100 134h-100v181h190z" />
    <glyph glyph-name="Tcaron" unicode="&#x164;" vert-adv-y="2457" 
d="M17 1462h914v-156h-365v-1306h-178v1306h-371v156zM389 1594l-223 273h172l131 -154l129 154h181l-219 -273h-171z" />
    <glyph glyph-name="tcaron" unicode="&#x165;" horiz-adv-x="659" vert-adv-y="2457" 
d="M-5 1100h163v307h170v-307h192v-134h-192v-695q0 -90 22.5 -117.5t96.5 -27.5q33 0 73 7v-138q-59 -10 -115 -10q-174 0 -219 84q-28 51 -28 184v713h-163v134zM637 1565v-142q0 -226 -190 -246v73q91 22 100 134h-100v181h190z" />
    <glyph glyph-name="Tbar" unicode="&#x166;" vert-adv-y="2457" 
d="M566 898h288v-156h-288v-742h-178v742h-294v156h294v408h-371v156h914v-156h-365v-408z" />
    <glyph glyph-name="tbar" unicode="&#x167;" horiz-adv-x="530" vert-adv-y="2457" 
d="M326 790h156v-134h-156v-385q0 -90 22.5 -117.5t96.5 -27.5q33 0 73 7v-138q-59 -10 -115 -10q-174 0 -219 84q-28 51 -28 184v403h-142v134h142v176h-163v134h163v307h170v-307h192v-134h-192v-176z" />
    <glyph glyph-name="Utilde" unicode="&#x168;" horiz-adv-x="1063" vert-adv-y="2457" 
d="M104 1462h178v-984q0 -160 25 -224q55 -138 220 -138q184 0 235 162q20 63 20 195v989h178v-986q0 -190 -46 -288q-104 -217 -396 -217q-217 0 -324 135q-90 113 -90 318v62v976zM214 1616q14 110 67 169.5t137 59.5q38 0 64 -7.5t107 -40.5q44 -18 72 -18q30 0 46 19
t27 66h115q-5 -99 -59 -164t-131 -65q-32 0 -55 6.5t-112 40.5q-53 21 -78 21q-31 0 -55.5 -24.5t-31.5 -62.5h-113z" />
    <glyph glyph-name="utilde" unicode="&#x169;" vert-adv-y="2457" 
d="M110 1100h170v-756q0 -99 21 -146q35 -82 141 -82q63 0 117.5 32.5t82.5 87.5q14 27 17 48.5t3 93.5v722h170v-1100h-159v39q0 32 4 93q-112 -157 -286 -157q-142 0 -211.5 85t-69.5 260v42v738zM178 1284q14 107 62 166t123 59q36 0 60 -8t100 -44q42 -20 68 -20
q53 0 68 86h104q-5 -96 -54 -160t-119 -64q-31 0 -52.5 7t-102.5 43q-50 23 -75 23q-28 0 -51 -25t-29 -63h-102z" />
    <glyph glyph-name="Umacron" unicode="&#x16a;" horiz-adv-x="1063" vert-adv-y="2457" 
d="M104 1462h178v-984q0 -160 25 -224q55 -138 220 -138q184 0 235 162q20 63 20 195v989h178v-986q0 -190 -46 -288q-104 -217 -396 -217q-217 0 -324 135q-90 113 -90 318v62v976zM210 1794h643v-127h-643v127z" />
    <glyph glyph-name="umacron" unicode="&#x16b;" vert-adv-y="2457" 
d="M110 1100h170v-756q0 -99 21 -146q35 -82 141 -82q63 0 117.5 32.5t82.5 87.5q14 27 17 48.5t3 93.5v722h170v-1100h-159v39q0 32 4 93q-112 -157 -286 -157q-142 0 -211.5 85t-69.5 260v42v738zM202 1462h545v-106h-545v106z" />
    <glyph glyph-name="Ubreve" unicode="&#x16c;" horiz-adv-x="1063" vert-adv-y="2457" 
d="M104 1462h178v-984q0 -160 25 -224q55 -138 220 -138q184 0 235 162q20 63 20 195v989h178v-986q0 -190 -46 -288q-104 -217 -396 -217q-217 0 -324 135q-90 113 -90 318v62v976zM244 1857h118q23 -75 67 -104q42 -28 102 -28q70 0 114.5 34.5t55.5 97.5h119
q-4 -93 -56 -162q-78 -105 -233 -105q-126 0 -203 71.5t-84 195.5z" />
    <glyph glyph-name="ubreve" unicode="&#x16d;" vert-adv-y="2457" 
d="M110 1100h170v-756q0 -99 21 -146q35 -82 141 -82q63 0 117.5 32.5t82.5 87.5q14 27 17 48.5t3 93.5v722h170v-1100h-159v39q0 32 4 93q-112 -157 -286 -157q-142 0 -211.5 85t-69.5 260v42v738zM210 1538h109q27 -139 154 -139q64 0 105.5 37t50.5 102h110
q-4 -94 -51 -163q-71 -106 -215 -106q-148 0 -220 118q-39 64 -43 151z" />
    <glyph glyph-name="Uring" unicode="&#x16e;" horiz-adv-x="1063" vert-adv-y="2457" 
d="M104 1462h178v-984q0 -160 25 -224q55 -138 220 -138q184 0 235 162q20 63 20 195v989h178v-986q0 -190 -46 -288q-104 -217 -396 -217q-217 0 -324 135q-90 113 -90 318v62v976zM535 1971q90 0 153 -70q54 -59 54 -140q0 -95 -70 -157q-60 -54 -140 -54q-94 0 -157 70
q-54 60 -54 142q0 91 70 155q59 54 144 54zM529 1880q-46 0 -79.5 -35.5t-33.5 -83.5q0 -50 33.5 -85t81.5 -35t82 35t34 86q0 49 -34.5 83.5t-83.5 34.5z" />
    <glyph glyph-name="uring" unicode="&#x16f;" vert-adv-y="2457" 
d="M110 1100h170v-756q0 -99 21 -146q35 -82 141 -82q63 0 117.5 32.5t82.5 87.5q14 27 17 48.5t3 93.5v722h170v-1100h-159v39q0 32 4 93q-112 -157 -286 -157q-142 0 -211.5 85t-69.5 260v42v738zM478 1638q85 0 145 -66q51 -56 51 -133q0 -89 -66 -148q-56 -51 -133 -51
q-89 0 -148 66q-51 56 -51 135q0 86 66 146q56 51 136 51zM472 1553q-44 0 -75.5 -33.5t-31.5 -80.5t32 -80.5t77 -33.5q46 0 78.5 33.5t32.5 81.5q0 47 -33 80t-80 33z" />
    <glyph glyph-name="Uhungarumlaut" unicode="&#x170;" horiz-adv-x="1063" vert-adv-y="2457" 
d="M104 1462h178v-984q0 -160 25 -224q55 -138 220 -138q184 0 235 162q20 63 20 195v989h178v-986q0 -190 -46 -288q-104 -217 -396 -217q-217 0 -324 135q-90 113 -90 318v62v976zM397 1853h204l-165 -259h-119zM689 1853h204l-164 -259h-120z" />
    <glyph glyph-name="uhungarumlaut" unicode="&#x171;" vert-adv-y="2457" 
d="M110 1100h170v-756q0 -99 21 -146q35 -82 141 -82q63 0 117.5 32.5t82.5 87.5q14 27 17 48.5t3 93.5v722h170v-1100h-159v39q0 32 4 93q-112 -157 -286 -157q-142 0 -211.5 85t-69.5 260v42v738zM341 1537h189l-148 -294h-110zM604 1537h189l-148 -294h-110z" />
    <glyph glyph-name="Uogonek" unicode="&#x172;" horiz-adv-x="1063" vert-adv-y="2457" 
d="M806 -268v-95q-63 -22 -115 -22q-105 0 -162 55q-52 50 -52 124q0 94 91 179q-36 -2 -59 -2q-207 0 -315 135q-90 113 -90 318v62v976h178v-984q0 -160 25 -224q55 -138 220 -138q184 0 235 162q20 63 20 195v989h178v-986q0 -189 -46 -287q-52 -109 -165 -172
q-78 -43 -106 -81q-42 -55 -42 -108q0 -48 35 -78t91 -30q29 0 79 12z" />
    <glyph glyph-name="uogonek" unicode="&#x173;" vert-adv-y="2457" 
d="M110 1100h170v-756q0 -99 20 -146q36 -82 142 -82q63 0 117 32.5t82 87.5q14 27 17 48.5t3 93.5v722h170v-1100q-110 -91 -110 -176q0 -46 35.5 -75t90.5 -29q29 0 79 12v-95q-62 -22 -114 -22q-105 0 -162 55q-52 50 -52 125q0 103 124 205h-50v39q0 35 4 93
q-109 -157 -285 -157q-226 0 -269 211q-12 60 -12 176v738z" />
    <glyph glyph-name="Wcircumflex" unicode="&#x174;" horiz-adv-x="1479" vert-adv-y="2457" 
d="M13 1462h183l161 -856q52 -274 60 -444h9q6 161 59 460l149 840h213l156 -873q47 -267 54 -427h9q4 131 64 456l156 844h179l-296 -1462h-221l-160 897q-36 201 -46 385h-9q-5 -165 -43 -377l-162 -905h-220zM657 1867h170l219 -273h-181l-129 154l-131 -154h-172z" />
    <glyph glyph-name="wcircumflex" unicode="&#x175;" horiz-adv-x="1327" vert-adv-y="2457" 
d="M25 1100h179l113 -566q39 -198 48 -253.5t14 -125.5h8q5 65 10.5 97t47.5 254l8 41l114 553h202l134 -640q39 -189 46 -305h8q8 87 44 289l6 36l118 620h178l-255 -1100h-188l-132 578q-49 214 -58 368h-9q-10 -129 -53 -332l-127 -614h-200zM587 1551h159l203 -293h-163
l-125 181l-128 -181h-154z" />
    <glyph glyph-name="Ycircumflex" unicode="&#x176;" horiz-adv-x="946" vert-adv-y="2457" 
d="M-5 1462h199l219 -539q41 -101 60 -187q12 45 53 156l10 28l225 542h189l-391 -888v-574h-178v574zM391 1867h170l219 -273h-181l-129 154l-131 -154h-172z" />
    <glyph glyph-name="ycircumflex" unicode="&#x177;" horiz-adv-x="831" vert-adv-y="2457" 
d="M22 1100h185l174 -680q31 -122 46 -254h9q11 134 39 258l153 676h182l-267 -1009q-48 -180 -87 -284q-34 -92 -99.5 -135t-170.5 -43q-38 0 -109 3v142q14 0 22 -1q49 -3 75 -3q52 0 84.5 25t55.5 83q25 65 28 102zM348 1551h159l203 -293h-163l-125 181l-128 -181h-154z
" />
    <glyph glyph-name="Zacute" unicode="&#x179;" vert-adv-y="2457" 
d="M79 1462h813v-164l-591 -1030q-3 -4 -10 -16q-32 -57 -64 -102q48 6 157 6h519v-156h-865v152l597 1041q32 61 73 116q-31 -3 -107 -3h-522v156zM529 1853h219l-238 -259h-134z" />
    <glyph glyph-name="zacute" unicode="&#x17a;" horiz-adv-x="797" vert-adv-y="2457" 
d="M82 1100h667v-140l-393 -647q-51 -86 -112 -172q38 3 192 5h23h285v-146h-689v134l389 639q22 36 57 90q8 11 66 101q-44 -3 -133 -3l-158 -2h-194v141zM483 1537h205l-221 -294h-126z" />
    <glyph glyph-name="Zdotaccent" unicode="&#x17b;" vert-adv-y="2457" 
d="M79 1462h813v-164l-591 -1030q-3 -4 -10 -16q-32 -57 -64 -102q48 6 157 6h519v-156h-865v152l597 1041q32 61 73 116q-31 -3 -107 -3h-522v156zM387 1843h174v-212h-174v212z" />
    <glyph glyph-name="zdotaccent" unicode="&#x17c;" horiz-adv-x="797" vert-adv-y="2457" 
d="M82 1100h667v-140l-393 -647q-51 -86 -112 -172q38 3 192 5h23h285v-146h-689v134l389 639q22 36 57 90q8 11 66 101q-44 -3 -133 -3l-158 -2h-194v141zM345 1511h165v-203h-165v203z" />
    <glyph glyph-name="Zcaron" unicode="&#x17d;" vert-adv-y="2457" 
d="M79 1462h813v-164l-591 -1030q-3 -4 -10 -16q-32 -57 -64 -102q48 6 157 6h519v-156h-865v152l597 1041q32 61 73 116q-31 -3 -107 -3h-522v156zM391 1594l-223 273h172l131 -154l129 154h181l-219 -273h-171z" />
    <glyph glyph-name="zcaron" unicode="&#x17e;" horiz-adv-x="797" vert-adv-y="2457" 
d="M82 1100h667v-140l-393 -647q-51 -86 -112 -172q38 3 192 5h23h285v-146h-689v134l389 639q22 36 57 90q8 11 66 101q-44 -3 -133 -3l-158 -2h-194v141zM125 1550h163l124 -181l128 181h154l-208 -292h-159z" />
    <glyph glyph-name="longs" unicode="&#x17f;" horiz-adv-x="517" vert-adv-y="2457" 
d="M-11 1100h162q0 164 7 203q17 90 80.5 130t191.5 40q33 0 79 -2v-141h-14h-21q-112 0 -132.5 -31t-20.5 -199v-1100h-170v966h-162v134z" />
    <glyph glyph-name="uni018F" unicode="&#x18f;" horiz-adv-x="1209" vert-adv-y="2457" 
d="M957 767q-12 234 -78 373q-99 208 -273 208q-191 0 -289 -250q-25 -63 -39 -139l-1 -4h-181q11 65 30 126q129 420 479 420q302 0 444 -322q86 -196 86 -450q0 -355 -163 -583q-133 -185 -368 -185t-367 185q-163 229 -163 576q0 15 1 45h882zM262 587q21 -162 68 -263
q100 -211 274 -211q135 0 224.5 123t119.5 351h-686z" />
    <glyph glyph-name="Ohorn" unicode="&#x1a0;" horiz-adv-x="1105" vert-adv-y="2457" 
d="M969 1190q61 18 82 50t21 110h-115v196h205v-157q0 -88 -11.5 -134t-42.5 -79q-40 -44 -119 -58q33 -133 33 -353q0 -326 -66 -516q-44 -129 -148 -204q-101 -74 -264 -74q-299 0 -397 281q-64 185 -64 489q0 331 85 514q110 237 392 237q158 0 257.5 -73.5t151.5 -228.5
zM552 1347q-153 0 -218 -136q-69 -145 -69 -473q0 -292 52 -442q61 -180 231 -180q183 0 244 193q48 152 48 417q0 342 -65 481.5t-223 139.5z" />
    <glyph glyph-name="ohorn" unicode="&#x1a1;" horiz-adv-x="929" vert-adv-y="2457" 
d="M805 904q72 24 84 129h-101v181h190v-142q0 -205 -152 -241q27 -116 27 -280q0 -284 -84 -420q-51 -83 -125 -119q-76 -37 -194 -37q-128 0 -206 54q-168 118 -168 521q0 297 96 433q99 141 302 141q252 0 331 -220zM467 994q-120 0 -173 -120q-43 -98 -43 -329
q0 -235 47 -332q52 -107 166 -107q113 0 163.5 106.5t50.5 345.5q0 238 -48 337t-163 99z" />
    <glyph glyph-name="Uhorn" unicode="&#x1af;" horiz-adv-x="1085" vert-adv-y="2457" 
d="M115 1462h178v-984q0 -160 25 -224q55 -138 220 -138q184 0 235 162q20 63 20 195v989h178v-986q0 -190 -46 -288q-104 -217 -396 -217q-217 0 -324 135q-90 113 -90 318v62v976zM1260 1550v-157q0 -89 -11.5 -134.5t-42.5 -79.5q-45 -49 -151 -62v74q74 19 93 53
q22 37 22 110h-115v196h205z" />
    <glyph glyph-name="uhorn" unicode="&#x1b0;" horiz-adv-x="944" vert-adv-y="2457" 
d="M108 1100h170v-756q0 -99 21 -146q35 -82 141 -82q63 0 117.5 32.5t82.5 87.5q14 27 17 48.5t3 93.5v722h170v-1100h-159v39q0 32 4 93q-112 -157 -286 -157q-142 0 -211.5 85t-69.5 260v42v738zM1107 1194v-142q0 -226 -190 -247v74q91 22 101 134h-101v181h190z" />
    <glyph glyph-name="uni01C4" unicode="&#x1c4;" horiz-adv-x="2674" vert-adv-y="2457" 
d="M179 0v1462h563q260 0 417 -174q179 -199 179 -557q0 -359 -179 -557q-157 -174 -417 -174h-563zM365 165h344q218 0 332 147q111 143 111 419t-111 419q-114 147 -332 147h-344v-1132zM2614 1462v-169l-874 -1128h878v-165h-1113v165l878 1132h-822v165h1053zM2216 1585
h-189l-194 301h127l162 -192l158 192h129z" />
    <glyph glyph-name="uni01C5" unicode="&#x1c5;" horiz-adv-x="2451" vert-adv-y="2457" 
d="M178 0v1462h563q260 0 417 -174q179 -199 179 -557q0 -359 -179 -557q-157 -174 -417 -174h-563zM364 165h344q218 0 332 147q111 143 111 419t-111 419q-114 147 -332 147h-344v-1132zM2336 1051v-149l-624 -755h652v-147h-854v151l627 753h-585v147h784zM2060 1185
h-190l-193 301h127l161 -192l159 192h128z" />
    <glyph glyph-name="uni01C6" unicode="&#x1c6;" horiz-adv-x="2118" vert-adv-y="2457" 
d="M1701 1185h-190l-193 301h127l161 -192l159 192h129zM2004 1051v-149l-625 -755h653v-147h-855v151l628 753h-586v147h785zM994 1462v-1462h-149v146q-69 -90 -145.5 -129.5t-183.5 -39.5q-138 0 -248 67q-216 133 -216 486q0 264 138 411q124 132 316 132
q212 0 321 -159v548h167zM529 916q-67 0 -128 -32t-99 -88q-76 -110 -76 -277q0 -165 77 -269q87 -116 234 -116q145 0 220 116q70 107 70 267q0 169 -71 279q-78 120 -227 120z" />
    <glyph glyph-name="uni01C7" unicode="&#x1c7;" horiz-adv-x="2118" vert-adv-y="2457" 
d="M347 1462v-1298h722v-164h-908v1462h186zM1785 1462h186v-1075q0 -185 -110 -296q-112 -114 -306 -114q-183 0 -293 105q-110 106 -110 282v105h190v-71q0 -122 50 -187q59 -77 168 -77q121 0 179 90q46 70 46 231v1007z" />
    <glyph glyph-name="uni01C8" unicode="&#x1c8;" horiz-adv-x="1561" vert-adv-y="2457" 
d="M346 1462v-1298h722v-164h-908v1462h186zM1255 1051h167v-1271q0 -217 -288 -217q-31 0 -55 4v143h17h19q80 0 110 29.5t30 107.5v1204zM1422 1462v-211h-167v211h167z" />
    <glyph glyph-name="uni01C9" unicode="&#x1c9;" horiz-adv-x="891" vert-adv-y="2457" 
d="M304 1462v-1462h-168v1462h168zM586 1051h166v-1271q0 -217 -288 -217q-31 0 -55 4v143h37q80 0 110 29.5t30 107.5v1204zM752 1462v-211h-166v211h166z" />
    <glyph glyph-name="uni01CA" unicode="&#x1ca;" horiz-adv-x="2451" vert-adv-y="2457" 
d="M1296 1462v-1462h-210l-757 1186v-1186h-176v1462h203l764 -1194v1194h176zM2118 1462h186v-1075q0 -185 -110 -296q-112 -114 -306 -114q-183 0 -293 105q-110 106 -110 282v105h190v-71q0 -123 50 -187q59 -77 168 -77q121 0 179 90q46 70 46 231v1007z" />
    <glyph glyph-name="uni01CB" unicode="&#x1cb;" horiz-adv-x="1894" vert-adv-y="2457" 
d="M1296 1462v-1462h-210l-757 1186v-1186h-176v1462h203l764 -1194v1194h176zM1589 1051h166v-1271q0 -217 -287 -217q-31 0 -55 4v143h37q79 0 109 29.5t30 107.5v1204zM1755 1462v-211h-166v211h166z" />
    <glyph glyph-name="uni01CC" unicode="&#x1cc;" horiz-adv-x="1561" vert-adv-y="2457" 
d="M1255 1051h167v-1271q0 -217 -288 -217q-30 0 -55 4v143h37q79 0 109 29.5t30 107.5v1204zM1422 1462v-211h-167v211h167zM140 1051h154v-179q69 107 150.5 154t198.5 47q136 0 226 -63q107 -75 107 -219v-791h-166v724q0 104 -69 156q-60 46 -147 46q-119 0 -199 -84
q-87 -93 -87 -267v-575h-168v1051z" />
    <glyph glyph-name="uni01CD" unicode="&#x1cd;" horiz-adv-x="1081" vert-adv-y="2457" 
d="M431 1462h237l404 -1462h-191l-105 401h-470l-110 -401h-187zM548 1348q-13 -96 -75 -321l-130 -478h397l-121 473q-51 196 -71 326zM457 1594l-223 273h172l131 -154l129 154h181l-219 -273h-171z" />
    <glyph glyph-name="uni01CE" unicode="&#x1ce;" horiz-adv-x="903" vert-adv-y="2457" 
d="M89 767q-1 93 11.5 144.5t45.5 93.5q92 119 297 119q242 0 311 -148q27 -56 27 -212v-527q0 -72 13.5 -96.5t51.5 -24.5q16 0 34 8v-122q-42 -17 -92 -17q-155 0 -165 144q-95 -155 -282 -155q-137 0 -208 78q-75 82 -75 231q0 159 85 240q34 32 81.5 53t161.5 53
q114 33 152.5 49t55.5 37q21 28 21 98q0 72 -23 111q-40 69 -153 69q-110 0 -156 -67q-33 -48 -33 -159h-161zM619 601q-24 -26 -58.5 -41.5t-153.5 -52.5q-124 -39 -155 -106q-20 -43 -20 -109q0 -86 39 -131q41 -48 118 -48q52 0 101 25t81 67q26 34 35 72t9 113v85
q1 107 4 126zM157 1550h163l124 -181l128 181h154l-208 -292h-159z" />
    <glyph glyph-name="uni01CF" unicode="&#x1cf;" horiz-adv-x="434" vert-adv-y="2457" 
d="M128 1462h178v-1462h-178v1462zM134 1594l-223 273h172l131 -154l129 154h181l-219 -273h-171z" />
    <glyph glyph-name="uni01D0" unicode="&#x1d0;" horiz-adv-x="400" vert-adv-y="2457" 
d="M115 1100h170v-1100h-170v1100zM-84 1550h163l124 -181l128 181h154l-208 -292h-159z" />
    <glyph glyph-name="uni01D1" unicode="&#x1d1;" horiz-adv-x="1105" vert-adv-y="2457" 
d="M566 1491q236 0 346 -175.5t110 -552.5q0 -325 -66 -514q-45 -129 -148 -204q-100 -74 -263 -74q-300 0 -398 280q-64 186 -64 490q0 390 116 570t367 180zM552 1346q-153 0 -218 -135q-69 -145 -69 -474q0 -292 52 -442q61 -179 231 -179q183 0 244 193q48 151 48 416
q0 342 -65 481.5t-223 139.5zM469 1594l-223 273h172l131 -154l129 154h181l-219 -273h-171z" />
    <glyph glyph-name="uni01D2" unicode="&#x1d2;" horiz-adv-x="929" vert-adv-y="2457" 
d="M479 1124q195 0 284.5 -137.5t89.5 -436.5q0 -284 -84 -419q-51 -83 -125 -119q-76 -37 -194 -37q-128 0 -206 54q-168 118 -168 522q0 296 96 431q101 142 307 142zM467 993q-120 0 -173 -120q-43 -97 -43 -329q0 -235 47 -331q52 -107 166 -107q113 0 163.5 106
t50.5 345q0 238 -48 337t-163 99zM180 1550h163l124 -181l128 181h154l-208 -292h-159z" />
    <glyph glyph-name="uni01D3" unicode="&#x1d3;" horiz-adv-x="1085" vert-adv-y="2457" 
d="M115 1462h178v-984q0 -160 25 -224q55 -138 220 -138q184 0 235 162q20 63 20 195v989h178v-986q0 -190 -46 -288q-104 -217 -396 -217q-217 0 -324 135q-90 113 -90 318v62v976zM460 1594l-223 273h172l131 -154l129 154h181l-219 -273h-171z" />
    <glyph glyph-name="uni01D4" unicode="&#x1d4;" horiz-adv-x="944" vert-adv-y="2457" 
d="M108 1100h170v-756q0 -99 21 -146q35 -82 141 -82q63 0 117.5 32.5t82.5 87.5q14 27 17 48.5t3 93.5v722h170v-1100h-159v39q0 32 4 93q-112 -157 -286 -157q-142 0 -211.5 85t-69.5 260v42v738zM188 1550h163l124 -181l128 181h154l-208 -292h-159z" />
    <glyph glyph-name="uni01DD" unicode="&#x1dd;" horiz-adv-x="920" vert-adv-y="2457" 
d="M230 729h-158q32 192 129.5 292.5t251.5 100.5q182 0 285 -134q122 -159 122 -433q0 -293 -130 -454q-106 -132 -286 -132q-245 0 -335 272q-25 74 -34 141t-14 210h632q-5 167 -51 252q-65 119 -190 119q-86 0 -148 -65t-74 -169zM693 447h-470q12 -143 55 -215
q61 -101 173 -101q101 0 167.5 87.5t74.5 228.5z" />
    <glyph glyph-name="Gcaron" unicode="&#x1e6;" horiz-adv-x="1106" vert-adv-y="2457" 
d="M536 760h455v-760h-137v105q0 2 -1 17v19q0 6 1 52v4q-85 -226 -328 -226q-134 0 -231 70q-124 88 -169 272q-42 172 -42 415q0 383 98 557q116 206 371 206q199 0 308 -112.5t115 -321.5h-180q-4 103 -39 171q-61 118 -204 118q-158 0 -222.5 -146.5t-64.5 -504.5
q0 -293 69 -443q63 -136 216 -136q113 0 182 83q49 58 69.5 153.5t20.5 259.5h-287v148zM455 1594l-223 273h172l131 -154l129 154h181l-219 -273h-171z" />
    <glyph glyph-name="gcaron" unicode="&#x1e7;" horiz-adv-x="946" vert-adv-y="2457" 
d="M105 -105h164q19 -138 176 -138q126 0 181 79q15 23 26.5 73t11.5 96v82q0 42 7 74q-35 -57 -67 -86q-77 -71 -192 -71q-336 0 -336 547q0 301 89 437q90 137 263 137q172 0 247 -159q-4 44 -4 101v33h160v-943q-1 -156 -8 -218t-30 -118q-84 -195 -352 -195
q-313 0 -336 269zM458 984q-118 0 -166 -113q-41 -97 -41 -310q0 -229 48 -320q50 -96 152 -96q115 0 167 103t52 329q0 213 -50.5 310t-161.5 97zM145 1550h163l124 -181l128 181h154l-208 -292h-159z" />
    <glyph glyph-name="uni01F4" unicode="&#x1f4;" horiz-adv-x="1106" vert-adv-y="2457" 
d="M536 760h455v-760h-137v105q0 2 -1 17v19q0 6 1 52v4q-85 -226 -328 -226q-134 0 -231 70q-124 88 -169 272q-42 172 -42 415q0 383 98 557q116 206 371 206q199 0 308 -112.5t115 -321.5h-180q-4 103 -39 171q-61 118 -204 118q-158 0 -222.5 -146.5t-64.5 -504.5
q0 -293 69 -443q63 -136 216 -136q113 0 182 83q49 58 69.5 153.5t20.5 259.5h-287v148zM583 1853h219l-238 -259h-134z" />
    <glyph glyph-name="uni01F5" unicode="&#x1f5;" horiz-adv-x="946" vert-adv-y="2457" 
d="M105 -105h164q19 -138 176 -138q126 0 181 79q15 23 26.5 73t11.5 96v82q0 42 7 74q-35 -57 -67 -86q-77 -71 -192 -71q-336 0 -336 547q0 301 89 437q90 137 263 137q172 0 247 -159q-4 44 -4 101v33h160v-943q-1 -156 -8 -218t-30 -118q-84 -195 -352 -195
q-313 0 -336 269zM458 984q-118 0 -166 -113q-41 -97 -41 -310q0 -229 48 -320q50 -96 152 -96q115 0 167 103t52 329q0 213 -50.5 310t-161.5 97zM494 1537h205l-221 -294h-126z" />
    <glyph glyph-name="Aringacute" unicode="&#x1fa;" horiz-adv-x="1081" vert-adv-y="2457" 
d="M431 1462h237l404 -1462h-191l-105 401h-470l-110 -401h-187zM548 1348q-13 -96 -75 -321l-130 -478h397l-121 473q-51 196 -71 326zM544 1971q90 0 153 -70q54 -59 54 -140q0 -95 -70 -157q-60 -54 -140 -54q-94 0 -157 70q-54 60 -54 142q0 91 70 155q59 54 144 54z
M538 1880q-46 0 -79.5 -35.5t-33.5 -83.5q0 -50 33.5 -85t81.5 -35t82 35t34 86q0 49 -34.5 83.5t-83.5 34.5zM378 2103h219l-238 -259h-134z" />
    <glyph glyph-name="aringacute" unicode="&#x1fb;" horiz-adv-x="903" vert-adv-y="2457" 
d="M89 767q-1 93 11.5 144.5t45.5 93.5q92 119 297 119q242 0 311 -148q27 -56 27 -212v-527q0 -72 13.5 -96.5t51.5 -24.5q16 0 34 8v-122q-42 -17 -92 -17q-155 0 -165 144q-95 -155 -282 -155q-137 0 -208 78q-75 82 -75 231q0 159 85 240q34 32 81.5 53t161.5 53
q114 33 152.5 49t55.5 37q21 28 21 98q0 72 -23 111q-40 69 -153 69q-110 0 -156 -67q-33 -48 -33 -159h-161zM619 601q-24 -26 -58.5 -41.5t-153.5 -52.5q-124 -39 -155 -106q-20 -43 -20 -109q0 -86 39 -131q41 -48 118 -48q52 0 101 25t81 67q26 34 35 72t9 113v85
q1 107 4 126zM450 1638q85 0 145 -66q51 -56 51 -133q0 -89 -66 -148q-56 -51 -133 -51q-89 0 -148 66q-51 56 -51 135q0 86 66 146q56 51 136 51zM444 1553q-44 0 -75.5 -33.5t-31.5 -80.5t32 -80.5t77 -33.5q46 0 78.5 33.5t32.5 81.5q0 47 -33 80t-80 33zM307 1893h205
l-221 -294h-126z" />
    <glyph glyph-name="AEacute" unicode="&#x1fc;" horiz-adv-x="1472" vert-adv-y="2457" 
d="M533 1462h860v-156h-548v-460h518v-156h-518v-534h566v-156h-744v403h-359l-149 -403h-188zM642 1318l-284 -767h309v767h-25zM879 1853h219l-238 -259h-134z" />
    <glyph glyph-name="aeacute" unicode="&#x1fd;" horiz-adv-x="1384" vert-adv-y="2457" 
d="M251 770h-162v23q0 176 91 254q91 77 246 77q217 0 279 -151q75 152 258 152q219 0 299 -212q46 -121 46 -326q0 -18 -1 -56h-553q0 -182 24 -266q47 -159 171 -159q78 0 130 70.5t56 183.5h164q-8 -114 -48 -199q-87 -186 -302 -186q-136 0 -214 76q-56 55 -77 128
q-45 -105 -118.5 -154.5t-185.5 -49.5q-152 0 -226 85q-70 81 -70 223q0 181 107 258q39 28 109.5 52.5t196.5 54.5q77 18 98.5 48.5t21.5 119.5q0 87 -42.5 132t-124.5 45q-98 0 -143 -68q-30 -46 -30 -155zM594 575q-29 -25 -197 -75q-113 -34 -144 -100q-21 -46 -21 -110
q0 -177 149 -177q114 0 175 93q35 53 35 158v90q1 101 3 121zM757 665h376q-4 116 -14 164q-35 165 -168 165q-94 0 -144 -85t-50 -244zM745 1537h205l-221 -294h-126z" />
    <glyph glyph-name="Oslashacute" unicode="&#x1fe;" horiz-adv-x="1106" vert-adv-y="2457" 
d="M268 -93l-103 45l40 100q13 31 29 60q-66 53 -108 228t-42 399q0 333 88 521q53 113 149.5 172.5t227.5 59.5q145 0 234 -64q5 22 18 54l33 80l105 -44l-46 -115q-11 -26 -24 -45q154 -122 154 -601q0 -328 -65 -507q-47 -128 -147 -203q-101 -76 -250 -76q-74 0 -142 19
t-100 48q-7 -26 -15 -46zM323 302q11 42 33 93l340 836q3 6 7 16q12 24 17 38q-59 62 -168 62q-152 0 -217 -134q-69 -144 -69 -463q0 -268 57 -448zM379 184q75 -68 175 -68q152 0 219.5 144t67.5 471q0 129 -15.5 250t-39.5 188q-10 -29 -26 -70l-349 -851
q-14 -33 -32 -64zM605 1853h219l-238 -259h-134z" />
    <glyph glyph-name="oslashacute" unicode="&#x1ff;" horiz-adv-x="931" vert-adv-y="2457" 
d="M237 -123l-97 41l45 106q11 24 23 41q-28 16 -67 93q-65 129 -65 383q0 310 98 443q103 141 295 141q113 0 170 -35q2 8 14 40l37 89l97 -43l-45 -108q-2 -4 -7 -12q-8 -15 -12 -24q31 -20 65 -83q67 -126 67 -402q0 -283 -86 -418q-98 -154 -305 -154q-128 0 -174 31
q-1 -5 -7 -21l-5 -12zM292 242q4 19 22 63l246 601q2 5 9 20q7 14 13 29q-42 39 -115 39q-119 0 -171 -118q-45 -102 -45 -329q0 -201 41 -305zM346 146q46 -40 119 -40q113 0 164 104t51 337q0 179 -41 319q-8 -31 -18 -55l-252 -619l-8 -15q-11 -24 -15 -31zM506 1537h205
l-221 -294h-126z" />
    <glyph glyph-name="uni0200" unicode="&#x200;" horiz-adv-x="1338" vert-adv-y="2457" 
d="M952 440h-565l-154 -440h-199l522 1462h241l513 -1462h-208zM899 597l-225 664l-240 -664h465zM730 1883l194 -301h-121l-299 301h226zM381 1883l194 -301h-121l-299 301h226z" />
    <glyph glyph-name="uni0201" unicode="&#x201;" horiz-adv-x="1115" vert-adv-y="2457" 
d="M663 1485l193 -302h-121l-298 302h226zM314 1485l193 -302h-121l-298 302h226zM1073 121v-125q-68 -19 -110 -19q-112 0 -150 67q-21 36 -26 87q-89 -82 -173 -118t-185 -36q-163 0 -255 86q-90 83 -90 219q0 146 104 225q49 38 116.5 59t182.5 36l120 15q99 13 136.5 38
t37.5 79v28q0 156 -236 156q-118 0 -177 -44t-68 -139h-168q6 140 68 212q109 126 352 126q195 0 295 -73t100 -214v-586q0 -83 90 -83q16 0 36 4zM781 526q-65 -28 -177 -44l-93 -14q-130 -18 -189 -60q-65 -46 -65 -125q0 -78 54 -119t155 -41q147 0 249 95q66 60 66 135
v173z" />
    <glyph glyph-name="Scommaaccent" unicode="&#x218;" horiz-adv-x="1024" vert-adv-y="2457" 
d="M54 458h183q0 -158 36 -223q66 -119 223 -119q130 0 201.5 67.5t71.5 191.5q0 127 -80 196q-35 30 -73 46t-209 74q-146 49 -224 123q-105 101 -105 275q0 188 111 297q106 105 314 105q260 0 357 -176q50 -89 49 -229h-180q-3 106 -30 159q-50 101 -200 101
q-126 0 -185 -69q-54 -63 -54 -166q0 -144 116 -217q37 -23 73.5 -37.5t197.5 -68.5q169 -56 236 -152q68 -96 68 -241q0 -208 -130 -322q-117 -102 -330 -102q-209 0 -321 105q-64 60 -88 141q-28 94 -28 212v29zM607 -132v-142q0 -226 -190 -246v73q92 22 101 134h-101
v181h190z" />
    <glyph glyph-name="scommaaccent" unicode="&#x219;" horiz-adv-x="834" vert-adv-y="2457" 
d="M50 360h160q0 -136 45.5 -195t151.5 -59q93 0 145.5 47t52.5 132q0 91 -62 139q-29 21 -56.5 33t-164.5 60q-139 48 -195 114q-62 71 -62 192q0 144 91 223q90 78 253 78q173 0 251.5 -82.5t77.5 -263.5h-163q1 86 -17 131q-33 84 -151 84q-83 0 -130 -41t-47 -114
q0 -69 38 -109t134 -72q122 -40 169.5 -60t86.5 -47q112 -76 112 -239q0 -158 -99 -249q-95 -87 -274 -87q-185 0 -266 90t-81 295zM512 -88v-142q0 -227 -190 -246v73q91 22 100 134h-100v181h190z" />
    <glyph glyph-name="uni021A" unicode="&#x21a;" vert-adv-y="2457" 
d="M17 1462h914v-156h-365v-1306h-178v1306h-371v156zM567 -132v-142q0 -226 -190 -246v73q92 22 101 134h-101v181h190z" />
    <glyph glyph-name="uni021B" unicode="&#x21b;" horiz-adv-x="530" vert-adv-y="2457" 
d="M-1 1100h163v307h170v-307h192v-134h-192v-695q0 -90 22.5 -117.5t96.5 -27.5q33 0 73 7v-138q-59 -10 -115 -10q-174 0 -219 84q-28 51 -28 184v713h-163v134zM399 -88v-142q0 -227 -190 -246v73q91 22 100 134h-100v181h190z" />
    <glyph glyph-name="uni0226" unicode="&#x226;" horiz-adv-x="1081" vert-adv-y="2457" 
d="M431 1462h237l404 -1462h-191l-105 401h-470l-110 -401h-187zM548 1348q-13 -96 -75 -321l-130 -478h397l-121 473q-51 196 -71 326zM454 1843h174v-212h-174v212z" />
    <glyph glyph-name="uni0227" unicode="&#x227;" horiz-adv-x="903" vert-adv-y="2457" 
d="M89 767q-1 93 11.5 144.5t45.5 93.5q92 119 297 119q242 0 311 -148q27 -56 27 -212v-527q0 -72 13.5 -96.5t51.5 -24.5q16 0 34 8v-122q-42 -17 -92 -17q-155 0 -165 144q-95 -155 -282 -155q-137 0 -208 78q-75 82 -75 231q0 159 85 240q34 32 81.5 53t161.5 53
q114 33 152.5 49t55.5 37q21 28 21 98q0 72 -23 111q-40 69 -153 69q-110 0 -156 -67q-33 -48 -33 -159h-161zM619 601q-24 -26 -58.5 -41.5t-153.5 -52.5q-124 -39 -155 -106q-20 -43 -20 -109q0 -86 39 -131q41 -48 118 -48q52 0 101 25t81 67q26 34 35 72t9 113v85
q1 107 4 126zM386 1511h165v-203h-165v203z" />
    <glyph glyph-name="dotlessj" unicode="&#x237;" horiz-adv-x="418" vert-adv-y="2457" 
d="M124 1100h170v-1022v-41q-1 -164 -7 -211t-31 -95q-57 -107 -245 -107q-26 0 -61 3v140q24 -1 45 -1q91 0 114 56q11 27 13 54t2 162v40v1022z" />
    <glyph glyph-name="uni0259" unicode="&#x259;" horiz-adv-x="920" vert-adv-y="2457" 
d="M230 729h-158q32 192 129.5 292.5t251.5 100.5q182 0 285 -134q122 -159 122 -433q0 -293 -130 -454q-106 -132 -286 -132q-245 0 -335 272q-25 74 -34 141t-14 210h632q-5 167 -51 252q-65 119 -190 119q-86 0 -148 -65t-74 -169zM693 447h-470q12 -143 55 -215
q61 -101 173 -101q101 0 167.5 87.5t74.5 228.5z" />
    <glyph glyph-name="uni02BB" unicode="&#x2bb;" horiz-adv-x="443" vert-adv-y="2457" 
d="M314 997h-186v202q0 120 48 188t138 75v-76q-100 -14 -96 -180h96v-209z" />
    <glyph glyph-name="afii57929" unicode="&#x2bc;" horiz-adv-x="492" vert-adv-y="2457" 
d="M352 1462v-148q0 -90 -15.5 -145.5t-53.5 -102.5q-51 -62 -142 -85v93q103 35 107 185h-107v203h211z" />
    <glyph glyph-name="uni02C9" unicode="&#x2c9;" horiz-adv-x="418" vert-adv-y="2457" 
d="M-63 1462h545v-106h-545v106z" />
    <glyph glyph-name="uni0309" unicode="&#x309;" horiz-adv-x="1095" vert-adv-y="2457" 
d="M587 1201v-60h-95v118q64 4 92 30.5t28 84.5q0 80 -61 80q-36 0 -42 -39h-93q11 135 145 135q74 0 117 -46.5t43 -128.5q0 -143 -134 -174z" />
    <glyph glyph-name="uni037E" unicode="&#x37e;" horiz-adv-x="492" vert-adv-y="2457" 
d="M150 215h192v-149q0 -108 -9.5 -163.5t-36.5 -101.5q-42 -72 -146 -105v97q54 24 72.5 64.5t19.5 142.5h-92v215zM150 1046h192v-215h-192v215z" />
    <glyph glyph-name="tonos" unicode="&#x384;" horiz-adv-x="420" vert-adv-y="2457" 
d="M129 1205v290h163v-290h-163z" />
    <glyph glyph-name="dieresistonos" unicode="&#x385;" horiz-adv-x="551" vert-adv-y="2457" 
d="M89 1438v-210h-163v210h163zM625 1438v-210h-163v210h163zM194 1205v290h163v-290h-163z" />
    <glyph glyph-name="Alphatonos" unicode="&#x386;" horiz-adv-x="1081" vert-adv-y="2457" 
d="M431 1462h237l404 -1462h-191l-105 401h-470l-110 -401h-187zM548 1348q-13 -96 -75 -321l-130 -478h397l-121 473q-51 196 -71 326zM95 1462h171v-185l-53 -210h-65l-53 210v185z" />
    <glyph glyph-name="uni0387" unicode="&#x387;" horiz-adv-x="492" vert-adv-y="2457" 
d="M150 671h192v-215h-192v215z" />
    <glyph glyph-name="Epsilontonos" unicode="&#x388;" horiz-adv-x="1028" vert-adv-y="2457" 
d="M193 1462h755v-156h-577v-464h544v-156h-544v-530h599v-156h-777v1462zM-39 1462h171v-185l-53 -210h-65l-53 210v185z" />
    <glyph glyph-name="Etatonos" unicode="&#x389;" horiz-adv-x="1170" vert-adv-y="2457" 
d="M374 861h501v601h178v-1462h-178v705h-501v-705h-178v1462h178v-601zM-51 1462h171v-185l-53 -210h-65l-53 210v185z" />
    <glyph glyph-name="Iotatonos" unicode="&#x38a;" horiz-adv-x="495" vert-adv-y="2457" 
d="M200 1462h178v-1462h-178v1462zM-39 1462h171v-185l-53 -210h-65l-53 210v185z" />
    <glyph glyph-name="Omicrontonos" unicode="&#x38c;" horiz-adv-x="1171" vert-adv-y="2457" 
d="M599 1491q236 0 346 -175.5t110 -552.5q0 -325 -66 -514q-46 -129 -148 -204q-100 -74 -263 -74q-300 0 -398 280q-64 186 -64 490q0 390 116 570t367 180zM585 1346q-153 0 -218 -135q-69 -145 -69 -474q0 -292 52 -442q62 -179 231 -179q183 0 244 193q48 152 48 418
q0 340 -65 479.5t-223 139.5zM-51 1462h171v-185l-53 -210h-65l-53 210v185z" />
    <glyph glyph-name="Upsilontonos" unicode="&#x38e;" horiz-adv-x="1100" vert-adv-y="2457" 
d="M140 1462h199l219 -539q39 -97 60 -187q11 42 53 156l10 28l225 542h189l-391 -888v-574h-178v574zM-51 1462h171v-185l-53 -210h-65l-53 210v185z" />
    <glyph glyph-name="Omegatonos" unicode="&#x38f;" horiz-adv-x="1301" vert-adv-y="2457" 
d="M-51 1462h171v-185l-53 -210h-65l-53 210v185zM101 0v158h283q-287 233 -287 636q0 338 211 552q150 152 353 152q204 0 354 -152q211 -214 211 -552q0 -404 -286 -636h282v-158h-463v147q105 80 166 182q118 195 118 437q0 273 -143 448q-101 124 -237 124
q-138 0 -240 -124q-143 -174 -143 -446q0 -406 284 -621v-147h-463z" />
    <glyph glyph-name="iotadieresistonos" unicode="&#x390;" horiz-adv-x="400" vert-adv-y="2457" 
d="M115 1100h170v-1100h-170v1100zM119 1453v-212h-192v212h192zM113 1754h171v-184l-53 -211h-65l-53 211v184zM470 1453v-212h-192v212h192z" />
    <glyph glyph-name="Alpha" unicode="&#x391;" horiz-adv-x="1081" vert-adv-y="2457" 
d="M431 1462h237l404 -1462h-191l-105 401h-470l-110 -401h-187zM548 1348q-13 -96 -75 -321l-130 -478h397l-121 473q-51 196 -71 326z" />
    <glyph glyph-name="Beta" unicode="&#x392;" horiz-adv-x="1073" vert-adv-y="2457" 
d="M128 1462h319q213 0 287 -25q104 -35 161 -135q52 -91 52 -206q0 -121 -55.5 -204t-157.5 -116q88 -20 145 -67q119 -99 119 -291q0 -263 -202 -369q-93 -49 -279 -49h-389v1462zM306 1316v-483h112q119 1 161.5 6t76.5 22q109 57 109 218q0 182 -142 223q-47 14 -214 14
h-103zM306 698v-552h137q175 0 234 26q139 62 139 247q0 203 -161 260q-49 18 -238 19h-111z" />
    <glyph glyph-name="Gamma" unicode="&#x393;" horiz-adv-x="920" vert-adv-y="2457" 
d="M292 0h-173v1462h774v-180h-601v-1282z" />
    <glyph glyph-name="uni0394" unicode="&#x394;" horiz-adv-x="1380" vert-adv-y="2457" 
d="M1226 0h-1072l448 1462h193zM384 180h604l-296 1049z" />
    <glyph glyph-name="Epsilon" unicode="&#x395;" horiz-adv-x="966" vert-adv-y="2457" 
d="M128 1462h755v-156h-577v-464h544v-156h-544v-530h599v-156h-777v1462z" />
    <glyph glyph-name="Zeta" unicode="&#x396;" horiz-adv-x="947" vert-adv-y="2457" 
d="M79 1462h813v-164l-591 -1030q-3 -4 -10 -16q-32 -57 -64 -102q48 6 157 6h519v-156h-865v152l597 1041q32 61 73 116q-31 -3 -107 -3h-522v156z" />
    <glyph glyph-name="Eta" unicode="&#x397;" horiz-adv-x="1113" vert-adv-y="2457" 
d="M306 861h501v601h178v-1462h-178v705h-501v-705h-178v1462h178v-601z" />
    <glyph glyph-name="Theta" unicode="&#x398;" horiz-adv-x="1105" vert-adv-y="2457" 
d="M361 812h383v-180h-383v180zM566 1491q236 0 346 -175.5t110 -552.5q0 -325 -66 -514q-45 -129 -148 -204q-100 -74 -263 -74q-300 0 -398 280q-64 186 -64 490q0 390 116 570t367 180zM552 1346q-153 0 -218 -135q-69 -145 -69 -474q0 -292 52 -442q61 -179 231 -179
q183 0 244 193q48 151 48 416q0 342 -65 481.5t-223 139.5z" />
    <glyph glyph-name="Iota" unicode="&#x399;" horiz-adv-x="434" vert-adv-y="2457" 
d="M128 1462h178v-1462h-178v1462z" />
    <glyph glyph-name="Kappa" unicode="&#x39a;" horiz-adv-x="1065" vert-adv-y="2457" 
d="M128 1462h178v-528q0 -150 -4 -206q64 117 132 210l380 524h199l-440 -610l484 -852h-205l-395 702l-151 -204v-498h-178v1462z" />
    <glyph glyph-name="Lambda" unicode="&#x39b;" horiz-adv-x="1104" vert-adv-y="2457" 
d="M551 1229l-332 -1229h-193l435 1462h182l435 -1462h-191z" />
    <glyph glyph-name="Mu" unicode="&#x39c;" horiz-adv-x="1432" vert-adv-y="2457" 
d="M128 1462h290l150 -569q144 -546 149 -715h8q0 144 104 549l184 735h291v-1462h-171v1024q0 135 13 325h-13q-32 -171 -129 -549l-205 -800h-166l-212 814l-11 48q-50 200 -53.5 215t-57.5 272h-13q13 -206 13 -408v-941h-171v1462z" />
    <glyph glyph-name="Nu" unicode="&#x39d;" horiz-adv-x="1150" vert-adv-y="2457" 
d="M128 1462h231l325 -792q118 -286 177 -535h9q-19 152 -19 393v934h171v-1462h-237l-311 769q-154 369 -187 559h-9q21 -175 21 -409v-919h-171v1462z" />
    <glyph glyph-name="Xi" unicode="&#x39e;" horiz-adv-x="971" vert-adv-y="2457" 
d="M79 180h813v-180h-813v180zM91 1282v180h789v-180h-789zM145 660v180h680v-180h-680z" />
    <glyph glyph-name="Omicron" unicode="&#x39f;" horiz-adv-x="1105" vert-adv-y="2457" 
d="M566 1491q236 0 346 -175.5t110 -552.5q0 -325 -66 -514q-45 -129 -148 -204q-100 -74 -263 -74q-300 0 -398 280q-64 186 -64 490q0 390 116 570t367 180zM552 1346q-153 0 -218 -135q-69 -145 -69 -474q0 -292 52 -442q61 -179 231 -179q183 0 244 193q48 151 48 416
q0 342 -65 481.5t-223 139.5z" />
    <glyph glyph-name="Pi" unicode="&#x3a0;" horiz-adv-x="1113" vert-adv-y="2457" 
d="M821 1282h-527v-1282h-173v1462h873v-1462h-173v1282z" />
    <glyph glyph-name="Rho" unicode="&#x3a1;" horiz-adv-x="996" vert-adv-y="2457" 
d="M128 1462h363q187 0 279 -52q90 -51 135 -152q42 -93 42 -215q0 -164 -74 -271q-62 -89 -151.5 -121.5t-270.5 -32.5h-145v-618h-178v1462zM306 1316v-552h159q142 0 199 40q101 72 101 238q0 175 -115 241q-57 33 -209 33h-135z" />
    <glyph glyph-name="Sigma" unicode="&#x3a3;" horiz-adv-x="947" vert-adv-y="2457" 
d="M475 733l-386 554v175h826v-180h-606l379 -550l-437 -552h664v-180h-880v169z" />
    <glyph glyph-name="Tau" unicode="&#x3a4;" horiz-adv-x="952" vert-adv-y="2457" 
d="M19 1462h914v-156h-365v-1306h-178v1306h-371v156z" />
    <glyph glyph-name="Upsilon" unicode="&#x3a5;" horiz-adv-x="968" vert-adv-y="2457" 
d="M6 1462h199l219 -539q41 -101 60 -187q12 45 53 156l10 28l225 542h189l-391 -888v-574h-178v574z" />
    <glyph glyph-name="Phi" unicode="&#x3a6;" horiz-adv-x="1388" vert-adv-y="2457" 
d="M776 1456q171 -22 292 -114q114 -87 180 -230q81 -173 81 -380q0 -274 -132 -472q-74 -112 -174 -172t-247 -80v-130h-164v130q-172 22 -292 113q-113 87 -180 231q-81 173 -81 380q0 273 132 471q74 112 174.5 172t246.5 81v128h164v-128zM776 176q99 19 178 78
q89 64 139 168q66 136 66 310q0 224 -101 370.5t-282 184.5v-1111zM612 1287q-99 -19 -178 -77q-88 -65 -138 -169q-66 -135 -66 -309q0 -224 102 -372.5t280 -183.5v1111z" />
    <glyph glyph-name="Chi" unicode="&#x3a7;" horiz-adv-x="998" vert-adv-y="2457" 
d="M37 1462h199l190 -392q58 -119 80 -186q18 73 77 192l192 386h191l-366 -718l390 -744h-200l-239 474l-9 22q-39 86 -46 120q-13 -61 -57 -149l-238 -467h-192l391 744z" />
    <glyph glyph-name="Psi" unicode="&#x3a8;" horiz-adv-x="1364" vert-adv-y="2457" 
d="M767 507q308 27 298 400v555h173v-596q0 -203 -75 -318q-129 -197 -396 -208v-340h-171v340q-184 8 -302 104q-88 71 -128 168q-41 98 -41 254v596h173v-555q-10 -373 298 -400v955h171v-955z" />
    <glyph glyph-name="uni03A9" unicode="&#x3a9;" horiz-adv-x="1532" vert-adv-y="2457" 
d="M205 0v158h283q-286 232 -286 636q0 338 211 552q150 152 353 152t353 -152q211 -214 211 -552q0 -403 -285 -636h282v-158h-463v147q103 79 165 182q118 194 118 437q0 274 -143 448q-101 124 -236 124q-136 0 -239 -124q-144 -174 -144 -446q0 -405 284 -621v-147h-464
z" />
    <glyph glyph-name="Iotadieresis" unicode="&#x3aa;" horiz-adv-x="434" vert-adv-y="2457" 
d="M128 1462h178v-1462h-178v1462zM-8 1843h174v-212h-174v212zM268 1843h174v-212h-174v212z" />
    <glyph glyph-name="Upsilondieresis" unicode="&#x3ab;" horiz-adv-x="968" vert-adv-y="2457" 
d="M6 1462h199l219 -539q41 -101 60 -187q12 45 53 156l10 28l225 542h189l-391 -888v-574h-178v574zM223 1843h174v-212h-174v212zM571 1843h174v-212h-174v212z" />
    <glyph glyph-name="alphatonos" unicode="&#x3ac;" horiz-adv-x="1074" vert-adv-y="2457" 
d="M1013 1100l-141 -539l182 -561h-172l-96 323q-42 -104 -88 -178q-102 -167 -261 -167q-177 0 -287 171q-45 70 -71 178t-26 226q0 314 162 479q95 98 230 98q214 0 341 -310l61 280h166zM703 569q-29 162 -114 302q-61 99 -137 99q-77 0 -133 -64q-100 -114 -100 -348
q0 -270 125 -383q48 -43 102 -43q86 0 150 131q37 76 107 306zM456 1237v290h163v-290h-163z" />
    <glyph glyph-name="epsilontonos" unicode="&#x3ad;" horiz-adv-x="786" vert-adv-y="2457" 
d="M754 705h-152q-12 82 -30 127q-51 127 -174 127q-75 0 -119 -48q-46 -50 -46 -119q0 -63 37 -104.5t103 -52.5q24 -4 78 -8v-146h-18h-32q-100 0 -139 -35q-53 -47 -53 -132q0 -95 65 -145q52 -40 120 -40q160 0 208 250h152q-16 -119 -44 -189q-93 -221 -325 -221
q-155 0 -250 94q-94 92 -94 227q0 95 43 165t121 103q-136 89 -136 250q0 148 107 238q88 75 229 75q162 0 243 -102q49 -60 72 -129t34 -185zM311 1220v290h163v-290h-163z" />
    <glyph glyph-name="etatonos" unicode="&#x3ae;" horiz-adv-x="920" vert-adv-y="2457" 
d="M250 963q100 167 272 167q141 0 219 -97.5t78 -273.5v-1180h-157v1111q0 161 -50 225q-43 53 -122 53q-95 0 -156 -76q-76 -96 -76 -277v-615h-157v1100h149v-137zM379 1239v290h163v-290h-163z" />
    <glyph glyph-name="iotatonos" unicode="&#x3af;" horiz-adv-x="400" vert-adv-y="2457" 
d="M115 1100h170v-1100h-170v1100zM113 1588h171v-184l-53 -211h-65l-53 211v184z" />
    <glyph glyph-name="upsilondieresistonos" unicode="&#x3b0;" horiz-adv-x="922" vert-adv-y="2457" 
d="M658 1100h157v-800q0 -150 -77 -237q-85 -95 -277 -95q-193 0 -277 95q-77 87 -77 237v800h157v-741q0 -230 197 -230t197 230v741zM275 1472v-210h-163v210h163zM811 1472v-210h-163v210h163zM380 1239v290h163v-290h-163z" />
    <glyph glyph-name="alpha" unicode="&#x3b1;" horiz-adv-x="1074" vert-adv-y="2457" 
d="M1013 1100l-141 -539l182 -561h-172l-96 323q-42 -104 -88 -178q-102 -167 -261 -167q-177 0 -287 171q-45 70 -71 178t-26 226q0 314 162 479q95 98 230 98q214 0 341 -310l61 280h166zM703 569q-29 162 -114 302q-61 99 -137 99q-77 0 -133 -64q-100 -114 -100 -348
q0 -270 125 -383q48 -43 102 -43q86 0 150 131q37 76 107 306z" />
    <glyph glyph-name="beta" unicode="&#x3b2;" horiz-adv-x="920" vert-adv-y="2457" 
d="M669 827q41 -21 62 -37q130 -102 130 -338q0 -206 -87 -338q-95 -145 -270 -145q-179 0 -256 129v-519h-157v1447q0 129 17.5 205t60.5 132q94 124 292 124q181 0 274 -108q81 -93 81 -247q0 -77 -19.5 -145.5t-52.5 -106.5q-24 -27 -75 -53zM393 739v161q79 0 105.5 4
t55.5 20q94 53 94 193q0 95 -51.5 150.5t-140.5 55.5q-123 0 -175 -105q-33 -69 -33 -242v-475q0 -114 15.5 -178t54.5 -113q64 -81 162 -81q91 0 146 64q72 83 72 258q0 150 -63 219t-199 69h-43z" />
    <glyph glyph-name="gamma" unicode="&#x3b3;" horiz-adv-x="828" vert-adv-y="2457" 
d="M413 221l226 879h176l-323 -1134v-387h-157v387l-323 1134h176z" />
    <glyph glyph-name="delta" unicode="&#x3b4;" horiz-adv-x="920" vert-adv-y="2457" 
d="M390 1311l260 -290q103 -116 150 -207q68 -134 68 -306q0 -256 -132 -412q-104 -124 -276 -124q-225 0 -336 215q-71 137 -71 317q0 223 101 364t275 160l-255 286v148h610v-151h-394zM458 877q-124 0 -190 -128q-52 -101 -52 -245q0 -161 63 -265q66 -108 182 -108
q126 0 192 128q52 101 52 245q0 162 -63 265q-66 108 -184 108z" />
    <glyph glyph-name="epsilon" unicode="&#x3b5;" horiz-adv-x="787" vert-adv-y="2457" 
d="M754 705h-152q-12 82 -30 127q-51 127 -174 127q-75 0 -119 -48q-46 -50 -46 -119q0 -63 37 -104.5t103 -52.5q24 -4 78 -8v-146h-18h-32q-100 0 -139 -35q-53 -47 -53 -132q0 -95 65 -145q52 -40 120 -40q160 0 208 250h152q-16 -119 -44 -189q-93 -221 -325 -221
q-155 0 -250 94q-94 92 -94 227q0 95 43 165t121 103q-136 89 -136 250q0 148 107 238q88 75 229 75q162 0 243 -102q49 -60 72 -129t34 -185z" />
    <glyph glyph-name="zeta" unicode="&#x3b6;" horiz-adv-x="721" vert-adv-y="2457" 
d="M585 -325l-120 99q66 57 66 105q0 51 -141 86q-138 34 -216 105q-59 55 -92 150t-33 214q0 243 142 466q71 112 334 411h-449v151h651v-134q-123 -142 -253 -304q-172 -213 -216 -346q-40 -118 -40 -229q0 -151 67 -248q24 -36 57.5 -53t153.5 -55q130 -40 167 -88
q37 -47 37 -117q0 -56 -22 -97t-93 -116z" />
    <glyph glyph-name="eta" unicode="&#x3b7;" horiz-adv-x="920" vert-adv-y="2457" 
d="M250 963q100 167 272 167q141 0 219 -97.5t78 -273.5v-1180h-157v1111q0 161 -50 225q-43 53 -122 53q-95 0 -156 -76q-76 -96 -76 -277v-615h-157v1100h149v-137z" />
    <glyph glyph-name="theta" unicode="&#x3b8;" horiz-adv-x="920" vert-adv-y="2457" 
d="M466 1483q115 0 207 -93q88 -88 140 -261q55 -180 55 -402q0 -353 -131 -579q-102 -176 -277 -176q-225 0 -337 308q-70 192 -70 445q0 361 131 582q104 176 282 176zM703 799q-6 134 -32 250q-32 145 -92 214q-53 60 -117 60q-104 0 -168.5 -139t-75.5 -385h485z
M703 648h-485q9 -147 31 -246q62 -274 213 -274q101 0 165.5 139t75.5 381z" />
    <glyph glyph-name="iota" unicode="&#x3b9;" horiz-adv-x="400" vert-adv-y="2457" 
d="M115 1100h170v-1100h-170v1100z" />
    <glyph glyph-name="kappa" unicode="&#x3ba;" horiz-adv-x="827" vert-adv-y="2457" 
d="M477 624l326 -624h-198l-240 480l-107 -139v-341h-153v1100h153v-528l362 528h197z" />
    <glyph glyph-name="lambda" unicode="&#x3bb;" horiz-adv-x="827" vert-adv-y="2457" 
d="M414 740l-225 -740h-177l324 991l-162 471h172l470 -1462h-173z" />
    <glyph glyph-name="uni03BC" unicode="&#x3bc;" vert-adv-y="2457" 
d="M284 1100v-704q0 -103 3 -134.5t17 -63.5q36 -82 142 -82q63 0 117 32.5t82 87.5q14 27 17 48.5t3 93.5v722h170v-1100h-159v39q0 35 4 93q-110 -158 -278 -158q-61 0 -118 33v-373h-170v1466h170z" />
    <glyph glyph-name="nu" unicode="&#x3bd;" horiz-adv-x="800" vert-adv-y="2457" 
d="M7 1100h185l177 -722q31 -130 37 -213h9q7 94 46 267l151 668h181l-287 -1100h-198z" />
    <glyph glyph-name="xi" unicode="&#x3be;" horiz-adv-x="754" vert-adv-y="2457" 
d="M78 1308v154h565v-154h-145q-101 0 -146 -42q-34 -31 -54.5 -84.5t-20.5 -109.5q0 -112 71.5 -171t207.5 -59h48v-153h-38q-148 0 -227 -43q-59 -31 -92.5 -95.5t-33.5 -146.5q0 -69 24.5 -125.5t65.5 -81.5t180 -40q88 -9 130.5 -22.5t69.5 -41.5q48 -49 48 -151
q0 -123 -74 -378h-179q77 249 77 339q0 55 -31.5 72.5t-143.5 26.5q-92 6 -146.5 24t-92.5 54q-111 104 -111 324q0 274 210 366q-55 25 -84 67q-63 91 -63 212q0 169 125 259h-140z" />
    <glyph glyph-name="omicron" unicode="&#x3bf;" horiz-adv-x="929" vert-adv-y="2457" 
d="M479 1124q195 0 284.5 -137.5t89.5 -436.5q0 -284 -84 -419q-51 -83 -125 -119q-76 -37 -194 -37q-128 0 -206 54q-168 118 -168 522q0 296 96 431q101 142 307 142zM467 993q-120 0 -173 -120q-43 -97 -43 -329q0 -235 47 -331q52 -107 166 -107q113 0 163.5 106
t50.5 345q0 238 -48 337t-163 99z" />
    <glyph glyph-name="rho" unicode="&#x3c1;" horiz-adv-x="915" vert-adv-y="2457" 
d="M86 -421v914q0 268 61 401q101 221 331 221q164 0 257 -122q121 -157 121 -433q0 -302 -133 -472q-93 -119 -250 -119q-154 0 -230 129v-519h-157zM464 953q-112 0 -169.5 -116.5t-57.5 -344.5q0 -186 76 -283q63 -80 155 -80q83 0 139 70q86 111 86 353q0 401 -229 401z
" />
    <glyph glyph-name="uni03C2" unicode="&#x3c2;" horiz-adv-x="827" vert-adv-y="2457" 
d="M585 -325l-120 99q66 57 66 105q0 28 -32 47.5t-109 38.5q-83 21 -125.5 42t-82.5 60q-137 135 -137 451q0 300 130 461q106 132 287 132q213 0 295 -209q26 -65 38 -182h-152q-14 79 -29 115q-52 115 -168 115q-112 0 -173 -109t-61 -308q0 -228 72 -332
q26 -36 58.5 -53t153.5 -54q130 -41 167 -89q37 -47 37 -117q0 -55 -23 -97.5t-92 -115.5z" />
    <glyph glyph-name="sigma" unicode="&#x3c3;" horiz-adv-x="941" vert-adv-y="2457" 
d="M608 1085h285v-151h-121q96 -172 96 -397q0 -269 -131 -435q-104 -131 -277 -131q-225 0 -336 228q-71 144 -71 337q0 272 131 444q104 135 280 135q67 0 144 -30zM458 956q-124 0 -190 -146q-52 -113 -52 -274q0 -176 63 -288q66 -117 182 -117q126 0 192 139
q52 108 52 266q0 180 -63 297q-65 123 -184 123z" />
    <glyph glyph-name="tau" unicode="&#x3c4;" horiz-adv-x="687" vert-adv-y="2457" 
d="M706 1100v-151h-284v-949h-157v949h-284v151h725z" />
    <glyph glyph-name="upsilon" unicode="&#x3c5;" horiz-adv-x="922" vert-adv-y="2457" 
d="M658 1100h157v-800q0 -150 -77 -237q-85 -95 -277 -95q-193 0 -277 95q-77 87 -77 237v800h157v-741q0 -230 197 -230t197 230v741z" />
    <glyph glyph-name="phi" unicode="&#x3c6;" horiz-adv-x="1083" vert-adv-y="2457" 
d="M465 135v978q58 1 66 1q185 0 294 -80q205 -150 205 -482q0 -237 -107 -388q-109 -155 -305 -187v-398h-153v398q-154 25 -253 125q-159 161 -159 452q0 218 85 364q40 70 129 143l89 -130q-143 -113 -143 -373q0 -357 252 -423zM618 135q66 17 106.5 46t76.5 85
q70 111 70 290q0 196 -93 308q-64 77 -160 100v-829z" />
    <glyph glyph-name="chi" unicode="&#x3c7;" horiz-adv-x="812" vert-adv-y="2457" 
d="M406 116l-217 -537h-178l307 756l-292 765h181l202 -540l206 540h173l-292 -759l304 -762h-180z" />
    <glyph glyph-name="psi" unicode="&#x3c8;" horiz-adv-x="1135" vert-adv-y="2457" 
d="M644 -421h-153v392q-186 2 -286 87.5t-100 241.5v800h159v-734q-7 -225 227 -236v970h153v-970q235 10 227 236v734h159v-800q0 -195 -156 -279q-88 -48 -230 -50v-392z" />
    <glyph glyph-name="omega" unicode="&#x3c9;" horiz-adv-x="1084" vert-adv-y="2457" 
d="M618 547v-217q0 -93 32 -148q31 -53 70 -53q69 0 107 107t38 303q0 380 -199 427l55 151q91 -32 139 -75q172 -154 172 -525q0 -269 -100 -420q-85 -128 -217 -128q-102 0 -173 89q-72 -89 -173 -89q-132 0 -217 128q-100 151 -100 420q0 398 195 544q38 28 116 56
l55 -151q-199 -47 -199 -429q0 -197 37 -301q39 -107 108 -107q44 0 73 57t29 144v217h152z" />
    <glyph glyph-name="iotadieresis" unicode="&#x3ca;" horiz-adv-x="400" vert-adv-y="2457" 
d="M115 1100h170v-1100h-170v1100zM146 1453v-212h-216v212h216zM473 1453v-212h-216v212h216z" />
    <glyph glyph-name="upsilondieresis" unicode="&#x3cb;" horiz-adv-x="922" vert-adv-y="2457" 
d="M214 1511h165v-203h-165v203zM545 1511h165v-203h-165v203zM658 1100h157v-800q0 -150 -77 -237q-85 -95 -277 -95q-193 0 -277 95q-77 87 -77 237v800h157v-741q0 -230 197 -230t197 230v741z" />
    <glyph glyph-name="omicrontonos" unicode="&#x3cc;" horiz-adv-x="929" vert-adv-y="2457" 
d="M479 1124q195 0 284.5 -137.5t89.5 -436.5q0 -284 -84 -419q-51 -83 -125 -119q-76 -37 -194 -37q-128 0 -206 54q-168 118 -168 522q0 296 96 431q101 142 307 142zM467 993q-120 0 -173 -120q-43 -97 -43 -329q0 -235 47 -331q52 -107 166 -107q113 0 163.5 106
t50.5 345q0 238 -48 337t-163 99zM382 1611h171v-185l-53 -211h-65l-53 211v185z" />
    <glyph glyph-name="upsilontonos" unicode="&#x3cd;" horiz-adv-x="922" vert-adv-y="2457" 
d="M658 1100h157v-800q0 -150 -77 -237q-85 -95 -277 -95q-193 0 -277 95q-77 87 -77 237v800h157v-741q0 -230 197 -230t197 230v741zM380 1239v290h163v-290h-163z" />
    <glyph glyph-name="omegatonos" unicode="&#x3ce;" horiz-adv-x="1084" vert-adv-y="2457" 
d="M619 547v-217q0 -93 32 -148q31 -53 70 -53q69 0 107 107t38 303q0 380 -199 427l55 151q91 -32 139 -75q172 -154 172 -525q0 -269 -100 -420q-85 -128 -217 -128q-102 0 -173 89q-72 -89 -173 -89q-132 0 -217 128q-100 151 -100 420q0 398 195 544q38 28 116 56
l55 -151q-199 -47 -199 -429q0 -197 37 -301q39 -107 108 -107q44 0 73 57t29 144v217h152zM461 1239v290h163v-290h-163z" />
    <glyph glyph-name="theta1" unicode="&#x3d1;" horiz-adv-x="996" vert-adv-y="2457" 
d="M20 591h219q7 -224 29 -299q54 -185 210 -185q187 0 236 257q18 92 19 309h-24q-234 0 -383 108q-183 132 -183 357q0 175 111 276q88 80 217 80q138 0 242 -88q75 -64 117 -157t57 -227q9 -77 12 -208q37 0 73 5v-138q-36 -4 -73 -5q-1 -300 -55 -446
q-103 -276 -370 -276q-233 0 -328 217q-51 116 -57 286h-69v134zM733 811l1 64q0 252 -84 377q-30 44 -78 70t-100 26q-73 0 -120.5 -58.5t-47.5 -149.5q0 -117 75 -201q116 -128 354 -128z" />
    <glyph glyph-name="phi1" unicode="&#x3d5;" horiz-adv-x="1135" vert-adv-y="2457" 
d="M643 -421h-151v394q-177 24 -280 129q-158 161 -158 443q0 238 106 388q61 86 138 130t194 61v338h151v-338q142 -20 229 -85q92 -68 143 -175q66 -137 66 -319q0 -282 -158 -443q-103 -105 -280 -129v-394zM492 126v844q-95 -14 -160 -74q-122 -113 -122 -348
q0 -182 73 -291t209 -131zM643 126q99 16 160 74q122 116 122 349q0 181 -74 291.5t-208 129.5v-844z" />
    <glyph glyph-name="uni0400" unicode="&#x400;" horiz-adv-x="966" vert-adv-y="2457" 
d="M128 1462h755v-156h-577v-464h544v-156h-544v-530h599v-156h-777v1462zM451 1853l153 -259h-134l-238 259h219z" />
    <glyph glyph-name="afii10023" unicode="&#x401;" vert-adv-y="2457" 
d="M119 1462h755v-156h-577v-464h544v-156h-544v-530h599v-156h-777v1462zM236 1843h174v-212h-174v212zM584 1843h174v-212h-174v212z" />
    <glyph glyph-name="afii10051" unicode="&#x402;" horiz-adv-x="1352" vert-adv-y="2457" 
d="M922 -25v158q120 4 120 195v217q0 137 -44 189t-160 52q-104 0 -160.5 -29.5t-92.5 -102.5q-41 -85 -41 -280v-374h-173v1282h-315v180h1006v-180h-518v-498q56 85 109 116q77 46 208 46q118 0 193.5 -37.5t116.5 -116.5q44 -86 44 -218v-246q0 -346 -293 -353z" />
    <glyph glyph-name="afii10052" unicode="&#x403;" horiz-adv-x="872" vert-adv-y="2457" 
d="M290 0h-173v1462h735v-180h-562v-1282zM760 1838l-218 -289h-123l149 289h192z" />
    <glyph glyph-name="afii10053" unicode="&#x404;" horiz-adv-x="1063" vert-adv-y="2457" 
d="M235 820h403v-180h-404q17 -216 68 -325q82 -174 241 -174q162 0 246 193q30 69 54 205h167q-29 -162 -52 -237t-64 -136q-62 -93 -149 -145q-100 -60 -215 -60q-207 0 -328 175q-148 213 -148 592q0 377 150 591q128 182 347 182q200 0 320 -148q57 -69 85 -143t43 -190
h-167q-24 113 -52 162q-78 139 -227 139q-177 0 -265 -220q-38 -98 -53 -281z" />
    <glyph glyph-name="afii10054" unicode="&#x405;" horiz-adv-x="1024" vert-adv-y="2457" 
d="M54 458h183q0 -158 36 -223q66 -119 223 -119q130 0 201.5 67.5t71.5 191.5q0 127 -80 196q-35 30 -73 46t-209 74q-146 49 -224 123q-105 101 -105 275q0 188 111 297q106 105 314 105q260 0 357 -176q50 -89 49 -229h-180q-3 106 -30 159q-50 101 -200 101
q-126 0 -185 -69q-54 -63 -54 -166q0 -144 116 -217q37 -23 73.5 -37.5t197.5 -68.5q169 -56 236 -152q68 -96 68 -241q0 -208 -130 -322q-117 -102 -330 -102q-209 0 -321 105q-64 60 -88 141q-28 94 -28 212v29z" />
    <glyph glyph-name="afii10055" unicode="&#x406;" horiz-adv-x="418" vert-adv-y="2457" 
d="M120 1462h178v-1462h-178v1462z" />
    <glyph glyph-name="afii10056" unicode="&#x407;" horiz-adv-x="418" vert-adv-y="2457" 
d="M120 1462h178v-1462h-178v1462zM-16 1843h174v-212h-174v212zM260 1843h174v-212h-174v212z" />
    <glyph glyph-name="afii10057" unicode="&#x408;" horiz-adv-x="872" vert-adv-y="2457" 
d="M42 427h175q0 -153 20 -207q37 -104 150 -104q151 0 176 154q8 50 8 209v983h178v-983q0 -236 -36 -321q-80 -187 -332 -187q-231 0 -306 183q-33 82 -33 273z" />
    <glyph glyph-name="afii10058" unicode="&#x409;" horiz-adv-x="1686" vert-adv-y="2457" 
d="M762 0v1282h-397v-865q0 -211 -92 -323q-92 -111 -242 -111h-4l-10 -1v172q175 7 175 251v1057h743v-618h273q163 0 278 -71q84 -51 123 -152q34 -84 34 -187q0 -179 -97 -298q-111 -136 -312 -136h-472zM935 683v-511h291q126 0 190 81q54 70 54 183q0 247 -270 247
h-265z" />
    <glyph glyph-name="afii10059" unicode="&#x40a;" horiz-adv-x="1686" vert-adv-y="2457" 
d="M803 0v679h-505v-679h-173v1462h173v-603h505v603h173v-618h225q162 0 277 -71q84 -51 123 -151q34 -86 34 -188q0 -179 -97 -298q-111 -136 -311 -136h-424zM976 683v-511h243q125 0 189 81q54 69 54 183q0 247 -270 247h-216z" />
    <glyph glyph-name="afii10060" unicode="&#x40b;" horiz-adv-x="1282" vert-adv-y="2457" 
d="M521 784q40 61 73 90q80 72 246 72q119 0 194 -37t117 -117q44 -86 44 -218v-574h-173v545q0 137 -45 189t-162 52q-103 0 -160 -29.5t-92 -102.5q-42 -86 -42 -280v-374h-173v1282h-297v180h960v-180h-490v-498z" />
    <glyph glyph-name="afii10061" unicode="&#x40c;" horiz-adv-x="1024" vert-adv-y="2457" 
d="M785 1838l-218 -289h-123l149 289h192zM280 684v-684h-173v1462h173v-601h101l424 601h234l-497 -664l509 -798h-221l-431 684h-119z" />
    <glyph glyph-name="uni040D" unicode="&#x40d;" horiz-adv-x="1195" vert-adv-y="2457" 
d="M286 299l588 1163h201v-1462h-167v1164l-598 -1164h-191v1462h167v-1163zM569 1853l153 -259h-134l-238 259h219z" />
    <glyph glyph-name="afii10062" unicode="&#x40e;" horiz-adv-x="971" vert-adv-y="2457" 
d="M689 1885h91q-12 -90 -31 -133q-63 -146 -234 -146q-120 0 -180 65.5t-76 213.5h92q2 -6 4 -15q39 -145 167 -145q72 0 107.5 34t59.5 126zM1033 1462l-679 -1346q-26 -52 -79 -97q-40 -35 -151 -35q-27 0 -68 14q-5 2 -9 3v169q51 -22 94 -22q56 0 74 38l195 396
l-448 880h198l343 -708l329 708h201z" />
    <glyph glyph-name="afii10145" unicode="&#x40f;" horiz-adv-x="1100" vert-adv-y="2457" 
d="M461 0h-364v1462h173v-1282h553v1282h173v-1462h-362v-325h-173v325z" />
    <glyph glyph-name="afii10017" unicode="&#x410;" horiz-adv-x="1024" vert-adv-y="2457" 
d="M402 1462h237l404 -1462h-191l-105 401h-470l-110 -401h-187zM519 1348q-13 -96 -75 -321l-130 -478h397l-121 473q-51 196 -71 326z" />
    <glyph glyph-name="afii10018" unicode="&#x411;" horiz-adv-x="1063" vert-adv-y="2457" 
d="M873 1462v-180h-603v-438h318q163 0 278 -70q83 -52 123 -153q34 -85 34 -187q0 -180 -97 -298q-113 -136 -312 -136h-517v1462h776zM270 683v-511h336q126 0 190 81q54 70 54 184q0 246 -270 246h-310z" />
    <glyph glyph-name="afii10019" unicode="&#x412;" horiz-adv-x="1063" vert-adv-y="2457" 
d="M123 1462h319q213 0 287 -25q104 -35 161 -135q52 -91 52 -206q0 -121 -55.5 -204t-157.5 -116q88 -20 145 -67q119 -99 119 -291q0 -263 -202 -369q-93 -49 -279 -49h-389v1462zM301 1316v-483h112q119 1 161.5 6t76.5 22q109 57 109 218q0 182 -142 223q-47 14 -214 14
h-103zM301 698v-552h137q175 0 234 26q139 62 139 247q0 203 -161 260q-49 18 -238 19h-111z" />
    <glyph glyph-name="afii10020" unicode="&#x413;" horiz-adv-x="872" vert-adv-y="2457" 
d="M287 0h-173v1462h747v-180h-574v-1282z" />
    <glyph glyph-name="afii10021" unicode="&#x414;" horiz-adv-x="1139" vert-adv-y="2457" 
d="M129 180q84 58 84 225v1057h825v-1282h80v-378h-173v198h-777v-198h-173v378h134zM344 180h521v1102h-479v-865q0 -139 -42 -237z" />
    <glyph glyph-name="afii10022" unicode="&#x415;" vert-adv-y="2457" 
d="M119 1462h755v-156h-577v-464h544v-156h-544v-530h599v-156h-777v1462z" />
    <glyph glyph-name="afii10024" unicode="&#x416;" horiz-adv-x="1561" vert-adv-y="2457" 
d="M863 0h-166v678h-117l-414 -678h-200l474 784l-462 678h224l391 -600h104v600h166v-600h103l392 600h223l-462 -678l475 -784h-201l-399 678h-131v-678z" />
    <glyph glyph-name="afii10025" unicode="&#x417;" horiz-adv-x="1024" vert-adv-y="2457" 
d="M43 1020q14 114 43 185q119 296 431 296q213 0 329 -147q84 -107 84 -260q0 -114 -43 -203t-114 -124q206 -81 206 -349q0 -199 -101 -321q-113 -136 -330 -136q-316 0 -450 306q-50 115 -67 273h167q27 -140 57 -205q47 -103 114.5 -148.5t172.5 -45.5q109 0 172 59
q86 81 86 221q0 123 -70 191.5t-196 68.5h-66v170h70q106 0 160 64q53 64 53 164q0 108 -67 175q-68 68 -176 68q-162 0 -244 -140q-31 -51 -54 -162h-167z" />
    <glyph glyph-name="afii10026" unicode="&#x418;" horiz-adv-x="1126" vert-adv-y="2457" 
d="M252 299l588 1163h201v-1462h-167v1164l-598 -1164h-191v1462h167v-1163z" />
    <glyph glyph-name="afii10027" unicode="&#x419;" horiz-adv-x="1126" vert-adv-y="2457" 
d="M252 299l588 1163h201v-1462h-167v1164l-598 -1164h-191v1462h167v-1163zM734 1885h90q-11 -87 -30 -133q-63 -146 -234 -146q-120 0 -179.5 64.5t-76.5 214.5h92q2 -6 4 -15q38 -145 167 -145q72 0 107.5 34t59.5 126z" />
    <glyph glyph-name="afii10028" unicode="&#x41a;" horiz-adv-x="1024" vert-adv-y="2457" 
d="M271 684v-684h-173v1462h173v-601h115l423 601h234l-496 -664l509 -798h-221l-431 684h-133z" />
    <glyph glyph-name="afii10029" unicode="&#x41b;" horiz-adv-x="1100" vert-adv-y="2457" 
d="M2 154q175 10 175 250v1058h819v-1462h-173v1282h-473v-865q0 -212 -92 -323t-242 -111h-4l-10 -1v172z" />
    <glyph glyph-name="afii10030" unicode="&#x41c;" horiz-adv-x="1442" vert-adv-y="2457" 
d="M133 1462h290l150 -569q144 -546 149 -715h8q0 144 104 549l184 735h291v-1462h-171v1024q0 135 13 325h-13q-32 -171 -129 -549l-205 -800h-166l-212 814l-11 48q-50 200 -53.5 215t-57.5 272h-13q13 -206 13 -408v-941h-171v1462z" />
    <glyph glyph-name="afii10031" unicode="&#x41d;" horiz-adv-x="1100" vert-adv-y="2457" 
d="M299 861h501v601h178v-1462h-178v705h-501v-705h-178v1462h178v-601z" />
    <glyph glyph-name="afii10032" unicode="&#x41e;" horiz-adv-x="1139" vert-adv-y="2457" 
d="M583 1491q236 0 346 -175.5t110 -552.5q0 -325 -66 -514q-45 -129 -148 -204q-100 -74 -263 -74q-300 0 -398 280q-64 186 -64 490q0 390 116 570t367 180zM569 1346q-153 0 -218 -135q-69 -145 -69 -474q0 -292 52 -442q61 -179 231 -179q183 0 244 193q48 151 48 416
q0 342 -65 481.5t-223 139.5z" />
    <glyph glyph-name="afii10033" unicode="&#x41f;" horiz-adv-x="1100" vert-adv-y="2457" 
d="M827 1282h-553v-1282h-173v1462h899v-1462h-173v1282z" />
    <glyph glyph-name="afii10034" unicode="&#x420;" horiz-adv-x="985" vert-adv-y="2457" 
d="M123 1462h363q187 0 279 -52q90 -51 135 -152q42 -93 42 -215q0 -164 -74 -271q-62 -89 -151.5 -121.5t-270.5 -32.5h-145v-618h-178v1462zM301 1316v-552h159q142 0 199 40q101 72 101 238q0 175 -115 241q-57 33 -209 33h-135z" />
    <glyph glyph-name="afii10035" unicode="&#x421;" horiz-adv-x="1063" vert-adv-y="2457" 
d="M834 503h181q0 -185 -79 -331q-59 -109 -142 -154q-85 -47 -222 -47q-215 0 -317 122q-78 92 -113 240t-35 384q0 383 95 563q54 103 149.5 157t223.5 54q270 0 374 -199q53 -101 54 -257h-179q-1 103 -40 189q-56 122 -209 122q-178 0 -238 -185q-48 -149 -48 -451
q0 -240 38 -386q27 -105 94 -158q63 -50 152 -50q251 0 261 387z" />
    <glyph glyph-name="afii10036" unicode="&#x422;" vert-adv-y="2457" 
d="M17 1462h914v-156h-365v-1306h-178v1306h-371v156z" />
    <glyph glyph-name="afii10037" unicode="&#x423;" horiz-adv-x="971" vert-adv-y="2457" 
d="M1039 1462l-679 -1346q-26 -52 -79 -97q-40 -35 -152 -35q-23 0 -76 17v169q50 -22 94 -22q56 0 74 38l195 396l-448 880h199l342 -708l329 708h201z" />
    <glyph glyph-name="afii10038" unicode="&#x424;" horiz-adv-x="1479" vert-adv-y="2457" 
d="M821 1456q171 -22 292 -114q114 -87 180 -230q81 -173 81 -380q0 -274 -132 -472q-74 -112 -174 -172t-247 -80v-130h-164v130q-172 22 -292 113q-113 87 -180 231q-81 173 -81 380q0 273 132 471q74 112 174.5 172t246.5 81v128h164v-128zM821 176q99 19 178 78
q89 64 139 168q66 136 66 310q0 224 -101 370.5t-282 184.5v-1111zM657 1287q-99 -19 -178 -77q-88 -65 -138 -169q-66 -135 -66 -309q0 -224 102 -372.5t280 -183.5v1111z" />
    <glyph glyph-name="afii10039" unicode="&#x425;" horiz-adv-x="985" vert-adv-y="2457" 
d="M30 1462h199l190 -392q58 -119 80 -186q18 73 77 192l192 386h191l-366 -718l390 -744h-200l-239 474l-9 22q-39 86 -46 120q-13 -61 -57 -149l-238 -467h-192l391 744z" />
    <glyph glyph-name="afii10040" unicode="&#x426;" horiz-adv-x="1139" vert-adv-y="2457" 
d="M1015 180h109v-505h-173v325h-835v1462h173v-1282h553v1282h173v-1282z" />
    <glyph glyph-name="afii10041" unicode="&#x427;" horiz-adv-x="1063" vert-adv-y="2457" 
d="M800 443q-101 -19 -180 -19q-205 0 -348 94q-96 63 -148.5 176.5t-52.5 255.5v512h173v-457q0 -402 401 -402q72 0 155 18v841h171v-1462h-171v443z" />
    <glyph glyph-name="afii10042" unicode="&#x428;" horiz-adv-x="1638" vert-adv-y="2457" 
d="M1313 180v1282h173v-1462h-1333v1462h173v-1282h406v1282h173v-1282h408z" />
    <glyph glyph-name="afii10043" unicode="&#x429;" horiz-adv-x="1638" vert-adv-y="2457" 
d="M1389 0h-1240v1462h173v-1282h406v1282h173v-1282h408v1282h173v-1282h80v-503h-173v323z" />
    <glyph glyph-name="afii10044" unicode="&#x42a;" horiz-adv-x="1251" vert-adv-y="2457" 
d="M350 1282h-356v180h529v-618h252q163 0 278 -70q83 -52 123 -153q34 -85 34 -187q0 -179 -98 -298q-110 -136 -311 -136h-451v1282zM523 683v-511h270q126 0 190 81q54 70 54 183q0 247 -270 247h-244z" />
    <glyph glyph-name="afii10045" unicode="&#x42b;" horiz-adv-x="1374" vert-adv-y="2457" 
d="M98 0v1462h173v-618h318q163 0 278 -70q83 -52 123 -153q34 -85 34 -187q0 -180 -97 -298q-112 -136 -311 -136h-518zM271 683v-511h336q126 0 190 81q54 70 54 184q0 246 -270 246h-310zM1272 1462v-1462h-171v1462h171z" />
    <glyph glyph-name="afii10046" unicode="&#x42c;" horiz-adv-x="1001" vert-adv-y="2457" 
d="M103 0v1462h173v-618h252q162 0 277 -71q84 -51 123 -152q34 -85 34 -187q0 -180 -97 -298q-112 -136 -311 -136h-451zM276 683v-511h270q126 0 189 81q54 69 54 184q0 246 -270 246h-243z" />
    <glyph glyph-name="afii10047" unicode="&#x42d;" horiz-adv-x="1063" vert-adv-y="2457" 
d="M809 820q-15 203 -63 313q-84 188 -236 188q-132 0 -201 -139q-25 -49 -46 -162h-167q13 113 39 185q50 140 143 216q100 80 234 80q209 0 332 -182q145 -214 145 -591q0 -379 -143 -592q-118 -175 -316 -175q-142 0 -251 99q-81 74 -119.5 170t-73.5 309h167
q22 -138 47 -205q74 -193 219 -193q162 0 239 203q37 100 52 296h-377v180h376z" />
    <glyph glyph-name="afii10048" unicode="&#x42e;" horiz-adv-x="1536" vert-adv-y="2457" 
d="M467 679h-177v-679h-173v1462h173v-603h183q22 212 96 367q133 275 394 275q282 0 415 -322q80 -196 80 -450q0 -353 -153 -583q-123 -185 -343 -185q-283 0 -415 322q-63 153 -80 396zM958 1321q-60 0 -115.5 -35.5t-94.5 -98.5q-105 -170 -105 -456t105 -456
q82 -134 214 -134q174 0 263 232q56 148 56 358q0 289 -105 456q-83 134 -218 134z" />
    <glyph glyph-name="afii10049" unicode="&#x42f;" horiz-adv-x="1063" vert-adv-y="2457" 
d="M949 1462v-1462h-178v655h-177q-128 0 -173 -18q-78 -32 -98.5 -99t-30.5 -327q-7 -161 -42 -211h-217q42 33 56.5 76.5t19.5 154.5q9 200 16.5 259.5t30.5 111.5q42 94 180 122q-73 20 -121 63q-111 100 -111 295q0 144 69 241q55 77 135.5 108t228.5 31h412zM771 1316
h-199q-130 0 -191 -40q-95 -64 -95 -215q0 -160 107 -231q55 -36 182 -36h196v522z" />
    <glyph glyph-name="afii10065" unicode="&#x430;" horiz-adv-x="909" vert-adv-y="2457" 
d="M92 767q-1 93 11.5 144.5t45.5 93.5q92 119 297 119q242 0 311 -148q27 -56 27 -212v-527q0 -72 13.5 -96.5t51.5 -24.5q16 0 34 8v-122q-42 -17 -92 -17q-155 0 -165 144q-95 -155 -282 -155q-137 0 -208 78q-75 82 -75 231q0 159 85 240q34 32 81.5 53t161.5 53
q114 33 152.5 49t55.5 37q21 28 21 98q0 72 -23 111q-40 69 -153 69q-110 0 -156 -67q-33 -48 -33 -159h-161zM622 601q-24 -26 -58.5 -41.5t-153.5 -52.5q-124 -39 -155 -106q-20 -43 -20 -109q0 -86 39 -131q41 -48 118 -48q52 0 101 25t81 67q26 34 35 72t9 113v85
q1 107 4 126z" />
    <glyph glyph-name="afii10066" unicode="&#x431;" horiz-adv-x="924" vert-adv-y="2457" 
d="M738 1574v-169q-63 -32 -109.5 -47t-136.5 -33q-70 -14 -106 -31.5t-60 -48.5q-41 -55 -70 -229q98 102 224 102q156 0 263 -122q133 -150 133 -455q0 -290 -132 -445q-107 -125 -276 -125q-226 0 -337 217q-72 138 -72 333q0 219 23 429.5t56 295.5q50 126 141 179
q63 37 190 57q178 27 269 92zM464 958q-123 0 -189 -125q-53 -99 -53 -279q0 -208 64 -314q66 -109 182 -109q126 0 192 129q53 104 53 291q0 199 -64 302q-65 105 -185 105z" />
    <glyph glyph-name="afii10067" unicode="&#x432;" horiz-adv-x="909" vert-adv-y="2457" 
d="M123 0v1100h415q122 0 189 -83q60 -75 60 -169q0 -113 -24.5 -171.5t-89.5 -101.5q68 -34 98 -71q57 -68 57 -186q0 -133 -71 -219q-81 -99 -228 -99h-406zM280 949v-319h177q94 0 133.5 38t39.5 130q0 73 -29 105q-41 46 -143 46h-178zM280 480v-330h216q82 0 128.5 45
t46.5 125q0 160 -195 160h-196z" />
    <glyph glyph-name="afii10068" unicode="&#x433;" horiz-adv-x="739" vert-adv-y="2457" 
d="M287 949v-949h-157v1100h573v-151h-416z" />
    <glyph glyph-name="afii10069" unicode="&#x434;" horiz-adv-x="993" vert-adv-y="2457" 
d="M845 151h72v-349h-157v198h-554v-198h-157v349h85q73 41 73 184v765h638v-949zM688 151v798h-324v-614q0 -102 -31 -184h355z" />
    <glyph glyph-name="afii10070" unicode="&#x435;" horiz-adv-x="909" vert-adv-y="2457" 
d="M253 533q0 -175 26 -269q44 -158 184 -158q86 0 137.5 67t58.5 188h164q-1 -96 -46 -196q-86 -190 -322 -190q-222 0 -310 178q-69 140 -69 397q0 254 72 394q92 180 318 180q266 0 334 -252q33 -120 33 -339h-580zM256 667h400v9q-9 153 -33 210q-45 107 -158 107
q-124 0 -174 -117q-35 -80 -35 -194v-15z" />
    <glyph glyph-name="afii10072" unicode="&#x436;" horiz-adv-x="1325" vert-adv-y="2457" 
d="M737 1100v-463h90l269 463h187l-324 -517l324 -583h-174l-269 483h-103v-483h-149v483h-99l-273 -483h-174l323 583l-323 517h187l275 -466h84v466h149z" />
    <glyph glyph-name="afii10073" unicode="&#x437;" horiz-adv-x="840" vert-adv-y="2457" 
d="M65 705q14 126 39 189q92 229 317 229q152 0 243 -95q86 -90 86 -220q0 -161 -136 -250q65 -27 100 -74q64 -84 64 -194q0 -160 -125 -254q-88 -67 -218 -67q-232 0 -325 221q-29 69 -45 189h152q48 -250 208 -250q82 0 133.5 51.5t51.5 133.5q0 85 -53 132
q-39 35 -139 35h-32h-18v146q61 4 90 10q58 12 91 51q37 44 37 105q0 73 -46.5 120.5t-118.5 47.5q-88 0 -136.5 -60.5t-67.5 -195.5h-152z" />
    <glyph glyph-name="afii10074" unicode="&#x438;" horiz-adv-x="971" vert-adv-y="2457" 
d="M687 771l-405 -771h-156v1100h157v-805l405 805h156v-1100h-157v771z" />
    <glyph glyph-name="afii10075" unicode="&#x439;" horiz-adv-x="971" vert-adv-y="2457" 
d="M687 771l-405 -771h-156v1100h157v-805l405 805h156v-1100h-157v771zM240 1512h109q27 -139 154 -139q64 0 105.5 37t50.5 102h110q-4 -94 -51 -163q-71 -106 -215 -106q-148 0 -220 118q-39 64 -43 151z" />
    <glyph glyph-name="afii10076" unicode="&#x43a;" horiz-adv-x="909" vert-adv-y="2457" 
d="M521 595l323 -595h-198l-249 500h-98v-500h-153v1100h153v-436h89l273 436h197z" />
    <glyph glyph-name="afii10077" unicode="&#x43b;" vert-adv-y="2457" 
d="M63 -18v158q123 8 123 195v765h637v-1100h-157v949h-323v-614q0 -343 -280 -353z" />
    <glyph glyph-name="afii10078" unicode="&#x43c;" horiz-adv-x="1206" vert-adv-y="2457" 
d="M603 274l213 826h234v-1100h-153v663l2 229l-233 -892h-126l-233 892l2 -229v-663h-153v1100h235z" />
    <glyph glyph-name="afii10079" unicode="&#x43d;" vert-adv-y="2457" 
d="M676 458h-404v-458h-157v1100h157v-491h404v491h157v-1100h-157v458z" />
    <glyph glyph-name="afii10080" unicode="&#x43e;" horiz-adv-x="909" vert-adv-y="2457" 
d="M469 1124q195 0 284.5 -137.5t89.5 -436.5q0 -284 -84 -419q-51 -83 -125 -119q-76 -37 -194 -37q-128 0 -206 54q-168 118 -168 522q0 296 96 431q101 142 307 142zM457 993q-120 0 -173 -120q-43 -97 -43 -329q0 -235 47 -331q52 -107 166 -107q113 0 163.5 106
t50.5 345q0 238 -48 337t-163 99z" />
    <glyph glyph-name="afii10081" unicode="&#x43f;" vert-adv-y="2457" 
d="M676 949h-404v-949h-157v1100h718v-1100h-157v949z" />
    <glyph glyph-name="afii10082" unicode="&#x440;" vert-adv-y="2457" 
d="M274 1100v-54q0 -61 -4 -91q29 81 97.5 125.5t162.5 44.5q186 0 270 -155q72 -133 72 -397q0 -298 -81 -435q-97 -163 -271 -163q-164 0 -239 146q4 -33 4 -137v-350h-170v1466h159zM491 984q-126 0 -181 -135q-34 -84 -34 -282q0 -240 42 -333q53 -118 168 -118
q111 0 161 107.5t50 343.5q0 195 -33 288q-46 129 -173 129z" />
    <glyph glyph-name="afii10083" unicode="&#x441;" horiz-adv-x="872" vert-adv-y="2457" 
d="M645 383h166q-4 -200 -96.5 -304t-266.5 -104q-194 0 -285 138.5t-91 433.5q0 300 95 435q101 142 297 142q225 0 308 -184q37 -84 39 -183h-171q-7 87 -25 127q-46 99 -156 99q-112 0 -162 -101.5t-50 -330.5q0 -258 58 -351q52 -84 154 -84q111 0 158 113q26 63 28 154
z" />
    <glyph glyph-name="afii10084" unicode="&#x442;" horiz-adv-x="819" vert-adv-y="2457" 
d="M772 1100v-151h-284v-949h-157v949h-284v151h725z" />
    <glyph glyph-name="afii10085" unicode="&#x443;" horiz-adv-x="831" vert-adv-y="2457" 
d="M22 1100h185l174 -680q31 -122 46 -253h9q11 133 39 257l153 676h182l-267 -1009q-48 -181 -87 -284q-34 -92 -99.5 -135t-170.5 -43q-38 0 -109 3v142q14 0 22 -1q49 -3 75 -3q52 0 84.5 25t55.5 84q25 64 28 101z" />
    <glyph glyph-name="afii10086" unicode="&#x444;" horiz-adv-x="1366" vert-adv-y="2457" 
d="M606 1462h153v-384q61 38 138 38q154 0 249 -131q119 -166 119 -441q0 -225 -80 -378q-102 -195 -289 -195q-77 0 -137 38v-430h-153v430q-60 -38 -137 -38q-203 0 -305 229q-64 143 -64 344q0 275 119 441q95 131 249 131q77 0 138 -38v384zM759 918v-748
q49 -43 114 -43q122 0 184 141q48 108 48 276q0 185 -59 298q-61 118 -173 118q-64 0 -114 -42zM606 918q-49 42 -114 42q-108 0 -170 -111t-62 -304q0 -187 59 -299q61 -119 171 -119q68 0 116 43v748z" />
    <glyph glyph-name="afii10087" unicode="&#x445;" horiz-adv-x="831" vert-adv-y="2457" 
d="M24 1100h195l162 -326l39 -89q3 7 17 42l14 32l6 14l160 327h186l-285 -531l300 -569h-190l-164 328q-32 64 -53 118l-5 -12q-38 -88 -57 -127l-150 -307h-185l299 569z" />
    <glyph glyph-name="afii10088" unicode="&#x446;" horiz-adv-x="985" vert-adv-y="2457" 
d="M758 0h-634v1100h157v-949h404v949h157v-949h73v-476h-157v325z" />
    <glyph glyph-name="afii10089" unicode="&#x447;" horiz-adv-x="895" vert-adv-y="2457" 
d="M609 320q-63 -11 -117 -11q-270 0 -366 176q-50 91 -50 209v406h157v-348q0 -294 265 -294q47 0 111 6v636h157v-1100h-157v320z" />
    <glyph glyph-name="afii10090" unicode="&#x448;" horiz-adv-x="1386" vert-adv-y="2457" 
d="M1095 151v949h157v-1100h-1118v1100h157v-949h323v949h157v-949h324z" />
    <glyph glyph-name="afii10091" unicode="&#x449;" horiz-adv-x="1423" vert-adv-y="2457" 
d="M1261 151h73v-476h-157v325h-1034v1100h157v-949h323v949h157v-949h324v949h157v-949z" />
    <glyph glyph-name="afii10092" unicode="&#x44a;" horiz-adv-x="1014" vert-adv-y="2457" 
d="M17 1100h425v-470h156q176 0 250 -47q121 -78 121 -265q0 -133 -71 -219q-81 -99 -227 -99h-386v949h-268v151zM442 480v-330h195q82 0 128.5 45t46.5 125q0 160 -194 160h-176z" />
    <glyph glyph-name="afii10093" unicode="&#x44b;" horiz-adv-x="1206" vert-adv-y="2457" 
d="M119 0v1100h157v-470h156q96 0 153.5 -10.5t96.5 -36.5q121 -79 121 -265q0 -133 -71 -219q-81 -99 -228 -99h-385zM276 480v-330h195q83 0 129 45t46 126q0 159 -195 159h-175zM1087 1100v-1100h-157v1100h157z" />
    <glyph glyph-name="afii10094" unicode="&#x44c;" horiz-adv-x="872" vert-adv-y="2457" 
d="M134 0v1100h157v-470h156q173 0 249 -48q122 -77 122 -265q0 -132 -71 -218q-81 -99 -228 -99h-385zM291 480v-330h195q83 0 129 45t46 126q0 159 -195 159h-175z" />
    <glyph glyph-name="afii10095" unicode="&#x44d;" horiz-adv-x="872" vert-adv-y="2457" 
d="M635 607q-8 90 -29 158q-58 183 -202 183q-161 0 -197 -243h-152q11 117 43 188q49 107 129.5 165t180.5 58q174 0 273 -137q124 -170 124 -460q0 -272 -120 -422q-104 -128 -273 -128q-220 0 -313 221q-31 75 -44 189h152q48 -250 206 -250q196 0 223 327h-305v151h304z
" />
    <glyph glyph-name="afii10096" unicode="&#x44e;" horiz-adv-x="1294" vert-adv-y="2457" 
d="M426 458h-177v-458h-157v1098h157v-489h177q11 196 86 326q112 194 319 194q171 0 276 -131q132 -164 132 -448q0 -283 -132 -448q-105 -131 -276 -131q-168 0 -276.5 130.5t-128.5 356.5zM828 970q-112 0 -177 -112.5t-65 -305.5q0 -191 63 -303q66 -118 182 -118
q114 0 179.5 113t65.5 308q0 189 -63 302q-65 116 -185 116z" />
    <glyph glyph-name="afii10097" unicode="&#x44f;" horiz-adv-x="909" vert-adv-y="2457" 
d="M231 496q-74 44 -106 108.5t-32 167.5q0 144 71 229q82 99 228 99h385v-1100h-157v436h-156q-99 0 -136 -48q-21 -27 -28.5 -62t-9.5 -116q-3 -136 -20 -210h-191v27q27 19 35 38.5t11 73.5l7 160q4 78 27 124.5t72 72.5zM620 586v364h-195q-175 0 -175 -188
q0 -104 60 -144q49 -32 134 -32h176z" />
    <glyph glyph-name="uni0450" unicode="&#x450;" horiz-adv-x="909" vert-adv-y="2457" 
d="M253 533q0 -175 26 -269q44 -158 184 -158q86 0 137.5 67t58.5 188h164q-1 -96 -46 -196q-86 -190 -322 -190q-222 0 -310 178q-69 140 -69 397q0 254 72 394q92 180 318 180q266 0 334 -252q33 -120 33 -339h-580zM256 667h400v9q-9 153 -33 210q-45 107 -158 107
q-124 0 -174 -117q-35 -80 -35 -194v-15zM208 1536h206l141 -293h-129z" />
    <glyph glyph-name="afii10071" unicode="&#x451;" horiz-adv-x="909" vert-adv-y="2457" 
d="M253 533q0 -175 26 -269q44 -158 184 -158q86 0 137.5 67t58.5 188h164q-1 -96 -46 -196q-86 -190 -322 -190q-222 0 -310 178q-69 140 -69 397q0 254 72 394q92 180 318 180q266 0 334 -252q33 -120 33 -339h-580zM256 667h400v9q-9 153 -33 210q-45 107 -158 107
q-124 0 -174 -117q-35 -80 -35 -194v-15zM207 1511h165v-203h-165v203zM538 1511h165v-203h-165v203z" />
    <glyph glyph-name="afii10099" unicode="&#x452;" vert-adv-y="2457" 
d="M281 936q36 65 71 104q75 82 193 82q140 0 218.5 -105t78.5 -292v-575l1 -66q0 -88 -34 -191.5t-86 -172.5q-42 -55 -75 -78q-39 -27 -141 -27q-27 0 -63 11q-9 4 -15 6v168q10 -4 16 -6q37 -16 78 -16q38 0 61 21.5t51 82.5q50 108 50 222v593q0 146 -45 208
q-40 56 -124 56q-101 0 -162 -84q-73 -101 -73 -296v-581h-157v1207h-87v119h87v136h157v-136h286v-119h-286v-271z" />
    <glyph glyph-name="afii10100" unicode="&#x453;" horiz-adv-x="739" vert-adv-y="2457" 
d="M287 949v-949h-157v1100h573v-151h-416zM442 1532h205l-221 -294h-126z" />
    <glyph glyph-name="afii10101" unicode="&#x454;" horiz-adv-x="872" vert-adv-y="2457" 
d="M237 607h304v-151h-305q27 -327 223 -327q158 0 206 250h152q-16 -120 -44 -189q-93 -221 -313 -221q-169 0 -272 128q-121 150 -121 421q0 293 127 464q102 137 282 137q217 0 302 -221q26 -67 39 -193h-152q-14 86 -31 126q-54 127 -173 127q-95 0 -154 -92.5
t-70 -258.5z" />
    <glyph glyph-name="afii10102" unicode="&#x455;" horiz-adv-x="834" vert-adv-y="2457" 
d="M50 360h160q0 -136 45.5 -195t151.5 -59q93 0 145.5 47t52.5 132q0 91 -62 139q-29 21 -56.5 33t-164.5 60q-139 48 -195 114q-62 71 -62 192q0 144 91 223q90 78 253 78q173 0 251.5 -82.5t77.5 -263.5h-163q1 86 -17 131q-33 84 -151 84q-83 0 -130 -41t-47 -114
q0 -69 38 -109t134 -72q122 -40 169.5 -60t86.5 -47q112 -76 112 -239q0 -158 -99 -249q-95 -87 -274 -87q-185 0 -266 90t-81 295z" />
    <glyph glyph-name="afii10103" unicode="&#x456;" horiz-adv-x="418" vert-adv-y="2457" 
d="M124 1100h170v-1100h-170v1100zM124 1462h170v-202h-170v202z" />
    <glyph glyph-name="afii10104" unicode="&#x457;" horiz-adv-x="418" vert-adv-y="2457" 
d="M123 1100h170v-1100h-170v1100zM-8 1511h165v-203h-165v203zM260 1511h165v-203h-165v203z" />
    <glyph glyph-name="afii10105" unicode="&#x458;" horiz-adv-x="418" vert-adv-y="2457" 
d="M124 1100h170v-1022v-41q-1 -164 -7 -211t-31 -95q-57 -107 -245 -107q-26 0 -61 3v140q24 -1 45 -1q91 0 114 56q11 27 13 54t2 162v40v1022zM124 1462h170v-202h-170v202z" />
    <glyph glyph-name="afii10106" unicode="&#x459;" horiz-adv-x="1415" vert-adv-y="2457" 
d="M667 0v949h-323v-614q0 -173 -73 -262q-74 -90 -195 -90h-2l-10 -1v158q123 7 123 195v765h637v-470h156l79 2q60 0 122.5 -26t97.5 -66q72 -80 72 -223q0 -132 -71 -218q-81 -99 -227 -99h-386zM824 480v-330h195q83 0 129 45t46 126q0 159 -195 159h-175z" />
    <glyph glyph-name="afii10107" unicode="&#x45a;" horiz-adv-x="1415" vert-adv-y="2457" 
d="M674 0v458h-404v-458h-157v1100h157v-491h404v491h157v-470h156q100 0 155.5 -10.5t94.5 -35.5q121 -81 121 -266q0 -133 -71 -219q-81 -99 -227 -99h-386zM831 480v-330h195q82 0 128.5 45t46.5 125q0 160 -195 160h-175z" />
    <glyph glyph-name="afii10108" unicode="&#x45b;" vert-adv-y="2457" 
d="M121 1207h-87v119h87v136h157v-136h286v-119h-286v-271q36 64 72 102q75 81 190 81q142 0 220.5 -103.5t78.5 -290.5v-725h-157v697q0 145 -45 206q-40 55 -123 55q-102 0 -163 -83q-73 -100 -73 -294v-581h-157v1207z" />
    <glyph glyph-name="afii10109" unicode="&#x45c;" horiz-adv-x="909" vert-adv-y="2457" 
d="M521 595l323 -595h-198l-249 500h-98v-500h-153v1100h153v-436h89l273 436h197zM551 1532h205l-221 -294h-126z" />
    <glyph glyph-name="uni045D" unicode="&#x45d;" horiz-adv-x="920" vert-adv-y="2457" 
d="M662 771l-405 -771h-156v1100h157v-805l405 805h156v-1100h-157v771zM214 1536h206l141 -293h-129z" />
    <glyph glyph-name="afii10110" unicode="&#x45e;" horiz-adv-x="831" vert-adv-y="2457" 
d="M22 1100h185l174 -680q31 -122 46 -253h9q11 133 39 257l153 676h182l-267 -1009q-48 -181 -87 -284q-34 -92 -99.5 -135t-170.5 -43q-38 0 -109 3v142q14 0 22 -1q49 -3 75 -3q52 0 84.5 25t55.5 84q25 64 28 101zM164 1506h109q27 -139 154 -139q64 0 105.5 37
t50.5 102h110q-4 -94 -51 -163q-71 -106 -215 -106q-148 0 -220 118q-39 64 -43 151z" />
    <glyph glyph-name="afii10193" unicode="&#x45f;" vert-adv-y="2457" 
d="M395 0h-280v1100h157v-949h404v949h157v-1100h-281v-325h-157v325z" />
    <glyph glyph-name="afii10050" unicode="&#x490;" horiz-adv-x="872" vert-adv-y="2457" 
d="M872 1640v-358h-601v-1282h-173v1462h601v178h173z" />
    <glyph glyph-name="afii10098" unicode="&#x491;" horiz-adv-x="729" vert-adv-y="2457" 
d="M533 1100v167h157v-318h-416v-949h-157v1100h416z" />
    <glyph glyph-name="uni0492" unicode="&#x492;" horiz-adv-x="909" vert-adv-y="2457" 
d="M306 844h537v-156h-537v-688h-178v688h-76v156h76v618h748v-156h-570v-462z" />
    <glyph glyph-name="uni0493" unicode="&#x493;" horiz-adv-x="681" vert-adv-y="2457" 
d="M258 605h255v-145h-255v-460h-157v460h-39v145h39v495h573v-151h-416v-344z" />
    <glyph glyph-name="uni0496" unicode="&#x496;" horiz-adv-x="1682" vert-adv-y="2457" 
d="M1612 117h136v-440h-173v323h-93l-400 678h-159v-678h-166v678h-144l-414 -678h-200l474 784l-462 678h224l391 -600h131v600h166v-600h131l392 600h224l-463 -678z" />
    <glyph glyph-name="uni0497" unicode="&#x497;" horiz-adv-x="1207" vert-adv-y="2457" 
d="M1146 98h122v-421h-157v323h-89l-257 488h-87v-488h-149v488h-84l-262 -488h-173l296 584l-296 516h187l256 -460h76v460h149v-458h92l239 458h187l-296 -516z" />
    <glyph glyph-name="uni049A" unicode="&#x49a;" horiz-adv-x="1104" vert-adv-y="2457" 
d="M922 0h-38l-432 684h-160v-684h-173v1462h173v-601h142l424 601h234l-496 -663l394 -619h105v-508h-173v328z" />
    <glyph glyph-name="uni049B" unicode="&#x49b;" horiz-adv-x="827" vert-adv-y="2457" 
d="M643 0h-38l-249 500h-98v-500h-153v1100h153v-436h89l272 436h198l-337 -505l240 -444h80v-479h-157v328z" />
    <glyph glyph-name="uni049C" unicode="&#x49c;" horiz-adv-x="1104" vert-adv-y="2457" 
d="M299 861v255h90v-255h45l423 601h235l-497 -664l509 -798h-221l-431 683h-63v-223h-90v224h-62v-684h-173v1462h173v-601h62z" />
    <glyph glyph-name="uni049D" unicode="&#x49d;" horiz-adv-x="827" vert-adv-y="2457" 
d="M337 499v-168h-88v168h-39v-499h-153v1100h153v-437h39v239h88v-239h10l272 437h198l-337 -506l323 -594h-198l-250 499h-18z" />
    <glyph glyph-name="uni04A2" unicode="&#x4a2;" horiz-adv-x="1130" vert-adv-y="2457" 
d="M985 170h73v-502h-196v332h-55v705h-501v-705h-178v1462h178v-601h501v601h178v-1292z" />
    <glyph glyph-name="uni04A3" unicode="&#x4a3;" horiz-adv-x="940" vert-adv-y="2457" 
d="M662 458h-404v-458h-157v1100h157v-491h404v491h157v-948h73v-477h-157v325h-73v458z" />
    <glyph glyph-name="uni04AE" unicode="&#x4ae;" horiz-adv-x="968" vert-adv-y="2457" 
d="M6 1462h199l219 -539q41 -101 60 -187q12 45 53 156l10 28l225 542h189l-391 -888v-574h-178v574z" />
    <glyph glyph-name="uni04AF" unicode="&#x4af;" horiz-adv-x="828" vert-adv-y="2457" 
d="M413 221l226 879h176l-323 -1134v-387h-157v387l-323 1134h176z" />
    <glyph glyph-name="uni04B0" unicode="&#x4b0;" horiz-adv-x="1104" vert-adv-y="2457" 
d="M637 461h322v-180h-322v-281h-173v281h-323v180h323v128l-449 873h199l335 -690l336 690h200l-448 -873v-128z" />
    <glyph glyph-name="uni04B1" unicode="&#x4b1;" horiz-adv-x="828" vert-adv-y="2457" 
d="M505 9h209v-145h-222v-284h-157v284h-222v145h209l-310 1091h176l225 -879l226 879h177z" />
    <glyph glyph-name="uni04B2" unicode="&#x4b2;" horiz-adv-x="1099" vert-adv-y="2457" 
d="M848 0h-59l-239 474l-9 22q-39 87 -46 120q-13 -61 -57 -148l-238 -468h-192l391 745l-363 717h199l190 -391q58 -120 80 -187q18 73 77 192l192 386h191l-366 -717l301 -575h144v-502h-196v332z" />
    <glyph glyph-name="uni04B3" unicode="&#x4b3;" horiz-adv-x="874" vert-adv-y="2457" 
d="M660 0h-48l-164 328q-32 64 -53 118l-5 -11q-38 -90 -57 -128l-150 -307h-185l299 569l-289 531h195l162 -326l39 -89q3 7 17 42l14 32l6 14l160 327h185l-284 -531l219 -415h113v-471h-174v317z" />
    <glyph glyph-name="uni04B6" unicode="&#x4b6;" horiz-adv-x="1227" vert-adv-y="2457" 
d="M1007 0h-126v443q-100 -20 -201 -20q-130 0 -233 37q-213 75 -284 269q-38 104 -38 221v512h173v-457q0 -104 28.5 -186.5t79.5 -124.5q61 -50 163 -79q46 -13 130 -13q96 0 182 19v841h171v-1284h130v-471h-175v293z" />
    <glyph glyph-name="uni04B7" unicode="&#x4b7;" horiz-adv-x="898" vert-adv-y="2457" 
d="M685 0h-104v319q-63 -10 -127 -10q-192 0 -299 102t-107 283v406h157v-348q0 -180 109 -259q48 -35 155 -35h4l108 5v637h157v-940h122v-471h-175v311z" />
    <glyph glyph-name="uni04B8" unicode="&#x4b8;" horiz-adv-x="1171" vert-adv-y="2457" 
d="M684 424v-252h-103v256q-173 33 -256 89q-96 66 -148 178.5t-52 254.5v512h173v-457q0 -172 64 -261t219 -132v256h103v-265h34h17q68 0 146 18v841h171v-1462h-171v443q-99 -20 -197 -19z" />
    <glyph glyph-name="uni04B9" unicode="&#x4b9;" horiz-adv-x="839" vert-adv-y="2457" 
d="M462 310v-225h-85v228q-321 51 -329 381v406h157v-348q0 -116 46 -191.5t126 -92.5v223h85v-232h7h4l108 5v636h157v-1100h-157v320q-58 -9 -119 -10z" />
    <glyph glyph-name="uni04BB" unicode="&#x4bb;" horiz-adv-x="940" vert-adv-y="2457" 
d="M285 1462v-267v-30q-2 -160 -8 -199q94 158 281 158q188 0 250 -160q25 -66 25 -215v-749h-170v703q0 140 -15 183q-33 97 -148 97q-60 0 -113.5 -32.5t-80.5 -86.5q-21 -41 -21 -133v-731h-170v1462h170z" />
    <glyph glyph-name="uni04C0" unicode="&#x4c0;" horiz-adv-x="418" vert-adv-y="2457" 
d="M120 1462h178v-1462h-178v1462z" />
    <glyph glyph-name="uni04CF" unicode="&#x4cf;" horiz-adv-x="418" vert-adv-y="2457" 
d="M120 1462h178v-1462h-178v1462z" />
    <glyph glyph-name="uni04D8" unicode="&#x4d8;" horiz-adv-x="1209" vert-adv-y="2457" 
d="M957 767q-12 234 -78 373q-99 208 -273 208q-191 0 -289 -250q-25 -63 -39 -139l-1 -4h-181q11 65 30 126q129 420 479 420q302 0 444 -322q86 -196 86 -450q0 -355 -163 -583q-133 -185 -368 -185t-367 185q-163 229 -163 576q0 15 1 45h882zM262 587q21 -162 68 -263
q100 -211 274 -211q135 0 224.5 123t119.5 351h-686z" />
    <glyph glyph-name="afii10846" unicode="&#x4d9;" horiz-adv-x="920" vert-adv-y="2457" 
d="M230 729h-158q32 192 129.5 292.5t251.5 100.5q182 0 285 -134q122 -159 122 -433q0 -293 -130 -454q-106 -132 -286 -132q-245 0 -335 272q-25 74 -34 141t-14 210h632q-5 167 -51 252q-65 119 -190 119q-86 0 -148 -65t-74 -169zM693 447h-470q12 -143 55 -215
q61 -101 173 -101q101 0 167.5 87.5t74.5 228.5z" />
    <glyph glyph-name="uni04E2" unicode="&#x4e2;" horiz-adv-x="1195" vert-adv-y="2457" 
d="M286 299l588 1163h201v-1462h-167v1164l-598 -1164h-191v1462h167v-1163zM267 1794h643v-127h-643v127z" />
    <glyph glyph-name="uni04E3" unicode="&#x4e3;" horiz-adv-x="920" vert-adv-y="2457" 
d="M662 771l-405 -771h-156v1100h157v-805l405 805h156v-1100h-157v771zM188 1462h545v-106h-545v106z" />
    <glyph glyph-name="uni04E8" unicode="&#x4e8;" horiz-adv-x="1205" vert-adv-y="2457" 
d="M611 1501q303 0 447 -321q89 -197 89 -450q0 -356 -168 -584q-136 -185 -376 -185q-241 0 -376 185q-168 228 -168 582q0 256 88 452q144 321 464 321zM966 820q-16 184 -78 303q-103 198 -285 198q-199 0 -301 -232q-44 -99 -62 -269h726zM966 640h-726q17 -183 78 -301
q103 -198 285 -198q151 0 246 134q100 141 117 365z" />
    <glyph glyph-name="uni04E9" unicode="&#x4e9;" horiz-adv-x="920" vert-adv-y="2457" 
d="M457 1122q168 0 275 -137q136 -174 136 -449q0 -268 -131 -434q-104 -131 -277 -131q-225 0 -336 228q-71 144 -71 336q0 278 127 450q102 137 277 137zM702 601q-9 91 -32 162q-35 106 -98 156q-55 43 -121 43q-148 0 -203 -199q-24 -84 -29 -162h483zM701 456h-481
q8 -74 29 -140q61 -185 211 -185q99 0 161 84t80 241z" />
    <glyph glyph-name="uni04EE" unicode="&#x4ee;" horiz-adv-x="1053" vert-adv-y="2457" 
d="M1086 1462l-679 -1346q-26 -52 -79 -97q-40 -35 -152 -35q-23 0 -76 17v169q50 -22 94 -22q56 0 74 38l195 396l-448 880h199l342 -708l329 708h201zM227 1794h643v-127h-643v127z" />
    <glyph glyph-name="uni04EF" unicode="&#x4ef;" horiz-adv-x="801" vert-adv-y="2457" 
d="M7 1100h185l174 -680q31 -122 46 -253h9q11 133 39 257l153 676h182l-267 -1009q-48 -181 -87 -284q-34 -92 -99.5 -135t-170.5 -43q-38 0 -109 3v142q14 0 22 -1q49 -3 75 -3q52 0 84.5 25t55.5 84q25 64 28 101zM128 1462h545v-106h-545v106z" />
    <glyph glyph-name="uni1E1E" unicode="&#x1e1e;" horiz-adv-x="909" vert-adv-y="2457" 
d="M128 1462h748v-156h-570v-462h537v-156h-537v-688h-178v1462zM415 1843h174v-212h-174v212z" />
    <glyph glyph-name="Wgrave" unicode="&#x1e80;" horiz-adv-x="1484" vert-adv-y="2457" 
d="M16 1462h183l161 -856q52 -274 60 -444h9q6 161 59 460l149 840h213l156 -873q47 -267 54 -427h9q4 131 64 456l156 844h179l-296 -1462h-221l-160 897q-36 201 -46 385h-9q-5 -165 -43 -377l-162 -905h-220zM685 1853l153 -259h-134l-238 259h219z" />
    <glyph glyph-name="wgrave" unicode="&#x1e81;" horiz-adv-x="1306" vert-adv-y="2457" 
d="M14 1100h179l113 -566q39 -198 48 -253.5t14 -125.5h8q5 65 10.5 97t47.5 254l8 41l114 553h202l134 -640q39 -189 46 -305h8q8 87 44 289l6 36l118 620h178l-255 -1100h-188l-132 578q-49 214 -58 368h-9q-10 -129 -53 -332l-127 -614h-200zM383 1536h206l141 -293h-129
z" />
    <glyph glyph-name="Wacute" unicode="&#x1e82;" horiz-adv-x="1484" vert-adv-y="2457" 
d="M16 1462h183l161 -856q52 -274 60 -444h9q6 161 59 460l149 840h213l156 -873q47 -267 54 -427h9q4 131 64 456l156 844h179l-296 -1462h-221l-160 897q-36 201 -46 385h-9q-5 -165 -43 -377l-162 -905h-220zM809 1853h219l-238 -259h-134z" />
    <glyph glyph-name="wacute" unicode="&#x1e83;" horiz-adv-x="1306" vert-adv-y="2457" 
d="M14 1100h179l113 -566q39 -198 48 -253.5t14 -125.5h8q5 65 10.5 97t47.5 254l8 41l114 553h202l134 -640q39 -189 46 -305h8q8 87 44 289l6 36l118 620h178l-255 -1100h-188l-132 578q-49 214 -58 368h-9q-10 -129 -53 -332l-127 -614h-200zM709 1537h205l-221 -294
h-126z" />
    <glyph glyph-name="Wdieresis" unicode="&#x1e84;" horiz-adv-x="1484" vert-adv-y="2457" 
d="M16 1462h183l161 -856q52 -274 60 -444h9q6 161 59 460l149 840h213l156 -873q47 -267 54 -427h9q4 131 64 456l156 844h179l-296 -1462h-221l-160 897q-36 201 -46 385h-9q-5 -165 -43 -377l-162 -905h-220zM481 1843h174v-212h-174v212zM829 1843h174v-212h-174v212z
" />
    <glyph glyph-name="wdieresis" unicode="&#x1e85;" horiz-adv-x="1306" vert-adv-y="2457" 
d="M14 1100h179l113 -566q39 -198 48 -253.5t14 -125.5h8q5 65 10.5 97t47.5 254l8 41l114 553h202l134 -640q39 -189 46 -305h8q8 87 44 289l6 36l118 620h178l-255 -1100h-188l-132 578q-49 214 -58 368h-9q-10 -129 -53 -332l-127 -614h-200zM405 1511h165v-203h-165v203
zM736 1511h165v-203h-165v203z" />
    <glyph glyph-name="uni1EA0" unicode="&#x1ea0;" horiz-adv-x="1081" vert-adv-y="2457" 
d="M431 1462h237l404 -1462h-191l-105 401h-470l-110 -401h-187zM548 1348q-13 -96 -75 -321l-130 -478h397l-121 473q-51 196 -71 326zM454 -117h174v-212h-174v212z" />
    <glyph glyph-name="uni1EA1" unicode="&#x1ea1;" horiz-adv-x="903" vert-adv-y="2457" 
d="M89 767q-1 93 11.5 144.5t45.5 93.5q92 119 297 119q242 0 311 -148q27 -56 27 -212v-527q0 -72 13.5 -96.5t51.5 -24.5q16 0 34 8v-122q-42 -17 -92 -17q-155 0 -165 144q-95 -155 -282 -155q-137 0 -208 78q-75 82 -75 231q0 159 85 240q34 32 81.5 53t161.5 53
q114 33 152.5 49t55.5 37q21 28 21 98q0 72 -23 111q-40 69 -153 69q-110 0 -156 -67q-33 -48 -33 -159h-161zM619 601q-24 -26 -58.5 -41.5t-153.5 -52.5q-124 -39 -155 -106q-20 -43 -20 -109q0 -86 39 -131q41 -48 118 -48q52 0 101 25t81 67q26 34 35 72t9 113v85
q1 107 4 126zM369 -117h165v-202h-165v202z" />
    <glyph glyph-name="uni1EA2" unicode="&#x1ea2;" horiz-adv-x="1081" vert-adv-y="2457" 
d="M431 1462h237l404 -1462h-191l-105 401h-470l-110 -401h-187zM548 1348q-13 -96 -75 -321l-130 -478h397l-121 473q-51 196 -71 326zM581 1593h-86v128q115 11 142 18q54 13 54 63q0 36 -26.5 58t-69.5 22q-59 0 -142 -34l-28 69q104 39 181 39q80 0 131 -37
q64 -46 64 -121q0 -61 -43 -95.5t-117 -34.5q-20 0 -60 2v-77z" />
    <glyph glyph-name="uni1EA3" unicode="&#x1ea3;" horiz-adv-x="903" vert-adv-y="2457" 
d="M89 767q-1 93 11.5 144.5t45.5 93.5q92 119 297 119q242 0 311 -148q27 -56 27 -212v-527q0 -72 13.5 -96.5t51.5 -24.5q16 0 34 8v-122q-42 -17 -92 -17q-155 0 -165 144q-95 -155 -282 -155q-137 0 -208 78q-75 82 -75 231q0 159 85 240q34 32 81.5 53t161.5 53
q114 33 152.5 49t55.5 37q21 28 21 98q0 72 -23 111q-40 69 -153 69q-110 0 -156 -67q-33 -48 -33 -159h-161zM619 601q-24 -26 -58.5 -41.5t-153.5 -52.5q-124 -39 -155 -106q-20 -43 -20 -109q0 -86 39 -131q41 -48 118 -48q52 0 101 25t81 67q26 34 35 72t9 113v85
q1 107 4 126zM492 1308h-86v128q115 11 142 18q54 14 54 63q0 36 -26.5 58t-70.5 22q-53 0 -141 -34l-28 69q104 39 183 39q78 0 129 -37q64 -46 64 -121q0 -61 -43 -95t-119 -34q-20 0 -58 1v-77z" />
    <glyph glyph-name="uni1EA4" unicode="&#x1ea4;" horiz-adv-x="1081" vert-adv-y="2457" 
d="M760 1704l131 222h219l-238 -259h-83l58 -73h-181l-128 154l-132 -154h-172l224 273h171zM431 1462h237l404 -1462h-191l-105 401h-470l-110 -401h-187zM548 1348q-13 -96 -75 -321l-130 -478h397l-121 473q-51 196 -71 326z" />
    <glyph glyph-name="uni1EA5" unicode="&#x1ea5;" horiz-adv-x="903" vert-adv-y="2457" 
d="M649 1383l123 253h205l-221 -294h-78l59 -85h-163l-125 182l-128 -182h-154l207 293h160zM89 767q-1 93 11.5 144.5t45.5 93.5q92 119 297 119q242 0 311 -148q27 -56 27 -212v-527q0 -72 13.5 -96.5t51.5 -24.5q16 0 34 8v-122q-42 -17 -92 -17q-155 0 -165 144
q-95 -155 -282 -155q-137 0 -208 78q-75 82 -75 231q0 159 85 240q34 32 81.5 53t161.5 53q114 33 152.5 49t55.5 37q21 28 21 98q0 72 -23 111q-40 69 -153 69q-110 0 -156 -67q-33 -48 -33 -159h-161zM619 601q-24 -26 -58.5 -41.5t-153.5 -52.5q-124 -39 -155 -106
q-20 -43 -20 -109q0 -86 39 -131q41 -48 118 -48q52 0 101 25t81 67q26 34 35 72t9 113v85q1 107 4 126z" />
    <glyph glyph-name="uni1EA6" unicode="&#x1ea6;" horiz-adv-x="1081" vert-adv-y="2457" 
d="M431 1462h237l404 -1462h-191l-105 401h-470l-110 -401h-187zM548 1348q-13 -96 -75 -321l-130 -478h397l-121 473q-51 196 -71 326zM458 1867h171l218 -273h-181l-128 154l-132 -154h-172zM842 1941l153 -259h-134l-238 259h219z" />
    <glyph glyph-name="uni1EA7" unicode="&#x1ea7;" horiz-adv-x="903" vert-adv-y="2457" 
d="M89 767q-1 93 11.5 144.5t45.5 93.5q92 119 297 119q242 0 311 -148q27 -56 27 -212v-527q0 -72 13.5 -96.5t51.5 -24.5q16 0 34 8v-122q-42 -17 -92 -17q-155 0 -165 144q-95 -155 -282 -155q-137 0 -208 78q-75 82 -75 231q0 159 85 240q34 32 81.5 53t161.5 53
q114 33 152.5 49t55.5 37q21 28 21 98q0 72 -23 111q-40 69 -153 69q-110 0 -156 -67q-33 -48 -33 -159h-161zM619 601q-24 -26 -58.5 -41.5t-153.5 -52.5q-124 -39 -155 -106q-20 -43 -20 -109q0 -86 39 -131q41 -48 118 -48q52 0 101 25t81 67q26 34 35 72t9 113v85
q1 107 4 126zM374 1551h160l203 -293h-163l-125 181l-128 -181h-154zM539 1633h207l140 -293h-128z" />
    <glyph glyph-name="uni1EA8" unicode="&#x1ea8;" horiz-adv-x="1081" vert-adv-y="2457" 
d="M754 1711v74q115 11 142 18q54 14 54 63q0 36 -27 58t-70 22q-57 0 -141 -35l-28 70q102 39 183 39q78 0 129 -37q64 -47 64 -121q0 -61 -42.5 -95.5t-118.5 -34.5q-19 0 -59 2v-77h-43l50 -63h-181l-128 154l-131 -154h-172l223 273h171zM431 1462h237l404 -1462h-191
l-105 401h-470l-110 -401h-187zM548 1348q-13 -96 -75 -321l-130 -478h397l-121 473q-51 196 -71 326z" />
    </font>
</defs>
</svg>
