<svg xmlns="http://www.w3.org/2000/svg" xmlns:xlink="http://www.w3.org/1999/xlink"><symbol viewBox="0 0 100 56.098" id="Logo_Badge_MAN_RGB" xmlns="http://www.w3.org/2000/svg"><path d="M2.195 53.415l2.178 2.683H100V0H4.373L2.195 2.683z" data-fill="true"/><path d="M0 56.098h4.39V0H0z" data-fill="true"/><g fill="none"><path fill-rule="evenodd" clip-rule="evenodd" d="M25.196 35.48h4.651l3.1 3.1 3.1-3.1h4.651v9.49H35.68v-3.486l-2.733 2.732-2.733-2.732v3.486h-5.018zm34.094 0h4.896l5.513 4.091V35.48h5.019v9.49h-4.934l-5.477-4.054v4.054H59.29z" data-fill="true"/><path fill-rule="evenodd" clip-rule="evenodd" d="M19.512 41.615c0-16.839 13.65-30.488 30.488-30.488s30.488 13.65 30.488 30.488c0 1.134-.062 2.253-.183 3.355h-3.424c.136-1.099.206-2.219.206-3.355 0-14.96-12.127-27.087-27.087-27.087-14.959 0-27.086 12.127-27.086 27.087 0 1.136.07 2.255.206 3.355h-3.424a30.464 30.464 0 0 1-.184-3.355z" data-fill="true"/><path fill-rule="evenodd" clip-rule="evenodd" d="M50.01 39.439l1.163 1.797h-2.326l1.163-1.797zm-2.605-3.959h5.209l6.177 9.49h-5.218l-.67-1.035h-5.788l-.669 1.035h-5.218l6.177-9.49z" data-fill="true"/><path d="M77.63 44.299c.085-.883.128-1.778.128-2.683 0-15.331-12.428-27.759-27.759-27.759S22.241 26.285 22.241 41.616c0 .905.043 1.8.128 2.683l.478.43a27.603 27.603 0 0 1-.176-3.114c0-15.094 12.235-27.329 27.328-27.329s27.328 12.235 27.328 27.329c0 1.053-.059 2.092-.175 3.114l.478-.43z" data-fill="true"/><path d="M29.747 35.722h-4.309v9.007h4.535v-3.828l2.974 2.974 2.974-2.974v3.828h4.536v-9.007h-4.31l-3.2 3.2zm34.359 0h-4.575v9.007h4.535v-4.292l5.798 4.292h4.612v-9.007h-4.535v4.329z" data-fill="true"/><path fill-rule="evenodd" clip-rule="evenodd" d="M52.483 35.722h-4.947l-5.862 9.007h4.641l.669-1.035h6.05l.669 1.035h4.641l-5.861-9.007zm-.866 5.755h-3.214l1.607-2.483 1.607 2.483z" data-fill="true"/><path fill-rule="evenodd" clip-rule="evenodd" d="M50.01 38.202v.792c-.586 1.248-1.122 2.075-1.607 2.483l-.791.43 2.398-3.705z" data-fill="true"/><path fill-rule="evenodd" clip-rule="evenodd" d="M20.303 44.299h2.067l.478.43h-2.936zm57.327 0h2.067l.391.43h-2.936zm-52.192-8.577l.43.43v8.147h3.675l.43.43h-4.535zm4.105 4.14l3.404 3.404 3.405-3.404v4.437h3.674l.431.43h-4.536v-3.828l-2.974 2.974-2.974-2.974zm3.404-.94l3.2-3.2.178.43-3.378 3.379zm17.063-.72l2.398 3.706-.791-.431-1.607-2.482zm9.521-2.48l.43.43v8.147h3.674l.431.43h-4.535zm4.104 3.861l6.371 4.716h4.04l.43.43h-4.612l-5.798-4.292zm6.306-3.861l.43.43v4.754l-.43-.855z" fill="none"/><path d="M80.088 44.729c.105-1.024.158-2.063.158-3.114 0-16.705-13.541-30.247-30.246-30.247S19.754 24.91 19.754 41.615c0 1.051.054 2.09.158 3.114l.391-.43a30.14 30.14 0 0 1-.119-2.683c0-16.468 13.349-29.817 29.816-29.817s29.816 13.349 29.816 29.817c0 .904-.04 1.799-.119 2.683l.391.43z" data-fill="true"/><path d="M46.75 43.264h6.519l.669 1.035h3.614l.793.43h-4.641l-.669-1.035h-6.051l-.668 1.035h-4.642l5.862-9.007.233.43-5.301 8.147h3.613z" fill="none"/><path d="M29.569 36.152h-3.701v8.147h3.675v-4.437l3.404 3.404 3.405-3.404v4.437h3.674v-8.147h-3.701l-3.378 3.379z" data-fill="true"/><path d="M50 11.799c-16.467 0-29.816 13.349-29.816 29.817 0 .904.04 1.799.119 2.683h2.067a27.996 27.996 0 0 1-.128-2.683c0-15.331 12.428-27.759 27.758-27.759 15.331 0 27.759 12.428 27.759 27.759 0 .905-.043 1.8-.128 2.683h2.067a30.14 30.14 0 0 0 .119-2.683C79.816 25.147 66.467 11.799 50 11.799z" data-fill="true"/><path d="M63.964 36.152h-4.003v8.147h3.674v-4.716l6.371 4.716h4.04v-8.147h-3.675v4.754z" data-fill="true"/><path fill-rule="evenodd" clip-rule="evenodd" d="M52.25 36.152h-4.48l-5.301 8.146h3.613l.669-1.035h6.519l.669 1.035h3.613l-5.302-8.146zm.158 5.756h-4.796l2.398-3.706 2.398 3.706z" data-fill="true"/></g></symbol></svg>